<?xml version="1.0" encoding="UTF-8" standalone="no"?>
<!-- Created with Inkscape (http://www.inkscape.org/) -->

<svg
   width="404.89456"
   height="349.24777"
   viewBox="0 0 107.12835 92.405138"
   version="1.1"
   id="svg5"
   xml:space="preserve"
   xmlns="http://www.w3.org/2000/svg"
   xmlns:svg="http://www.w3.org/2000/svg"><defs
     id="defs2" /><g
     id="layer1"
     transform="translate(-96.741569,-45.801007)"><path
       style="fill:#000000;stroke-width:0.0636911"
       d="m 147.5901,137.31335 c 0.0501,-1.0494 0.27427,-3.93551 0.366,-4.712 0.0352,-0.29776 0.0887,-2.60497 0.11892,-5.12713 0.0302,-2.52217 0.0873,-4.91536 0.12675,-5.31821 0.15945,-1.62695 0.38896,-2.89899 1.20659,-6.68755 0.53479,-2.47796 0.69619,-3.34029 1.02522,-5.47743 0.39722,-2.58002 1.14623,-7.88297 1.18875,-8.41615 0.0347,-0.43522 0.0261,-0.49317 -0.0816,-0.54882 -0.0662,-0.0342 -0.95799,-0.0975 -1.98175,-0.14055 -1.85092,-0.0779 -1.86262,-0.0776 -2.07908,0.0562 -0.11973,0.074 -0.29425,0.23491 -0.38781,0.35758 -0.0936,0.12268 -1.11675,1.97803 -2.27374,4.12302 -2.32933,4.31842 -3.29775,6.06104 -4.28102,7.70339 -0.86988,1.45297 -0.93344,1.58433 -1.85157,3.82654 -0.97459,2.3801 -1.68436,4.02433 -2.48265,5.75129 -0.88138,1.90667 -3.30358,6.74132 -3.38861,6.76356 -0.0395,0.0103 -0.0881,-0.0239 -0.10814,-0.076 -0.0337,-0.0878 0.70199,-1.8477 1.69321,-4.05052 1.01346,-2.25225 2.04463,-5.08884 2.91463,-8.0177 1.0641,-3.58233 0.92922,-3.29322 3.36122,-7.20445 0.75147,-1.20854 1.72622,-2.75546 2.16612,-3.43759 0.60287,-0.93487 1.00624,-1.66411 1.63817,-2.96164 0.46111,-0.94677 0.87276,-1.826 0.9148,-1.95386 0.0434,-0.13206 0.085,-0.70421 0.0963,-1.32459 0.0185,-1.015389 0.0109,-1.103588 -0.10852,-1.255371 -0.10673,-0.135678 -0.16705,-0.157973 -0.35711,-0.131993 -0.30035,0.04105 -10.34339,3.336264 -10.67403,3.502234 -0.24953,0.12526 -1.93496,1.20721 -6.33726,4.06816 -1.20854,0.78539 -2.32632,1.5021 -2.48395,1.59267 -0.28574,0.16418 -0.44584,0.17582 -0.44584,0.0324 0,-0.0971 0.35926,-0.37434 5.6685,-4.37477 2.43459,-1.83442 5.67183,-4.279294 7.19386,-5.433042 1.52203,-1.153749 2.91209,-2.190315 3.08902,-2.303481 0.32638,-0.208757 0.68139,-0.342485 1.30237,-0.49058 0.41938,-0.100017 0.51946,-0.224866 0.3669,-0.4577 -0.13726,-0.20949 -0.33454,-0.213145 -0.72871,-0.0135 -1.03401,0.523713 -5.14179,1.984589 -6.73169,2.394031 -0.70937,0.182681 -0.832,0.19556 -1.75151,0.183945 -1.12193,-0.01417 -1.21303,0.0089 -2.67861,0.676952 -1.31015,0.59725 -3.36515,1.24948 -5.73013,1.818665 -2.62944,0.63284 -3.86669,1.09543 -6.56018,2.45279 -1.38846,0.6997 -2.28265,1.22551 -3.63039,2.13479 -1.02358,0.69057 -2.47871,1.4713 -3.47116,1.86239 -0.31527,0.12423 -0.97176,0.32933 -1.45886,0.45578 -0.4871,0.12644 -1.16064,0.33238 -1.49674,0.45765 -2.02653,0.75528 -7.24202,3.1434 -9.941854,4.55228 -1.39385,0.72737 -1.78335,0.89637 -1.78335,0.77377 0,-0.28327 2.61892,-1.71582 5.572974,-3.0484 3.71723,-1.67686 5.1804,-2.5377 8.3819,-4.9314 1.82234,-1.36254 2.44362,-1.65485 6.27708,-2.95338 3.33999,-1.13137 4.52168,-1.5508 4.70194,-1.66891 0.0913,-0.0598 0.47547,-0.513125 0.85382,-1.00741 0.37834,-0.494286 1.25369,-1.584233 1.9452,-2.422106 1.66423,-2.016467 3.42116,-4.387288 3.78042,-5.101358 0.16548,-0.328894 2.06402,-6.256257 2.06617,-6.450701 0.005,-0.464653 -1.44809,-1.22329 -3.581,-1.869413 -1.98431,-0.601103 -3.81878,-1.002208 -7.38817,-1.615409 -2.2219,-0.381709 -10.33568,-1.816516 -11.17778,-1.97663 -1.18385,-0.225095 -1.43305,-0.291732 -1.43305,-0.383205 0,-0.140004 0.19344,-0.122683 3.2221,0.288498 6.42118,0.871763 9.73807,1.269999 12.00385,1.441217 1.69255,0.127901 1.68887,0.127832 1.8018,0.03411 0.051,-0.04232 0.14216,-0.283551 0.20258,-0.536066 0.36772,-1.536785 0.88904,-2.662622 1.71094,-3.694882 0.14336,-0.180064 0.17701,-0.267478 0.13102,-0.340388 -0.034,-0.05396 -0.5918,-0.339786 -1.23948,-0.635175 -2.05386,-0.936713 -2.33179,-1.085587 -2.5607,-1.371692 -0.11504,-0.143786 -0.2773,-0.328814 -0.36056,-0.411172 -0.0833,-0.08236 -1.37301,-0.814774 -2.8661,-1.627592 -3.07026,-1.671411 -3.21163,-1.753687 -3.15914,-1.838623 0.0472,-0.07642 0.30247,-0.08053 0.38393,-0.0062 0.0333,0.03037 1.40757,0.738457 3.05398,1.573526 2.43608,1.23559 3.05376,1.57501 3.31721,1.822836 0.33189,0.3122 0.73935,0.523899 2.61747,1.35992 1.45784,0.648941 3.59049,1.37605 4.30361,1.467284 0.3087,0.03949 6.00815,-0.495182 6.92646,-0.649781 1.13607,-0.191262 2.16748,-0.550858 3.0094,-1.049219 0.23677,-0.140153 0.42991,-0.298889 0.42991,-0.353329 0,-0.119714 -0.96594,-1.54938 -1.4355,-2.124651 -0.35039,-0.42927 -1.73289,-1.727107 -2.8967,-2.719325 -0.36849,-0.314152 -0.90125,-0.841121 -1.18391,-1.171041 -0.48352,-0.56436 -4.04115,-5.229796 -4.46616,-5.856863 -0.10776,-0.159007 -0.39786,-0.703566 -0.64464,-1.21013 -0.53738,-1.103044 -1.08189,-2.028896 -2.17109,-3.691587 -0.44747,-0.683087 -1.09063,-1.671891 -1.42923,-2.197343 -0.3386,-0.525451 -0.82996,-1.26556 -1.0919,-1.644686 -0.26194,-0.379125 -0.47625,-0.730223 -0.47625,-0.780216 0,-0.04999 0.0588,-0.0909 0.13063,-0.0909 0.23222,0 0.86209,0.758729 1.5862,1.910732 0.51083,0.812702 2.03439,2.987433 2.29077,3.269854 0.23804,0.262221 0.42739,0.340804 0.92846,0.385322 1.98176,0.176074 2.68656,0.232664 3.63039,0.291491 0.9377,0.05845 3.07092,0.216358 6.05065,0.4479 0.45539,0.03539 1.47285,0.107857 2.26103,0.161045 0.78818,0.05319 2.50784,0.181116 3.82147,0.284284 1.31362,0.103169 3.49186,0.260847 4.84052,0.350396 1.34866,0.08955 3.12302,0.219451 3.94303,0.28867 0.82001,0.06922 1.71697,0.125853 1.99324,0.125853 0.63712,0 0.6515,-0.01369 1.2472,-1.187699 0.74557,-1.469367 1.1298,-2.513562 2.21127,-6.009393 0.233,-0.753147 0.71869,-2.186196 1.07933,-3.184553 0.36063,-0.998358 0.83645,-2.355465 1.05737,-3.015794 0.22092,-0.660329 0.44144,-1.215858 0.49005,-1.23451 0.0486,-0.01865 0.12066,-0.0016 0.16011,0.03782 0.11929,0.11929 -0.40042,2.053516 -1.16607,4.339863 -0.85662,2.557972 -1.41862,4.735249 -1.74801,6.772048 -0.17563,1.085957 -0.35153,1.752751 -0.99071,3.755558 l -0.44296,1.387938 -0.0268,1.828462 c -0.0147,1.005654 -0.0107,1.909521 0.009,2.008594 0.0482,0.24218 0.21131,0.28953 0.78219,0.227003 0.26273,-0.02877 1.74625,-0.181737 3.29671,-0.339914 1.81591,-0.185256 2.88112,-0.320157 2.99349,-0.379101 0.0959,-0.05033 0.37507,-0.252804 0.62028,-0.449947 0.24521,-0.197141 0.72848,-0.533687 1.07392,-0.747878 0.34545,-0.214191 0.76629,-0.527643 0.9352,-0.69656 0.43765,-0.437645 2.40193,-3.636888 4.04024,-6.580387 1.15992,-2.083986 1.69334,-3.174538 2.39896,-4.904533 0.17092,-0.419042 0.42156,-0.949271 0.55699,-1.178285 0.61699,-1.043371 1.10374,-2.245769 1.53507,-3.792015 0.39963,-1.432596 0.53391,-1.836781 0.61913,-1.863612 0.15889,-0.05002 0.14565,0.298597 -0.0466,1.226701 -0.52022,2.511656 -1.14503,4.54846 -1.8789,6.124964 -0.14948,0.321113 -0.58506,1.066298 -0.96795,1.655968 -1.28791,1.983442 -2.4607,4.040158 -3.9396,6.90885 -0.49917,0.968272 -1.0391,1.988511 -1.19985,2.267199 -0.38119,0.660857 -1.02632,2.024863 -1.39361,2.94648 -1.03173,2.588906 -3.21655,8.37238 -3.46471,9.171514 -0.50307,1.619996 -0.53474,1.779125 -0.62743,3.152709 -0.11509,1.70539 -0.11482,3.001824 8.3e-4,3.870468 0.0986,0.741202 0.12697,0.828106 0.26011,0.798429 0.048,-0.0107 2.44236,-3.028852 5.32082,-6.707012 6.8826,-8.794757 6.44916,-8.264862 7.89286,-9.649198 1.08736,-1.042636 2.36082,-2.368611 3.97931,-4.143401 0.29034,-0.318384 1.55065,-1.440378 2.92979,-2.608264 3.19443,-2.705111 3.73838,-3.1986 5.26668,-4.778065 0.71743,-0.741481 1.34236,-1.335867 1.40448,-1.335867 0.18538,0 0.12737,0.185011 -0.15877,0.50633 -1.14814,1.289283 -1.75468,1.98367 -2.27696,2.606726 -0.51309,0.612093 -0.91971,0.984529 -2.67502,2.450129 -3.44859,2.8794 -3.87096,3.277756 -6.05434,5.710136 -2.63819,2.939059 -3.30825,3.752469 -3.30825,4.016015 0,0.04155 0.59507,0.681139 1.32238,1.421313 0.72731,0.740174 1.56385,1.646711 1.85898,2.014527 1.55335,1.935885 2.49698,3.816599 4.23424,8.439068 0.52082,1.385774 0.62263,1.541136 0.95739,1.460849 0.10641,-0.02552 0.86699,-0.0536 1.6902,-0.06241 1.53132,-0.01639 1.93798,-0.04875 4.04438,-0.321872 1.42931,-0.185326 2.83955,-0.411308 5.31821,-0.852207 2.05544,-0.365618 2.58966,-0.409973 6.14618,-0.510293 3.19641,-0.09016 3.15271,-0.09095 3.15271,0.05726 0,0.175729 -0.41157,0.228976 -3.50301,0.453208 -4.84377,0.351333 -5.20195,0.399602 -6.584,0.887258 -0.31085,0.109686 -0.79165,0.227824 -1.06843,0.262529 -0.58675,0.07357 -0.74556,0.125877 -0.89874,0.295996 -0.15571,0.172917 -0.94423,2.134817 -1.35096,3.361278 -0.61958,1.868314 -1.02988,3.691706 -1.30421,5.795887 -0.30338,2.32712 -0.70193,4.017461 -1.51104,6.408717 -0.24014,0.709704 -0.40515,1.295911 -0.38186,1.356601 0.0226,0.0588 0.20616,0.18215 0.40801,0.27417 0.20186,0.092 0.52465,0.27408 0.71731,0.40459 0.1932,0.13087 1.29291,0.62819 2.45211,1.1089 2.71289,1.12504 2.83425,1.17998 2.83425,1.2832 0,0.14741 -0.32654,0.10056 -1.34949,-0.19362 -1.41084,-0.40575 -2.57106,-0.83214 -6.14112,-2.25694 -1.7477,-0.69751 -3.38772,-1.335465 -3.64448,-1.417683 -0.44911,-0.143811 -0.4741,-0.145321 -0.658,-0.03978 -0.45424,0.260697 -0.60138,0.212762 -8.81097,-2.870358 -5.836,-2.191715 -7.35755,-2.711228 -7.63208,-2.605877 -0.22028,0.08453 -0.2263,0.249995 -0.0364,1.00057 0.29239,1.155583 0.37389,1.69037 0.39504,2.592258 0.0165,0.70178 0.0387,0.862084 0.13414,0.967564 0.0774,0.08556 0.37481,0.188108 0.91998,0.317249 2.009,0.475899 6.71517,1.406227 8.11344,1.603877 1.725,0.24385 4.72997,0.44688 7.19968,0.48647 2.03961,0.0327 2.50325,0.067 2.39287,0.17729 -0.0777,0.0776 -3.72188,0.23553 -4.6399,0.20112 -1.95299,-0.0732 -3.72236,-0.16722 -4.42653,-0.23519 -0.64934,-0.0627 -3.77218,-0.56587 -4.98613,-0.80343 -0.7444,-0.14566 -0.78417,-0.1202 -1.03094,0.66025 -0.49046,1.55111 -1.08918,2.85171 -1.76065,3.82464 -0.22362,0.32401 -0.40658,0.64334 -0.40658,0.70962 0,0.0663 0.30712,0.50337 0.6825,0.97132 0.74834,0.93288 5.46916,6.59589 7.18678,8.62112 0.59418,0.7006 1.39538,1.65922 1.78043,2.13026 1.27688,1.56205 2.01574,2.37341 3.94706,4.33437 1.86912,1.8978 2.13013,2.20229 3.22114,3.75778 0.30125,0.42951 0.86871,1.07913 1.58623,1.81591 0.61444,0.63093 1.56003,1.67706 2.10131,2.32472 0.54127,0.64766 1.27262,1.50717 1.6252,1.91002 1.28057,1.46312 3.82375,4.72448 3.89003,4.98853 0.0235,0.0937 0.0182,0.17002 -0.0119,0.1695 -0.10515,-0.002 -0.52071,-0.41777 -0.98533,-0.98627 -0.25766,-0.31527 -0.94287,-1.1321 -1.52268,-1.81519 -0.57981,-0.68309 -1.49586,-1.77221 -2.03566,-2.42026 -1.26299,-1.51628 -1.66627,-1.93295 -2.86732,-2.96248 -0.99109,-0.84957 -1.27275,-1.14765 -3.04836,-3.2262 -1.14468,-1.33996 -1.95906,-2.23657 -3.2709,-3.60117 -1.64362,-1.70973 -2.6962,-2.88764 -3.98773,-4.46257 -0.84328,-1.02833 -1.91678,-1.98589 -3.70505,-3.30487 -0.33278,-0.24546 -0.70537,-0.55901 -0.82798,-0.69678 -0.1226,-0.13777 -1.06302,-1.47284 -2.08982,-2.96683 -1.02679,-1.49398 -1.91312,-2.73407 -1.96963,-2.75575 -0.1436,-0.0551 -2.92978,1.80615 -3.28184,2.19237 -0.14838,0.16279 -0.51341,0.60756 -0.81117,0.98838 -0.70454,0.90108 -1.74436,1.98364 -2.38827,2.48644 -0.28173,0.21999 -1.42476,0.94799 -2.54008,1.61778 -3.62996,2.17993 -3.93856,2.43184 -4.84925,3.95847 -0.72089,1.20845 -1.67038,3.09471 -2.931,5.82273 l -0.94181,2.03811 -0.0529,1.11459 c -0.0596,1.25646 -0.17675,2.43034 -0.40995,4.10808 -0.22123,1.59172 -0.91478,6.15391 -0.95613,6.28949 -0.0187,0.0613 -0.0938,0.11146 -0.16689,0.11146 -0.13045,0 -0.13211,-0.0165 -0.0903,-0.89281 z m 3.60181,-18.97523 c 0.1607,-0.10313 0.38317,-0.28226 0.49438,-0.39807 0.25671,-0.26733 1.284,-1.75374 1.92827,-2.79005 0.47926,-0.77089 0.7472,-1.25623 2.07454,-3.75777 1.70726,-3.21752 3.19749,-5.44761 4.61625,-6.90812 0.40961,-0.42166 0.79822,-0.86697 0.86359,-0.98958 0.0911,-0.17093 0.12471,-0.39884 0.14402,-0.97728 0.0232,-0.6948 0.0163,-0.75264 -0.0875,-0.73245 -0.21276,0.0414 -3.34402,4.62516 -4.58337,6.70949 -3.75128,6.30884 -5.82676,9.8459 -5.82676,9.93005 0,0.13878 0.0403,0.12955 0.37657,-0.0862 z m -0.46689,-1.38884 c 3.28864,-6.83569 3.81099,-8.00036 5.06316,-11.28925 0.8002,-2.10175 1.53381,-3.80917 2.52615,-5.879401 0.3713,-0.774607 0.52306,-1.155118 0.47849,-1.199688 -0.0727,-0.07271 -0.82576,0.114581 -2.72297,0.67722 -0.63054,0.186995 -1.33273,0.390043 -1.56043,0.451219 -0.65647,0.176374 -0.88562,0.31596 -1.02096,0.62191 -0.14687,0.33204 -2.17416,10.39941 -2.56723,12.74875 -0.15825,0.94582 -0.36169,2.29288 -0.4521,2.99348 -0.0904,0.70061 -0.17775,1.35264 -0.1941,1.44898 -0.0609,0.35886 0.10045,0.15333 0.44999,-0.57322 z m 3.13452,-4.54131 c 3.69241,-6.4572 3.74161,-6.53752 6.225,-10.16363 0.54869,-0.80117 1.025,-1.50784 1.05847,-1.57038 0.0479,-0.0896 0.008,-0.17351 -0.18723,-0.39554 -0.14068,-0.15982 -0.34885,-0.524211 -0.48085,-0.841664 -0.12802,-0.307905 -0.29421,-0.66014 -0.36931,-0.782745 l -0.13654,-0.222919 -0.12907,0.172658 c -0.13362,0.178752 -1.55183,3.31695 -3.27521,7.24736 -1.44126,3.28701 -1.80504,4.04809 -3.81027,7.97161 -1.61509,3.16018 -1.89218,3.72176 -1.78195,3.61153 0.0164,-0.0164 1.31556,-2.27825 2.88696,-5.02628 z m 1.14172,2.32804 c 2.00242,-2.6255 4.56484,-6.53086 5.32107,-8.1098 0.53742,-1.12205 0.44498,-1.11273 -0.52405,0.0529 -1.17438,1.41262 -1.90228,2.48559 -3.04612,4.49022 -1.37391,2.40781 -2.49353,4.43586 -2.43742,4.41507 0.0303,-0.0112 0.3392,-0.39298 0.68652,-0.84837 z m 4.64798,-2.5249 c 1.40245,-1.01311 2.21982,-1.73025 2.98576,-2.61966 1.0589,-1.22961 2.12308,-2.95626 2.53868,-4.11908 l 0.16952,-0.47428 -0.48816,-0.72374 c -0.63009,-0.9342 -0.77156,-1.09827 -0.94697,-1.09827 -0.20338,0 -0.30171,0.13367 -0.65598,0.89167 -0.67598,1.44636 -1.74032,3.0612 -5.69666,8.64304 -0.79955,1.12806 -1.45373,2.06616 -1.45373,2.08469 0,0.0185 0.55306,-0.3783 1.22902,-0.88184 0.67597,-0.50352 1.7193,-1.26967 2.31852,-1.70253 z m 7.60633,-7.62202 c 0.67873,-1.0747 1.57612,-3.22715 1.6891,-4.05142 0.0336,-0.24519 0.0202,-0.2896 -0.11292,-0.37347 -0.0831,-0.0524 -0.91058,-0.27163 -1.83888,-0.48728 -0.92829,-0.21565 -2.33707,-0.562686 -3.13062,-0.771191 -0.79354,-0.208506 -1.48857,-0.3791 -1.54451,-0.3791 -0.0559,0 -0.1017,0.04045 -0.1017,0.0899 0,0.04945 0.62126,0.945101 1.38059,1.990351 0.75932,1.04524 1.72187,2.40201 2.13901,3.01504 0.83062,1.22072 1.03694,1.47211 1.16715,1.42214 0.0475,-0.0182 0.20625,-0.22296 0.35278,-0.45497 z m -26.29258,-5.115564 c 1.89827,-0.635199 3.492,-1.192728 3.54164,-1.238952 0.0998,-0.09296 0.12986,-0.03962 -0.5897,-1.046797 -0.30122,-0.421619 -0.39825,-0.515784 -0.50953,-0.494454 -0.14499,0.02779 -5.71593,3.611927 -5.93157,3.816147 -0.0781,0.074 -0.0947,0.11896 -0.0439,0.11896 0.0449,0 1.63481,-0.5197 3.53308,-1.154904 z m 44.83928,0.212042 c 0.21793,-0.24081 1.31063,-2.975413 1.96194,-4.909975 0.38401,-1.14061 0.59705,-1.949029 0.95011,-3.605283 0.28209,-1.323313 1.02514,-3.885738 1.70245,-5.871 0.32818,-0.961901 0.54807,-1.701047 0.51971,-1.746939 -0.0533,-0.08617 -1.49254,0.104131 -3.14847,0.416291 -1.12535,0.212138 -1.96745,0.291072 -3.11169,0.291671 -1.13027,5.73e-4 -1.14595,0.0035 -5.10446,0.952834 -4.55445,1.09223 -6.36595,1.544591 -6.44872,1.610346 -0.10965,0.08711 -0.10033,0.366811 0.0504,1.512544 0.27473,2.087875 0.12412,4.301207 -0.42776,6.286381 -0.10487,0.377225 -0.10466,0.400629 0.005,0.521303 0.17907,0.197865 1.3527,0.681929 2.18241,0.900134 1.4996,0.394382 2.31633,0.726731 4.09774,1.667479 1.42399,0.752004 1.466,0.764612 2.3814,0.714714 0.92824,-0.0506 1.05468,-0.02163 2.17251,0.497669 1.01989,0.473805 1.95115,0.87236 2.04416,0.874848 0.0384,10e-4 0.11653,-0.04983 0.17371,-0.113017 z m -59.87511,-0.713577 c 0.73432,-0.225029 0.69251,-0.138301 1.13034,-2.345099 0.21077,-1.06237 0.38322,-1.943695 0.38322,-1.958501 0,-0.390493 -1.64012,2.502576 -2.04016,3.598727 -0.24817,0.679996 -0.24895,0.942712 -0.003,0.867083 0.0551,-0.01691 0.2932,-0.0899 0.52915,-0.16221 z m 39.4075,-0.504866 c 0.0851,-0.15904 0.0849,-1.349895 -6.3e-4,-2.043972 -0.0753,-0.613245 -0.28852,-1.465214 -0.40727,-1.627606 -0.0708,-0.09682 -0.12527,-0.04915 -0.48654,0.425745 -0.22374,0.294126 -0.72672,0.867904 -1.11772,1.275063 -0.76861,0.800382 -0.86887,0.989047 -0.69957,1.316435 0.12902,0.249501 0.3612,0.348728 1.34436,0.574531 1.01498,0.233114 1.27688,0.248402 1.36711,0.0798 z m -3.2606,-0.692847 c 0.0139,-0.0416 -0.0202,-0.07563 -0.0756,-0.07563 -0.0555,0 -0.10084,0.04538 -0.10084,0.100844 0,0.112474 0.13711,0.09289 0.17647,-0.02521 z m -32.51156,-0.64016 c 1.05777,-0.683759 1.31247,-0.803413 2.54608,-1.196151 0.58812,-0.187237 1.14701,-0.381021 1.24197,-0.43063 0.26171,-0.136716 0.4232,-0.338608 1.43127,-1.789384 0.51116,-0.735632 1.05329,-1.456707 1.20474,-1.602389 0.15146,-0.145682 0.81993,-0.607045 1.4855,-1.025252 2.09867,-1.318685 2.5158,-1.60175 2.5158,-1.707249 0,-0.163252 -0.35339,-0.473787 -0.53918,-0.473787 -0.0918,0 -0.81765,0.05902 -1.6131,0.13116 -1.61407,0.146378 -2.51673,0.314321 -3.73915,0.695682 -0.45539,0.14207 -0.88306,0.250604 -0.95037,0.241185 -0.33888,-0.04741 -0.0793,-0.188469 1.07291,-0.583036 1.56927,-0.537387 1.96467,-0.637333 3.2972,-0.833443 1.20238,-0.176956 1.62382,-0.272428 1.54035,-0.348944 -0.2647,-0.242637 -1.12035,-0.846231 -1.59891,-1.127906 -1.03719,-0.610474 -1.11417,-0.634237 -2.64297,-0.815854 -1.2328,-0.146454 -1.40718,-0.154512 -1.60003,-0.07394 -0.17433,0.07284 -0.51716,0.503628 -1.76263,2.214824 -0.90686,1.245976 -1.56624,2.211679 -1.59467,2.33549 -0.029,0.126361 -0.19211,0.361701 -0.40632,0.586281 -0.66477,0.696937 -0.97067,1.57284 -1.1456,3.280211 -0.0952,0.92927 -0.0958,1.099067 -0.007,1.900885 0.0537,0.484256 0.0976,0.904345 0.0976,0.933532 0,0.10277 0.20859,0.260147 0.29888,0.225499 0.0503,-0.01929 0.44065,-0.26084 0.86754,-0.536787 z m 7.62552,-2.929961 c 1.17209,-0.415674 2.37189,-0.838423 2.6662,-0.939443 0.86485,-0.296848 1.10934,-0.63654 1.10631,-1.537111 -0.002,-0.657373 -0.39173,-1.669837 -0.66249,-1.721982 -0.081,-0.0156 -2.14706,1.183491 -2.97426,1.726216 -0.16872,0.110699 -1.8382,2.200286 -2.32326,2.907885 -0.12857,0.187555 -0.13924,0.320206 -0.0258,0.320206 0.0452,0 1.04117,-0.340097 2.21327,-0.755771 z m 35.05298,-3.82e-4 c 0.28601,-0.905391 0.36606,-1.409819 0.40149,-2.529968 0.0277,-0.876527 0.0133,-1.193056 -0.074,-1.623811 -0.15492,-0.764529 -0.68051,-2.068927 -1.01138,-2.510002 -0.0948,-0.126315 -0.0971,-0.126092 -0.30769,0.02915 -0.1167,0.08604 -0.91439,0.760062 -1.77263,1.497832 -1.68089,1.444953 -2.65612,2.252902 -3.31193,2.74383 -0.2277,0.17045 -0.43284,0.337083 -0.45587,0.370296 -0.0703,0.101365 0.0153,0.230639 0.22437,0.338735 0.1094,0.05657 0.34238,0.211161 0.51773,0.343532 0.60562,0.457158 0.96609,0.579626 2.50573,0.851284 0.71233,0.125687 1.5121,0.386291 2.34554,0.764301 0.33771,0.153162 0.65234,0.263768 0.69918,0.245791 0.0469,-0.01798 0.15459,-0.252412 0.23943,-0.520966 z m -28.61493,-2.661761 c 0.37682,-0.407472 1.44839,-2.480101 1.63883,-3.169805 0.10992,-0.398083 0.0185,-0.444844 -1.43649,-0.734974 -0.70763,-0.141099 -1.36103,-0.256544 -1.45202,-0.256544 -0.21516,0 -0.4778,0.282973 -0.4778,0.514802 0,0.107231 0.11802,0.349904 0.29749,0.611688 0.55949,0.816111 0.82768,1.584509 0.8931,2.558864 0.0559,0.832075 0.13923,0.905977 0.53689,0.475969 z m 24.02317,-1.992674 c 1.31416,-1.049169 2.40988,-1.94073 2.43492,-1.981247 0.0305,-0.0494 0.006,-0.062 -0.0739,-0.03826 -0.0657,0.01947 -0.76431,0.197539 -1.55248,0.395707 -1.74732,0.439319 -3.05636,0.833511 -3.18456,0.958971 -0.0748,0.07319 -0.0959,0.269317 -0.0974,0.903039 -10e-4,0.44525 -0.0265,1.003007 -0.0566,1.23946 -0.0468,0.367596 -0.0405,0.429914 0.043,0.429914 0.0537,0 1.17288,-0.858411 2.48704,-1.907579 z m -25.26684,0.961085 c -0.052,-0.249382 -0.18148,-0.632842 -0.28773,-0.852135 -0.20821,-0.429728 -1.31779,-2.005111 -1.48775,-2.112321 -0.17711,-0.111718 -0.203,0.0158 -0.0779,0.38379 0.12068,0.355033 0.42043,0.832522 1.10907,1.766726 0.20296,0.275329 0.46641,0.691615 0.58545,0.92508 0.11905,0.233465 0.22476,0.405987 0.23493,0.383381 0.0102,-0.0226 -0.0241,-0.24514 -0.0761,-0.494521 z m -11.76965,-2.349519 c 0.3344,-0.593408 0.94002,-1.781363 1.03353,-2.027329 0.0412,-0.108378 0.0353,-0.13996 -0.0219,-0.117982 -0.0646,0.02479 -1.38122,2.57101 -1.38122,2.671165 0,0.09897 0.0884,-0.02675 0.36963,-0.525854 z m 35.40877,-0.65812 c 0.59996,-0.199958 0.97135,-0.355954 0.97135,-0.407989 0,-0.134278 -0.55912,-0.468067 -1.01479,-0.605813 -0.63485,-0.191916 -1.65099,-0.39929 -1.75707,-0.358584 -0.13804,0.05297 -0.11892,0.172036 0.13211,0.822777 0.27911,0.723538 0.37436,0.873351 0.55528,0.873351 0.078,0 0.57888,-0.145684 1.11312,-0.323742 z m 8.4869,-2.136955 c 5.05543,-1.138785 6.15588,-1.394973 6.41455,-1.493319 0.25973,-0.09875 0.29194,-0.323453 0.17716,-1.236052 -0.12227,-0.972188 -0.2945,-1.826627 -0.52011,-2.580243 -0.23884,-0.797859 -0.95073,-2.622765 -1.27856,-3.277578 -0.89747,-1.792623 -3.16452,-4.396504 -4.40207,-5.056112 -0.42952,-0.22893 -0.58371,-0.247921 -0.72627,-0.08946 -0.0551,0.0613 -0.3478,0.584366 -0.65035,1.162363 -0.61561,1.176106 -1.30789,2.246023 -1.85411,2.865551 -1.43849,1.631521 -5.2177,6.23598 -5.35551,6.524966 -0.0937,0.196482 -0.0893,0.221036 0.10891,0.613821 0.4552,0.901882 1.38899,2.255743 2.19307,3.179635 0.41654,0.478604 0.57687,0.586101 0.798,0.535067 0.0876,-0.02021 2.38046,-0.537101 5.09529,-1.148644 z m -31.29322,-0.05812 c 0.36791,-0.708013 0.5205,-1.125513 0.57503,-1.573335 0.051,-0.419102 -0.055,-0.391332 -0.36485,0.09554 -0.336,0.52799 -0.64146,1.328444 -0.6838,1.791864 -0.0492,0.537999 0.0729,0.45705 0.47362,-0.314065 z m -4.60529,0.4946 c 0.0169,-0.02739 -0.14386,-0.249509 -0.35731,-0.493606 -0.21344,-0.244097 -0.6217,-0.759522 -0.90725,-1.14539 -0.28554,-0.385867 -0.67478,-0.839352 -0.86498,-1.007745 -0.86404,-0.764967 -2.57524,-1.751063 -4.08226,-2.352448 -1.49586,-0.596927 -2.60216,-0.772058 -3.77275,-0.597238 -0.85334,0.12744 -1.99031,0.506544 -2.92488,0.975244 -0.59082,0.29631 -0.68398,0.36305 -0.60914,0.43639 0.0486,0.04762 0.83353,0.248328 1.74431,0.446018 3.73612,0.810944 3.7811,0.824686 3.97868,1.215268 0.2605,0.514959 0.52064,0.844199 0.83763,1.060141 0.63189,0.430453 1.02522,0.521303 5.72456,1.322253 1.22762,0.209234 1.19369,0.205351 1.23339,0.141113 z m 7.27357,-1.745901 c 0.10786,-0.203567 0.0704,-0.328774 -0.24629,-0.822439 -0.30948,-0.482487 -0.44031,-0.587533 -0.66915,-0.537271 -0.35768,0.07856 -0.46974,0.281835 -0.53571,0.971748 -0.0328,0.342774 -0.0941,0.960476 -0.1363,1.372673 l -0.0767,0.749448 0.78663,-0.781294 c 0.43265,-0.429711 0.82754,-0.858501 0.87754,-0.952865 z m -3.85751,0.869626 c 0.19267,-0.386732 0.61215,-1.074596 0.93219,-1.528586 0.75433,-1.070056 1.15705,-1.869685 1.07378,-2.132058 -0.0454,-0.142873 -0.14145,-0.183436 -1.87858,-0.792863 -1.89065,-0.663285 -3.30294,-1.128508 -4.07103,-1.341044 -1.39584,-0.386235 -3.58755,-0.813182 -4.55911,-0.888118 -0.37915,-0.02924 -0.22932,0.02196 1.00169,0.34232 2.27386,0.591753 4.33928,1.272021 4.40832,1.451931 0.0212,0.05529 0.0285,0.110616 0.0161,0.122953 -0.0123,0.01234 -0.46443,-0.10883 -1.00464,-0.269261 -1.3626,-0.404666 -2.88442,-0.812601 -3.75276,-1.005954 -0.81877,-0.182315 -2.29618,-0.439348 -2.33014,-0.405386 -0.098,0.09803 1.86225,1.009765 3.06241,1.424345 0.73315,0.253256 1.05108,0.460887 1.05108,0.686432 0,0.07758 0.0741,0.289833 0.16475,0.471668 0.31278,0.627672 3.95776,4.011258 4.78155,4.438648 0.19302,0.100143 0.39153,0.153965 0.53113,0.144013 0.21632,-0.01542 0.2333,-0.03672 0.57322,-0.71904 z m 23.62939,0.486729 c 0.41846,-0.154029 0.40848,-0.282785 -0.0699,-0.901212 -0.40243,-0.520219 -0.53788,-0.638588 -0.67448,-0.589429 -0.0744,0.02679 -0.70994,0.779652 -0.92705,1.098269 -0.15411,0.226162 -0.13997,0.314279 0.0633,0.394269 0.48571,0.191161 1.08562,0.190454 1.6082,-0.0019 z m -5.41372,-1.598852 c 0.26752,-0.898272 1.274,-4.972678 1.49464,-6.050576 0.33027,-1.613418 0.48872,-2.147863 1.06315,-3.585702 0.63126,-1.580131 1.91329,-4.423443 3.6189,-8.026075 0.11301,-0.238697 0.18707,-0.452397 0.16457,-0.47489 -0.13499,-0.134987 -1.09933,0.669168 -1.44102,1.201658 -0.11334,0.176608 -0.35594,0.756203 -0.53912,1.287987 -0.83017,2.410009 -1.86423,4.65139 -3.70768,8.036591 -1.79542,3.296998 -3.0099,5.695866 -3.00998,5.945385 -3e-5,0.09793 0.14826,0.303946 0.42986,0.597207 0.66821,0.695867 1.66879,1.587458 1.73534,1.546324 0.033,-0.02042 0.11914,-0.235477 0.19134,-0.477909 z m -10.38238,-0.884727 c 0.0872,-0.02427 0.22302,-0.139855 0.30188,-0.256861 0.20363,-0.302174 1.57767,-4.50526 2.78122,-8.507533 0.55386,-1.841836 0.662,-2.115468 1.90035,-4.808676 0.50737,-1.103448 0.95914,-2.106583 1.00393,-2.229188 0.055,-0.150469 0.0914,-0.768841 0.11214,-1.902644 0.0256,-1.402441 0.0163,-1.675334 -0.0565,-1.653124 -0.0947,0.02891 -1.40822,1.949573 -2.22446,3.252777 -2.10644,3.363124 -3.76961,7.052571 -5.33334,11.831075 -0.4595,1.404145 -1.05412,3.420973 -1.12788,3.825549 -0.0518,0.284347 0.0585,0.389488 0.46918,0.44704 0.3971,0.05565 1.97512,0.0568 2.17348,0.0016 z m -2.89923,-1.885758 c 0.23436,-0.840722 0.72232,-2.417077 1.08436,-3.503009 1.25411,-3.761673 2.52395,-6.679539 3.94985,-9.075979 0.50746,-0.852871 2.46209,-3.811798 3.2286,-4.887488 0.18066,-0.253528 0.31006,-0.479369 0.28756,-0.501871 -0.0225,-0.0225 -2.47099,1.478471 -5.44108,3.335494 -2.97009,1.857022 -5.97339,3.727641 -6.67399,4.156931 -0.7006,0.429289 -1.38846,0.859303 -1.52858,0.955586 -0.3024,0.207789 -0.90612,0.815977 -1.17671,1.18541 -0.34833,0.475555 -0.34785,0.47738 0.5235,1.997664 0.89471,1.561029 1.10501,1.89292 3.39499,5.357849 0.91731,1.387978 1.70747,2.538 1.75591,2.555604 0.0484,0.01761 0.10638,0.0141 0.12877,-0.0078 0.0224,-0.02189 0.23246,-0.72767 0.46682,-1.568392 z m 9.46138,1.494395 c 0.0382,-0.07135 0.19983,-0.594412 0.35921,-1.162362 0.15939,-0.567949 0.32123,-1.0712 0.35966,-1.118335 0.0463,-0.05677 0.14615,-0.07358 0.29586,-0.04979 0.12429,0.01975 0.26082,0.01425 0.30338,-0.01222 0.0934,-0.0581 0.28359,-0.454156 3.1404,-6.539854 2.38587,-5.082513 2.69733,-5.761582 2.65976,-5.79915 -0.0528,-0.05281 -0.4922,0.245146 -3.81579,2.587527 -1.90463,1.342332 -3.68449,2.594063 -3.95525,2.781625 -0.27077,0.187561 -0.53588,0.403245 -0.58915,0.479295 -0.12164,0.173674 -0.12136,0.473856 0.002,1.956972 0.0538,0.648057 0.12214,2.066775 0.15178,3.152708 0.0522,1.911581 0.0601,1.998583 0.25033,2.733482 0.14791,0.571533 0.23914,0.803622 0.36927,0.939444 0.20371,0.212627 0.37226,0.230845 0.46869,0.05066 z m -31.50059,-1.455921 c 0.14807,-0.135989 1.7049,-0.757791 2.31198,-0.92341 0.41841,-0.114149 1.34242,-0.251454 2.40353,-0.357157 1.37895,-0.137364 3.04039,0.180529 4.70967,0.901129 0.31242,0.134863 0.57918,0.234051 0.59281,0.220418 0.0902,-0.09019 -0.88324,-0.520613 -2.53019,-1.118754 -0.63671,-0.231241 -0.78518,-0.324125 -1.96991,-1.23239 -0.49383,-0.378587 -1.07372,-0.77559 -1.28866,-0.882229 -0.52098,-0.258487 -2.54763,-0.696617 -2.81204,-0.607919 -0.20137,0.06755 -0.63297,0.560531 -1.08172,1.235542 -0.47316,0.711732 -0.64913,1.21596 -0.72127,2.066726 -0.0653,0.770719 0.0599,0.997339 0.3858,0.698044 z m 18.63374,-0.853715 c 0,-0.09578 -0.49427,-0.786915 -0.68172,-0.953255 -0.2166,-0.192202 -2.89277,-0.837976 -5.17786,-1.249445 -1.67994,-0.302503 -3.18455,-0.397935 -3.18455,-0.201984 0,0.07024 0.15631,0.110265 1.01905,0.260921 1.36475,0.238319 3.01928,0.694474 6.65572,1.834994 1.33891,0.41993 1.36936,0.426796 1.36936,0.308769 z m -1.42598,-1.918934 c 0.0384,-0.100063 -0.40114,-0.698465 -0.6525,-0.888335 -0.12205,-0.09219 -0.34293,-0.133696 -0.96652,-0.181621 -1.09393,-0.08407 -5.40186,-0.09618 -6.34943,-0.01784 -0.76007,0.06284 -0.75426,0.0634 1.0509,0.102165 1.63806,0.03518 1.92396,0.05808 2.92979,0.234696 1.1987,0.210484 3.30654,0.6655 3.5667,0.769937 0.22961,0.09218 0.38102,0.08535 0.42106,-0.019 z m -9.1003,-0.138558 c -0.0212,-0.02116 -0.0761,-0.02343 -0.12207,-0.005 -0.0508,0.02033 -0.0357,0.03542 0.0385,0.03848 0.0671,0.0028 0.10476,-0.01229 0.0836,-0.03345 z m 23.31696,-6.322546 c 0.65423,-0.450947 2.56524,-1.757536 4.24668,-2.903532 1.68144,-1.145996 3.11022,-2.134958 3.17506,-2.197694 0.0648,-0.06274 0.0935,-0.126888 0.0637,-0.142561 -0.0966,-0.0508 -6.25733,0.568011 -6.45016,0.647883 -0.10277,0.04257 -0.22943,0.124933 -0.28147,0.183036 -0.0521,0.0581 -0.40183,0.865155 -0.7773,1.793452 -0.37548,0.928298 -0.83379,2.060407 -1.01848,2.515798 -0.32347,0.797617 -0.3524,0.92352 -0.21216,0.92352 0.0356,0 0.59992,-0.368956 1.25414,-0.819902 z m -16.44133,-0.329766 c 0.29955,-0.176926 0.89239,-0.496001 1.31742,-0.709054 1.61473,-0.809392 14.04465,-8.060094 14.41861,-8.410751 0.16379,-0.15359 0.1861,-0.378729 0.0509,-0.51391 -0.12004,-0.120038 -0.35866,-0.151192 -2.04127,-0.266496 -1.49508,-0.102454 -2.89377,-0.210873 -5.35005,-0.414708 -0.84072,-0.06977 -2.58904,-0.198548 -3.88515,-0.28618 -1.29612,-0.08763 -3.18774,-0.23015 -4.20361,-0.316708 -1.01588,-0.08656 -2.53491,-0.201704 -3.37563,-0.255881 -0.84072,-0.05418 -2.57471,-0.183554 -3.85331,-0.287504 -4.05933,-0.330024 -4.08827,-0.33186 -4.15641,-0.263719 -0.0428,0.04281 0.14153,0.470703 0.55763,1.294368 1.01901,2.017095 1.13796,2.19489 2.57186,3.8443 0.32846,0.377827 0.83272,1.004724 1.12057,1.393105 0.66954,0.90337 1.35319,1.551882 3.63228,3.445611 2.1384,1.77683 2.50429,2.069211 2.58938,2.069211 0.0342,0 0.30722,-0.144757 0.60676,-0.321684 z M 201.15846,106.358 c -0.58427,-0.23698 -0.90425,-0.32727 -1.33223,-0.3759 -0.67334,-0.0765 -1.16237,-0.234 -1.84765,-0.59501 -0.37781,-0.19904 -0.51479,-0.30548 -0.52989,-0.41174 -0.0124,-0.0873 0.0129,-0.1433 0.0648,-0.1433 0.15203,0 2.87504,0.74946 3.23567,0.89056 0.59594,0.23316 1.40776,0.71617 1.38678,0.82509 -0.0315,0.16343 -0.17596,0.13539 -0.97746,-0.1897 z"
       id="path428" /></g></svg>
