<?xml version="1.0" encoding="UTF-8" standalone="no"?>
<!-- Created with Inkscape (http://www.inkscape.org/) -->

<svg
   width="405.60367"
   height="574.24438"
   viewBox="0 0 107.31597 151.93549"
   version="1.1"
   id="svg5"
   xml:space="preserve"
   xmlns:inkscape="http://www.inkscape.org/namespaces/inkscape"
   xmlns:sodipodi="http://sodipodi.sourceforge.net/DTD/sodipodi-0.dtd"
   xmlns="http://www.w3.org/2000/svg"
   xmlns:svg="http://www.w3.org/2000/svg"><sodipodi:namedview
     id="namedview7"
     pagecolor="#ffffff"
     bordercolor="#000000"
     borderopacity="0.25"
     inkscape:showpageshadow="2"
     inkscape:pageopacity="0.0"
     inkscape:pagecheckerboard="0"
     inkscape:deskcolor="#d1d1d1"
     inkscape:document-units="px"
     showgrid="false"
     showborder="false" /><defs
     id="defs2" /><g
     inkscape:label="Layer 1"
     inkscape:groupmode="layer"
     id="layer1"
     transform="translate(-83.695899,-32.365956)"><path
       style="fill:#ffd42a;fill-opacity:1;stroke-width:0.242732"
       d="m 94.761324,183.93495 c -0.75129,-0.75129 -0.206329,-2.31007 0.687679,-1.96701 0.483844,0.18567 0.662206,-0.42753 0.277419,-0.95376 -0.420421,-0.57496 -1.936838,-0.53858 -2.601941,0.0624 -0.272906,0.24661 -0.758359,0.96536 -1.078787,1.59723 -0.662994,1.3074 -1.557945,1.73817 -2.225098,1.07102 -0.304506,-0.30451 -0.339358,-0.54074 -0.156489,-1.06073 0.258376,-0.73469 1.074795,-1.07556 1.074795,-0.44875 0,0.48362 0.388881,0.49824 0.571823,0.0215 0.08129,-0.21185 -0.05808,-0.4655 -0.338129,-0.61537 -0.545526,-0.29197 -0.64796,-1.20883 -0.135052,-1.20883 0.494462,0 0.194131,-0.92707 -0.40404,-1.2472 -0.271211,-0.14515 -0.909432,-0.19343 -1.438548,-0.10882 -0.679386,0.10864 -1.053882,0.0493 -1.311018,-0.20788 -0.765032,-0.76503 -2.285146,0.66466 -2.285146,2.14922 0,1.192 1.826279,2.10322 2.621509,1.30799 0.348048,-0.34805 0.390328,-1.40785 0.05616,-1.40785 -0.129313,0 -0.177645,0.14976 -0.107406,0.3328 0.131303,0.34217 -0.486606,1.12359 -0.888479,1.12359 -0.40711,0 -1.196324,-0.96078 -1.196324,-1.45639 0,-0.26701 0.230495,-0.71596 0.512211,-0.99768 0.403609,-0.4036 0.699537,-0.48243 1.395711,-0.37179 0.485925,0.0772 1.041459,0.0423 1.234519,-0.0777 0.384062,-0.23863 1.226741,0.0944 1.226741,0.48476 0,0.12881 -0.218459,0.45265 -0.485465,0.71966 -0.267005,0.267 -0.485464,0.76694 -0.485464,1.11096 0,0.96146 -1.220134,2.04456 -2.303243,2.04456 -1.137724,0 -1.728815,-0.32704 -2.184793,-1.2088 -0.886063,-1.71346 -0.169017,-3.86877 1.597961,-4.80317 0.58513,-0.30942 1.065157,-0.73966 1.066727,-0.95608 0.0016,-0.21642 0.155956,-0.44483 0.343079,-0.50757 0.245199,-0.0822 0.302392,0.0306 0.204774,0.40388 -0.08978,0.34334 -0.02293,0.51797 0.198306,0.51797 0.186221,0 0.276159,-0.1501 0.20346,-0.33955 -0.214072,-0.55786 0.3298,-0.68088 1.017652,-0.23018 0.533192,0.34936 0.574841,0.44532 0.243697,0.56147 -0.304945,0.10697 -0.225792,0.20564 0.334685,0.4172 0.806705,0.30449 0.852019,0.26496 0.484161,-0.42239 -0.376909,-0.70426 -1.53413,-1.20022 -2.800482,-1.20022 -1.001531,0 -1.118402,-0.0545 -1.0095,-0.47096 0.09385,-0.35886 -0.05455,-0.53291 -0.623443,-0.73123 -1.128381,-0.39336 -1.627687,-0.96155 -1.627687,-1.85224 0,-0.95857 0.607693,-1.63711 1.34068,-1.49699 0.489234,0.0935 0.533421,0.0108 0.507836,-0.95093 -0.02106,-0.79181 -0.111859,-1.02162 -0.365642,-0.92552 -0.185689,0.0703 -0.5953,-0.041 -0.910246,-0.24736 l -0.572628,-0.3752 v -29.12228 c 0,-25.72465 -0.04248,-29.12228 -0.364099,-29.12228 -0.463179,0 -0.485824,-1.0532 -0.03077,-1.43086 0.451767,-0.37494 1.097852,-0.0891 1.26013,0.55744 0.07684,0.30617 0.340039,0.54503 0.624131,0.56643 0.270189,0.0203 0.646369,0.16574 0.835956,0.32308 0.467734,0.38819 0.436298,1.35322 -0.05016,1.53989 -0.542515,0.20818 -1.037828,-0.25916 -0.886795,-0.83671 0.07189,-0.27492 0.0033,-0.47654 -0.162065,-0.47654 -0.219071,0 -0.27504,6.70229 -0.237317,28.41851 l 0.04937,28.41851 0.547648,0.20822 c 0.301207,0.11452 0.600065,0.35181 0.664129,0.52732 0.09331,0.25563 0.180451,0.25875 0.438102,0.0157 0.91936,-0.86732 2.65185,0.0983 2.65185,1.47799 0,0.92051 -0.366794,1.37412 -1.11112,1.37412 -0.807469,0 -1.204569,-0.61149 -0.871629,-1.34222 0.289904,-0.63627 0.08861,-0.793 -0.396027,-0.30836 -0.454845,0.45484 -0.342585,1.76262 0.211803,2.46741 0.368661,0.46868 0.725375,0.63956 1.335028,0.63956 0.45757,0 0.831945,0.10923 0.831945,0.24274 0,0.1335 -0.109229,0.24273 -0.242732,0.24273 -0.133503,0 -0.242732,0.23539 -0.242732,0.52308 0,0.49138 0.0269,0.49874 0.443894,0.12137 0.244142,-0.22095 0.623715,-0.40172 0.843495,-0.40172 0.314543,0 0.3686,0.155 0.253961,0.7282 -0.149124,0.74562 0.09279,0.93882 0.573544,0.45806 0.421431,-0.42142 0.846013,-0.0306 0.555817,0.51164 -0.133863,0.25013 -0.243388,0.85595 -0.243388,1.34627 0,0.75523 0.06492,0.8642 0.424781,0.71294 0.87272,-0.36684 1.530672,-0.40702 1.88257,-0.11497 0.612229,0.50811 0.426727,1.09327 -0.426176,1.34436 -0.514952,0.1516 -0.813793,0.40647 -0.860628,0.734 -0.06706,0.46896 0.02328,0.49488 1.382128,0.39659 1.174129,-0.0849 1.611831,-0.008 2.274783,0.40218 0.628397,0.38837 0.887747,0.44052 1.105887,0.22238 0.218134,-0.21814 0.284974,-0.14266 0.284974,0.32186 0,0.33376 -0.13043,0.73726 -0.289844,0.89667 -0.22463,0.22463 8.709327,0.30382 39.709917,0.35196 21.99986,0.0342 40.04572,-0.0122 40.10189,-0.10315 0.0562,-0.0909 -0.009,-0.23389 -0.14455,-0.31774 -0.13568,-0.0839 -0.24669,-0.44094 -0.24669,-0.79352 0,-0.49071 0.0668,-0.57422 0.28497,-0.35608 0.21814,0.21814 0.47749,0.16599 1.10587,-0.22238 0.66131,-0.40871 1.10142,-0.48706 2.26372,-0.40298 0.99192,0.0718 1.44281,0.0165 1.44281,-0.17692 0,-0.39628 -0.81183,-1.08472 -1.27913,-1.08472 -0.62188,0 -0.69793,-0.38824 -0.19712,-1.00633 0.42445,-0.52385 0.52941,-0.54641 1.26052,-0.27093 0.63389,0.23886 0.83923,0.23886 1.00089,0 0.20884,-0.30858 0.11467,-1.42734 -0.18364,-2.18168 -0.18371,-0.46452 0.46017,-0.62432 0.73351,-0.18205 0.32903,0.53238 0.66326,0.22147 0.52188,-0.48546 -0.11464,-0.5732 -0.0606,-0.7282 0.25396,-0.7282 0.21978,0 0.59935,0.18077 0.84349,0.40172 0.41699,0.37737 0.4439,0.37001 0.4439,-0.12137 0,-0.28769 -0.13108,-0.52308 -0.29128,-0.52308 -0.58598,0 0.17862,-0.44906 0.89811,-0.52747 0.90694,-0.0988 1.74166,-1.45648 1.49638,-2.43379 -0.25448,-1.01393 -0.76819,-1.00161 -0.76819,0.0184 0,0.73365 -0.0928,0.89277 -0.5595,0.95892 -0.79708,0.113 -1.26099,-0.37362 -1.26099,-1.32269 0,-1.4275 1.23601,-2.18562 2.47888,-1.52045 0.40461,0.21654 0.54871,0.19239 0.7243,-0.12137 0.12056,-0.21542 0.37761,-0.39168 0.57123,-0.39168 0.30221,0 0.35204,-1.50608 0.35204,-10.64014 0,-5.85208 0.0726,-18.68655 0.16128,-28.52105 0.12207,-13.53438 0.0926,-17.88091 -0.12137,-17.88091 -0.15545,0 -0.28264,0.26139 -0.28264,0.58086 0,0.31948 -0.14644,0.63706 -0.32543,0.70574 -0.55179,0.21174 -0.93098,-0.21304 -0.84699,-0.94884 0.0678,-0.59422 0.20111,-0.71352 0.869,-0.77792 0.58676,-0.0566 0.78888,-0.19431 0.78888,-0.53761 0,-0.63146 0.88435,-1.09538 1.35055,-0.70848 0.4669,0.3875 0.45555,1.44352 -0.0155,1.44352 -0.32162,0 -0.3641,3.38477 -0.3641,29.00651 0,28.924 -0.001,29.00793 -0.49788,29.50439 -0.29852,0.29852 -0.67189,0.44266 -0.93243,0.35997 -0.37116,-0.11781 -0.43689,0.0178 -0.45068,0.92994 -0.0142,0.94112 0.0398,1.05324 0.45494,0.94467 0.63804,-0.16686 1.42605,0.59439 1.42605,1.3776 0,0.89922 -0.61843,1.67279 -1.52796,1.91126 -0.61396,0.16098 -0.76199,0.31539 -0.70206,0.73232 0.0701,0.48765 -0.0266,0.52833 -1.25572,0.52833 -1.0785,0 -1.47364,0.11947 -2.07848,0.62841 -0.94921,0.79871 -1.03168,1.43284 -0.1331,1.02342 0.36604,-0.16679 0.50713,-0.3455 0.34961,-0.44286 -0.40911,-0.25284 0.74978,-0.88363 1.58536,-0.86292 0.53779,0.0133 0.72864,0.13472 0.72991,0.46424 9.8e-4,0.26637 0.29934,0.57132 0.74024,0.75671 0.99481,0.41828 1.99425,1.65421 2.19258,2.71138 0.20816,1.1096 -0.24902,2.63749 -0.93243,3.11618 -0.68681,0.48106 -2.10806,0.47803 -2.79905,-0.006 -0.63398,-0.44406 -1.26629,-1.57612 -1.26629,-2.26711 0,-0.267 -0.18072,-0.58659 -0.40159,-0.71021 -0.23137,-0.12948 -0.34047,-0.38405 -0.25738,-0.60059 0.10798,-0.28138 0.49873,-0.37334 1.55458,-0.36588 1.88586,0.0133 2.1374,0.0983 2.47331,0.83556 0.34624,0.7599 0.163,1.45658 -0.47257,1.79673 -0.65667,0.35144 -1.52772,-0.13241 -1.36419,-0.75778 0.0668,-0.25557 0.0225,-0.46468 -0.0985,-0.46468 -0.32253,0 -0.26845,1.06812 0.0713,1.40785 0.47888,0.47888 1.38942,0.33178 2.05284,-0.33165 0.50071,-0.5007 0.59322,-0.77141 0.47155,-1.37978 -0.16246,-0.8123 -0.70393,-1.53028 -1.45871,-1.93423 -0.36157,-0.19351 -0.53704,-0.15788 -0.76624,0.15558 -0.23989,0.32806 -0.53018,0.37565 -1.50366,0.24652 -1.08321,-0.14369 -1.24688,-0.1022 -1.60311,0.40638 -0.49254,0.70321 -0.50086,0.94387 -0.0326,0.94387 0.5148,0 0.45152,0.48247 -0.1468,1.11936 -0.28099,0.2991 -0.43839,0.66114 -0.34977,0.80452 0.236,0.38187 0.61793,0.31796 0.61793,-0.10339 0,-0.60155 0.72267,-0.41024 0.97697,0.25862 0.31389,0.82558 -0.0857,1.56187 -0.84761,1.56187 -0.60459,0 -1.36713,-0.84977 -1.8116,-2.01883 -0.46592,-1.22545 -2.29296,-1.89763 -3.18799,-1.17288 -0.61376,0.49699 -0.51272,1.3442 0.13086,1.09724 0.91859,-0.3525 1.48369,1.18902 0.71695,1.95577 -0.53012,0.53011 -1.70801,0.47657 -2.28862,-0.10403 -0.48152,-0.48153 -0.8091,-0.48547 -40.3773,-0.48547 -39.583573,0 -39.895237,0.004 -40.331188,0.48547 -0.525475,0.58064 -1.637271,0.63401 -2.167252,0.10403 z m 91.856836,-6.76484 c 0,-0.0589 -0.10923,-0.17455 -0.24273,-0.25706 -0.13351,-0.0825 -0.24274,-0.0344 -0.24274,0.10704 0,0.14138 0.10923,0.25706 0.24274,0.25706 0.1335,0 0.24273,-0.0482 0.24273,-0.10704 z m -99.470848,-4.01235 -0.413492,-0.72112 -0.485465,0.48638 c -0.419477,0.42028 -0.435974,0.51779 -0.121366,0.71741 0.200254,0.12707 0.604784,0.2327 0.898956,0.23475 0.524169,0.004 0.526595,-0.0107 0.121367,-0.71742 z m 101.335198,0.53144 c 0.2111,-0.13425 0.17777,-0.32651 -0.12651,-0.72991 l -0.41309,-0.54765 -0.43337,0.73363 c -0.43102,0.72966 -0.43034,0.7336 0.12651,0.72991 0.30793,-0.002 0.68883,-0.0857 0.84646,-0.18598 z m -103.966869,3.46658 c -0.192291,-0.5011 0.06843,-1.0923 0.481713,-1.0923 0.496851,0 0.919578,0.60334 0.743755,1.06153 -0.190291,0.49589 -1.038809,0.51719 -1.225468,0.0308 z m 104.407129,0.11919 c -0.26112,-0.42251 0.13494,-1.21149 0.60818,-1.21149 0.47323,0 0.8693,0.78898 0.60817,1.21149 -0.0832,0.1347 -0.35693,0.24491 -0.60817,0.24491 -0.25125,0 -0.52493,-0.11021 -0.60818,-0.24491 z M 86.126989,176.79168 c 0,-0.55193 0.608744,-0.6614 0.806869,-0.1451 0.152332,0.39698 -0.02668,0.63057 -0.483226,0.63057 -0.178004,0 -0.323643,-0.21846 -0.323643,-0.48547 z m 101.583461,0.24273 c -0.20317,-0.32874 0.071,-0.72819 0.49979,-0.72819 0.19238,0 0.34978,0.21846 0.34978,0.48546 0,0.50253 -0.5856,0.66984 -0.84957,0.24273 z M 85.548332,108.94149 c -0.59236,-0.59236 -0.399898,-1.21034 0.425094,-1.36494 0.615262,-0.11531 1.085684,0.6298 0.74181,1.17495 -0.368607,0.58436 -0.715976,0.64092 -1.166904,0.18999 z m 102.586898,0.20985 c -0.16687,-0.0673 -0.30341,-0.42828 -0.30341,-0.80209 0,-0.80482 0.7765,-1.13876 1.3393,-0.57597 0.42805,0.42805 0.43183,0.46527 0.10855,1.06931 -0.24843,0.46419 -0.55454,0.54678 -1.14444,0.30875 z M 83.861487,107.69388 c -0.303319,-0.30332 -0.162926,-1.30938 0.202277,-1.44953 0.320849,-0.12312 0.364099,-3.60527 0.364099,-29.31444 0,-22.367813 0.06796,-29.242689 0.291278,-29.466007 0.160204,-0.160204 0.569815,-0.291627 0.910247,-0.292053 0.566913,-7.03e-4 0.619397,-0.08884 0.624077,-1.048011 0.0048,-0.978826 -0.03338,-1.039881 -0.584092,-0.934606 -1.244041,0.237814 -1.699027,-1.707608 -0.645713,-2.760923 0.327689,-0.327689 0.875918,-0.595797 1.218286,-0.595797 0.542781,0 0.602987,-0.0777 0.470184,-0.606831 -0.14886,-0.593105 -0.121599,-0.606831 1.205207,-0.606831 1.15687,0 1.474652,-0.104664 2.150055,-0.708136 0.891205,-0.796292 0.819058,-1.098193 -0.201246,-0.842113 -0.571818,0.143517 -0.612475,0.198753 -0.241961,0.328722 0.399863,0.140265 0.379665,0.199256 -0.197753,0.577595 -0.727285,0.476536 -1.309683,0.3216 -0.854186,-0.227241 0.228802,-0.27569 0.188191,-0.342489 -0.208221,-0.342489 -0.383256,0 -0.462424,0.11486 -0.357011,0.517962 0.09797,0.374628 0.0413,0.484947 -0.204774,0.398657 -0.187123,-0.06562 -0.327485,-0.284108 -0.311916,-0.485532 0.01598,-0.206708 -0.382483,-0.547469 -0.914791,-0.782322 -1.266913,-0.558961 -2.14767,-1.886362 -2.14767,-3.236784 0,-1.940035 0.935372,-2.965753 2.704529,-2.965753 0.927909,0 2.150117,1.162201 2.150117,2.044553 0,0.344026 0.218459,0.843961 0.485464,1.110967 0.267006,0.267006 0.485465,0.58132 0.485465,0.698476 0,0.425839 -0.720813,0.812777 -1.149887,0.617268 -0.23533,-0.107229 -0.916413,-0.201371 -1.513518,-0.209205 -0.9481,-0.01244 -1.128277,-0.102299 -1.422139,-0.709265 -0.446513,-0.922261 -0.05774,-1.853668 0.773733,-1.853668 0.650854,0 1.25296,0.571104 1.012426,0.960296 -0.08612,0.139351 -0.03366,0.253366 0.116592,0.253366 0.154492,0 0.23981,-0.288073 0.196374,-0.663047 -0.113097,-0.976338 -1.181679,-1.302063 -2.079836,-0.633975 -0.366863,0.27289 -0.703288,0.741342 -0.74761,1.041005 -0.127283,0.860563 0.446685,1.943711 1.250159,2.359204 0.673064,0.348055 0.762035,0.34706 1.024186,-0.01145 0.224876,-0.307537 0.530415,-0.359268 1.409921,-0.238719 0.749644,0.10275 1.244969,0.05254 1.490314,-0.151081 0.411015,-0.341113 0.500783,-1.216471 0.124749,-1.216471 -0.404083,0 -0.272582,-0.625941 0.226363,-1.077481 0.258002,-0.233489 0.41016,-0.578107 0.338129,-0.765817 -0.194679,-0.507327 -0.564492,-0.412876 -0.564492,0.144172 0,0.604483 -0.289117,0.619285 -0.811942,0.04157 -0.596912,-0.65958 -0.50521,-1.461218 0.204126,-1.784413 0.725112,-0.330383 1.36813,0.136912 2.06421,1.500111 0.873849,1.711338 2.334135,2.366874 3.382122,1.518265 0.450401,-0.364713 0.520368,-0.556895 0.327936,-0.900753 -0.164598,-0.29412 -0.300138,-0.347301 -0.414313,-0.162562 -0.313493,0.507242 -1.111154,-0.161535 -1.111154,-0.931617 0,-0.836246 0.55733,-1.465192 1.298356,-1.465192 0.656879,0 1.67434,0.677623 1.4828,0.987538 -0.0861,0.13933 15.347157,0.226124 40.208587,0.226124 22.19159,0 40.27529,-0.07306 40.18599,-0.162351 -0.29698,-0.296986 0.63226,-1.051311 1.2951,-1.051311 1.25406,0 1.90809,1.45784 1.01617,2.265023 -0.33256,0.30096 -0.50872,0.329918 -0.72024,0.118397 -0.21153,-0.211521 -0.32154,-0.171779 -0.44981,0.162488 -0.1183,0.308272 0.005,0.584356 0.40775,0.910171 1.02793,0.832362 2.61666,0.157771 3.28032,-1.392854 0.38799,-0.906519 1.22976,-1.820493 1.67668,-1.820493 0.43917,0 1.10017,0.666688 1.10017,1.109634 0,0.190718 -0.24576,0.592527 -0.54614,0.892908 l -0.54615,0.546148 -0.0776,-0.546148 c -0.0825,-0.580976 -0.39561,-0.716037 -0.66173,-0.285446 -0.0886,0.143385 0.0688,0.505421 0.34977,0.804524 0.59832,0.636887 0.6616,1.119365 0.1468,1.119365 -0.46868,0 -0.45989,0.240696 0.0346,0.946635 0.35614,0.508452 0.52865,0.553796 1.61668,0.424936 0.94001,-0.111331 1.28062,-0.05862 1.49237,0.230966 0.72871,0.996577 2.62559,-1.236703 2.16436,-2.548204 -0.11936,-0.339391 -0.50578,-0.779158 -0.85872,-0.977258 -0.88159,-0.494819 -1.90057,-0.05227 -1.90057,0.825426 0,0.336619 0.1058,0.612035 0.23511,0.612035 0.12931,0 0.16801,-0.174869 0.086,-0.388597 -0.31839,-0.829701 1.4281,-1.153112 1.86081,-0.344581 0.33438,0.6248 0.0691,1.65148 -0.50632,1.959429 -0.24923,0.133385 -0.86474,0.229584 -1.36779,0.213777 -0.50306,-0.01581 -1.11799,0.0087 -1.36652,0.0545 -0.65653,0.120935 -1.10777,-0.660212 -0.61418,-1.063213 0.20879,-0.17047 0.50939,-0.768311 0.668,-1.328535 0.50538,-1.785086 2.06413,-2.484448 3.67767,-1.650052 0.85709,0.443216 1.35097,1.846085 1.10726,3.145175 -0.19255,1.026376 -1.57972,2.682855 -2.42417,2.894798 -0.34505,0.0866 -0.56082,0.309391 -0.54037,0.55794 0.0493,0.59856 -1.40102,0.63719 -2.09756,0.05587 -0.51987,-0.433874 -0.52169,-0.45037 -0.053,-0.478311 0.34871,-0.02079 0.28377,-0.08918 -0.23053,-0.242782 -0.98549,-0.294329 -1.07493,-0.09 -0.29989,0.685046 0.51549,0.515497 0.95831,0.684284 2.05035,0.781524 1.24296,0.11068 1.38718,0.179707 1.34013,0.641425 -0.0404,0.396151 0.11427,0.550797 0.65993,0.659928 1.409,0.2818 2.09612,1.63172 1.44748,2.843715 -0.15751,0.2943 -0.50748,0.469507 -0.93783,0.469507 -0.63916,0 -0.68656,0.06703 -0.68656,0.970929 0,0.903903 0.0474,0.97093 0.68656,0.97093 0.43035,0 0.78032,0.175207 0.93783,0.469507 0.16919,0.316134 0.25127,9.950241 0.25127,29.491977 0,25.635927 0.0425,29.022467 0.3641,29.022467 0.59231,0 0.47554,1.38831 -0.13301,1.58146 -0.53263,0.16905 -1.20202,-0.23553 -1.20202,-0.7265 0,-0.1646 -0.34269,-0.39755 -0.76153,-0.51767 -0.91932,-0.26366 -1.33304,-1.12083 -0.79881,-1.65505 0.48811,-0.48811 1.07488,-0.21835 1.07488,0.49417 0,0.31947 0.11686,0.58086 0.2597,0.58086 0.18397,0 0.20833,-8.289189 0.0835,-28.426481 l -0.17617,-28.426484 -0.59879,-0.598786 c -0.42782,-0.427825 -0.67344,-0.524128 -0.86027,-0.337298 -0.42329,0.423289 -1.58223,0.300049 -2.10625,-0.223975 -0.57792,-0.577916 -0.65035,-1.98831 -0.12452,-2.424708 0.21347,-0.177163 0.6205,-0.234414 0.9962,-0.140118 0.55917,0.140341 0.62354,0.259889 0.53736,0.998034 -0.10382,0.889317 0.0117,1.019882 0.48427,0.547316 0.43871,-0.438706 0.3512,-1.374959 -0.21398,-2.289443 -0.41424,-0.670248 -0.65475,-0.817531 -1.33503,-0.817531 -0.8011,0 -1.08839,-0.296976 -0.58704,-0.606831 0.13351,-0.08251 0.24274,-0.324344 0.24274,-0.53741 0,-0.346105 -0.0453,-0.348511 -0.42479,-0.02257 -0.23363,0.200653 -0.62057,0.434394 -0.85987,0.519424 -0.38178,0.135657 -0.41565,0.05095 -0.2764,-0.691302 0.17311,-0.922749 0.0931,-0.994401 -0.61579,-0.551675 -0.64358,0.40192 -0.78853,0.17181 -0.46906,-0.744615 0.14798,-0.424513 0.2004,-1.045394 0.11649,-1.379736 -0.12805,-0.510174 -0.22709,-0.568014 -0.61611,-0.359814 -0.67291,0.360132 -1.37518,0.304615 -1.82398,-0.144193 -0.53249,-0.53249 -0.36304,-0.882407 0.54073,-1.116597 0.44142,-0.114383 0.8232,-0.404905 0.9159,-0.696958 0.21543,-0.67875 0.13866,-0.71072 -0.9858,-0.410584 -0.82939,0.221379 -1.14696,0.184029 -2.12908,-0.250407 -0.63485,-0.280827 -1.30379,-0.453222 -1.48652,-0.3831 -0.51453,0.19744 -0.63392,-0.237661 -0.26196,-0.954618 l 0.33728,-0.650111 H 137.2805 c -31.17721,0 -40.020247,0.06473 -39.793697,0.291279 0.432864,0.432864 0.380314,1.493952 -0.0655,1.322871 -0.19624,-0.0753 -0.871421,0.09072 -1.500402,0.368953 -0.964102,0.426468 -1.31016,0.467756 -2.204746,0.263046 -1.005849,-0.230171 -1.057312,-0.215967 -0.987606,0.27259 0.04909,0.344071 0.339096,0.593552 0.872356,0.750457 0.59148,0.174035 0.780488,0.356609 0.728197,0.703407 -0.11166,0.740538 -0.785831,1.039189 -1.628144,0.721251 -0.39617,-0.149538 -0.781252,-0.210943 -0.855737,-0.136457 -0.229915,0.229914 -0.149574,1.516398 0.126969,2.033123 0.352946,0.659485 0.116625,0.831473 -0.657709,0.478662 -0.626922,-0.285645 -0.637059,-0.276465 -0.492559,0.446035 0.123015,0.615075 0.07074,0.737682 -0.314522,0.737682 -0.254132,0 -0.633705,-0.171646 -0.843495,-0.381436 -0.34676,-0.346761 -0.381436,-0.335727 -0.381436,0.121366 0,0.276541 0.109229,0.502803 0.242732,0.502803 0.133503,0 0.242732,0.109229 0.242732,0.242732 0,0.133503 -0.383909,0.242732 -0.85313,0.242732 -0.702021,0 -0.938326,0.13973 -1.334121,0.78888 -0.542991,0.89057 -0.625112,1.884507 -0.191525,2.318094 0.458178,0.458179 0.72305,0.340458 0.436918,-0.194186 -0.184596,-0.34492 -0.184596,-0.626009 0,-0.970929 0.545108,-1.018544 1.941858,-0.307697 1.941858,0.988267 0,1.328131 -1.442169,2.096201 -2.686012,1.430516 -0.365067,-0.195378 -0.469508,-0.172019 -0.469508,0.105009 0,0.195955 -0.201559,0.420254 -0.447908,0.498442 -0.397446,0.126145 -0.465714,0.531357 -0.605943,3.596659 -0.273997,5.989357 -0.190893,53.578713 0.09356,53.578713 0.139355,0 0.235643,-0.13653 0.213972,-0.30341 -0.09455,-0.72812 0.04369,-0.94038 0.564267,-0.86645 0.801429,0.11382 0.853139,1.03704 0.08623,1.53954 -0.336066,0.2202 -0.725062,0.32989 -0.864435,0.24375 -0.141343,-0.0874 -0.253407,0.0429 -0.253407,0.29463 0,0.79038 -1.032984,1.3763 -1.537305,0.87198 z M 188.50925,43.106857 c -0.13828,-0.166878 -0.50934,-0.303415 -0.82459,-0.303415 -0.56805,0 -0.56963,0.0075 -0.17665,0.831545 l 0.39654,0.831545 0.42805,-0.528129 c 0.30485,-0.376125 0.35569,-0.615459 0.17665,-0.831546 z M 87.083272,42.845492 c -0.273647,-0.04362 -0.658127,0.05396 -0.854401,0.216853 -0.31211,0.259028 -0.305275,0.353172 0.0545,0.750721 0.399167,0.441075 0.4245,0.434645 0.854401,-0.216853 0.43435,-0.65824 0.433281,-0.67296 -0.0545,-0.750721 z m 99.413518,-3.19757 c 0.0825,-0.133503 -0.0267,-0.242733 -0.24273,-0.242733 -0.21601,0 -0.32524,0.10923 -0.24273,0.242733 0.0825,0.133503 0.19174,0.242732 0.24273,0.242732 0.051,0 0.16022,-0.109229 0.24273,-0.242732 z m -70.75147,15.518006 c -1.65026,-0.689426 -1.96686,-2.110378 -0.74291,-3.334322 l 0.71847,-0.718472 -0.74882,-0.149763 c -1.46741,-0.293483 -4.65967,-0.14206 -7.56063,0.358634 -2.93974,0.50739 -4.27437,0.496297 -4.92166,-0.04091 -0.46933,-0.389507 -0.42067,-1.201273 0.11365,-1.896172 l 0.4453,-0.57912 0.72094,0.533013 c 0.93021,0.687735 3.44012,1.114092 5.22966,0.888358 1.18273,-0.14919 1.43789,-0.272643 1.70745,-0.826098 0.28954,-0.594493 0.43271,-0.648528 1.65754,-0.625608 0.77238,0.01445 2.31216,0.340737 3.63267,0.769768 1.26062,0.409575 3.16587,0.984015 4.23389,1.276535 1.06803,0.29252 2.4334,0.678094 3.03416,0.856832 4.88626,1.453754 9.32798,1.427995 10.97624,-0.06366 0.57958,-0.524514 0.75759,-0.299208 0.29049,0.367671 -0.94656,1.351409 -1.7325,1.45258 -8.83941,1.137858 -4.16734,-0.184545 -5.58284,-0.471876 -5.58284,-1.13325 0,-0.38643 -2.3388,-0.07379 -3.07973,0.411683 -0.38827,0.254404 -0.56508,0.569323 -0.51545,0.918047 0.0621,0.436301 0.25923,0.544096 1.10717,0.605447 1.07136,0.07751 1.33665,0.462327 0.68917,0.999681 -0.49096,0.40746 -1.8618,0.537763 -2.56535,0.243844 z m 40.82804,-0.360999 c -0.86474,-0.605692 -0.67442,-1.040856 0.49214,-1.125259 0.84794,-0.06135 1.04506,-0.169145 1.10717,-0.605447 0.0488,-0.343109 -0.12283,-0.65985 -0.48547,-0.895735 -0.72605,-0.472274 -3.10971,-0.802994 -3.10971,-0.431455 0,0.645288 -1.4345,1.008434 -3.9835,1.008434 -1.40318,0 -3.63232,0.117611 -4.95365,0.261355 -2.83786,0.308726 -4.1269,0.06221 -5.17968,-0.990564 -0.82212,-0.822129 -0.95174,-1.543319 -0.14038,-0.781082 0.94427,0.887094 2.22078,1.267559 4.25281,1.267559 2.92794,0 5.09631,-0.470048 12.91719,-2.800119 4.31395,-1.285251 4.90418,-1.407336 5.82558,-1.204964 0.55556,0.122021 0.72819,0.29432 0.72819,0.726773 0,0.527348 0.12421,0.578473 1.78296,0.733911 2.10677,0.19742 4.21249,-0.171641 5.13942,-0.900762 0.57144,-0.449496 0.68051,-0.464401 1.00726,-0.137651 0.20153,0.201536 0.38402,0.728963 0.40553,1.17206 0.0736,1.51591 -1.38644,1.709045 -6.11125,0.808414 -1.9526,-0.372201 -5.19204,-0.425616 -6.71446,-0.110714 -0.53401,0.110457 -0.84929,0.213391 -0.70062,0.228744 0.14868,0.01535 0.55829,0.315883 0.91025,0.667845 0.74717,0.747169 0.86168,2.016434 0.23816,2.639946 -0.88139,0.881392 -2.51906,1.105315 -3.42794,0.468711 z m -46.5199,-1.702702 c -0.58528,-0.585274 -0.45577,-0.948313 0.35866,-1.005398 0.40652,-0.02849 1.37748,-0.28456 2.15768,-0.569035 2.16435,-0.789163 2.41304,-0.540182 0.80195,0.802892 -1.49122,1.243143 -2.59099,1.498852 -3.31829,0.771541 z m 52.61905,-0.01362 c -0.40615,-0.196703 -1.15971,-0.789048 -1.67458,-1.316318 -1.08133,-1.107389 -0.83108,-1.214068 1.15584,-0.492722 0.7059,0.256274 1.64453,0.539362 2.08585,0.629085 1.0042,0.204163 0.96157,0.807167 -0.0873,1.23513 -0.61148,0.249495 -0.87066,0.239832 -1.47978,-0.05517 z m -36.1306,-1.551417 c -1.06802,-0.247033 -4.12645,-1.089255 -6.7965,-1.871604 -4.238,-1.241771 -4.86424,-1.488472 -4.93018,-1.9422 -0.061,-0.419568 0.10278,-0.56926 0.84956,-0.776634 1.81649,-0.504417 3.60433,-0.143665 4.4898,0.905959 0.86882,1.029884 2.50142,2.043729 2.00962,1.247973 -0.0872,-0.141091 -0.0887,-0.534769 -0.003,-0.874839 0.13566,-0.540543 0.26066,-0.605998 0.99378,-0.52041 0.93983,0.10972 0.93977,0.109783 0.57522,-0.57138 -0.39496,-0.737997 -0.0615,-1.617575 0.81603,-2.152647 0.8326,-0.507655 1.77651,-0.610374 2.33868,-0.254501 0.27586,0.174622 0.21354,0.327967 -0.31966,0.786604 -1.49185,1.28324 -0.62777,4.094743 1.68846,5.493797 1.85673,1.121507 1.4247,1.25527 -1.71145,0.529882 z m 9.10246,-0.996721 c 0,-1.85937 -0.7261,-3.206026 -2.08278,-3.862784 -0.59548,-0.288263 -1.24677,-0.461151 -1.44731,-0.384194 -0.59338,0.227699 -0.68733,0.861749 -0.20643,1.393136 0.44443,0.491081 0.44061,0.495142 -0.39096,0.415741 -0.67092,-0.06406 -0.88834,-0.219143 -1.08135,-0.771304 -0.20064,-0.573959 -0.16266,-0.748842 0.22406,-1.031613 0.45654,-0.333834 0.45614,-0.340492 -0.0204,-0.340492 -0.69325,0 -1.54856,0.88306 -1.54856,1.598806 0,0.858344 1.09011,1.799447 2.08435,1.799447 0.43988,0 0.8673,-0.10923 0.94981,-0.242733 0.26002,-0.420722 0.61032,-0.265146 0.8556,0.379992 0.54275,1.427529 -0.8176,2.09707 -2.98221,1.4678 -3.74089,-1.087506 -4.01203,-5.283641 -0.37664,-5.828801 3.22265,-0.483267 7.12986,2.807271 6.61189,5.568332 -0.24963,1.33061 -0.58903,1.237649 -0.58903,-0.161333 z m 9.71816,1.083352 c 0.005,-0.111861 0.50976,-0.521023 1.12196,-0.909248 0.61221,-0.388226 1.43457,-1.207447 1.82747,-1.820493 0.59153,-0.92296 0.69003,-1.281587 0.57283,-2.085558 -0.0876,-0.600665 -0.37129,-1.174763 -0.74403,-1.505434 -0.33138,-0.293978 -0.6025,-0.589409 -0.6025,-0.656515 0,-0.06711 0.36903,-0.191241 0.82007,-0.275857 1.71133,-0.321047 3.23391,1.162493 2.56425,2.498489 -0.55428,1.105796 -0.56592,1.165717 -0.16159,0.832024 0.21389,-0.176525 0.69588,-0.285754 1.07109,-0.242732 0.61892,0.07097 0.6796,0.162875 0.65428,0.990991 -0.0323,1.055663 0.009,1.039139 1.903,-0.762511 1.14495,-1.089101 1.14997,-1.090972 2.96543,-1.106067 1.56681,-0.01303 1.89338,0.05955 2.35924,0.524285 0.29739,0.296673 0.4773,0.602804 0.39982,0.68029 -0.0775,0.07749 -1.92832,0.67188 -4.11297,1.320873 -7.18283,2.133806 -10.65746,2.956044 -10.63835,2.517463 z m -6.66119,-0.302162 c -0.34157,-0.530426 -0.23042,-2.311487 0.19259,-3.086153 1.67294,-3.063628 5.89114,-4.399314 7.98502,-2.528437 0.60342,0.539154 0.73642,0.851166 0.75642,1.774472 0.0209,0.967049 -0.0915,1.239705 -0.82177,1.993277 -1.50151,1.549359 -4.61915,2.027243 -5.08097,0.778831 -0.34962,-0.945115 0.21652,-1.970721 0.77795,-1.409299 0.85036,0.850368 3.08582,-0.264362 3.08582,-1.538773 0,-0.767955 -0.79005,-1.591795 -1.51708,-1.581969 -0.48774,0.0066 -0.50072,0.03384 -0.12136,0.254794 0.48761,0.284008 0.56273,1.201901 0.1335,1.631137 -0.1602,0.160203 -0.61405,0.291279 -1.00855,0.291279 -0.70869,0 -0.71186,-0.006 -0.26507,-0.499673 1.00841,-1.114291 -0.72255,-1.761124 -2.05356,-0.767381 -1.14838,0.857389 -1.55387,1.663305 -1.70148,3.381746 -0.0957,1.114234 -0.21274,1.537096 -0.36146,1.306149 z m -2.18537,-4.209721 c -0.19429,-0.300382 -0.42711,-0.846529 -0.51737,-1.213662 -0.10698,-0.435099 -0.32399,-0.667514 -0.62327,-0.667514 -0.62679,0 -0.57632,-0.291478 0.1713,-0.989301 0.34675,-0.323652 0.85183,-1.02027 1.1224,-1.548039 l 0.49194,-0.95958 0.47289,0.95958 c 0.2601,0.527769 0.80484,1.250746 1.21055,1.606614 0.77553,0.680266 0.73442,1.306824 -0.0719,1.095963 -0.36491,-0.09543 -0.45807,0.0127 -0.45807,0.531675 0,0.769037 -0.61139,1.730411 -1.10046,1.730411 -0.18961,0 -0.50371,-0.245766 -0.698,-0.546147 z m -5.84707,-2.977825 c -1.21793,-0.658399 -1.5783,-1.113628 -1.5783,-1.993797 0,-1.2619 1.09434,-2.249665 2.4924,-2.249665 1.25364,0 1.87678,0.525255 1.87678,1.58196 v 0.694171 l -0.49492,-0.531235 c -0.2722,-0.292179 -0.76374,-0.531234 -1.09229,-0.531234 -0.74149,0 -1.60933,0.824303 -1.41127,1.340461 0.12437,0.324101 0.1976,0.306916 0.49373,-0.11586 0.37218,-0.531367 1.15958,-0.662847 1.42244,-0.237522 0.088,0.142386 -0.0315,0.398889 -0.26549,0.570008 -0.6564,0.479973 -0.19602,0.870236 1.02659,0.870236 0.96843,0 1.22844,-0.121918 2.0834,-0.976879 0.53729,-0.537283 1.0168,-0.936965 1.06558,-0.888183 0.16418,0.164182 -1.00129,1.694626 -1.66472,2.186037 -0.88778,0.657588 -2.98236,0.806713 -3.95393,0.281502 z m 9.58751,0.09575 c -0.80642,-0.321564 -1.65938,-1.138834 -2.12207,-2.033259 -0.3531,-0.6826 -0.3064,-0.663602 0.74584,0.303416 0.97051,0.891907 1.26925,1.031612 2.20592,1.031612 1.3001,0 1.63746,-0.391519 0.8495,-0.985876 l -0.5751,-0.433799 0.70251,-0.176318 c 0.55681,-0.139752 0.78959,-0.06878 1.1224,0.342224 0.34607,0.427383 0.44459,0.454185 0.56037,0.152453 0.19262,-0.501966 -0.68785,-1.326007 -1.41681,-1.326007 -0.32856,0 -0.82009,0.239055 -1.0923,0.531234 l -0.49492,0.531235 v -0.736347 c 0,-1.007218 0.66372,-1.539784 1.91896,-1.539784 1.9092,0 3.07516,1.912551 2.0544,3.369884 -0.75726,1.081142 -2.97123,1.562465 -4.4587,0.969332 z m -55.740769,-3.97511 c -0.213022,-0.555127 0.08541,-1.092296 0.606831,-1.092296 0.256912,0 0.529986,0.163844 0.606831,0.364099 0.213022,0.555127 -0.0854,1.092295 -0.606831,1.092295 -0.256912,0 -0.529986,-0.163844 -0.606831,-0.364098 z m 104.381419,0.01702 c -0.24168,-0.629811 0.0971,-1.150354 0.69348,-1.065662 0.40117,0.05697 0.54724,0.239676 0.54724,0.684538 0,0.444862 -0.14607,0.627572 -0.54724,0.684539 -0.32824,0.04661 -0.60576,-0.07481 -0.69348,-0.303415 z M 86.126989,39.890654 c 0,-0.269702 0.161821,-0.485465 0.364098,-0.485465 0.202277,0 0.364099,0.215763 0.364099,0.485465 0,0.269703 -0.161822,0.485465 -0.364099,0.485465 -0.202277,0 -0.364098,-0.215762 -0.364098,-0.485465 z m 101.583461,0.242732 c -0.20317,-0.328747 0.071,-0.728197 0.49979,-0.728197 0.19238,0 0.34978,0.21846 0.34978,0.485465 0,0.50253 -0.5856,0.669843 -0.84957,0.242732 z"
       id="path2771"
       inkscape:export-filename="path2771.svg"
       inkscape:export-xdpi="134.13063"
       inkscape:export-ydpi="134.13063" /></g></svg>
