<?xml version="1.0" encoding="UTF-8" standalone="no"?>
<!-- Created with Inkscape (http://www.inkscape.org/) -->

<svg
   width="360.83963"
   height="455.6604"
   viewBox="0 0 95.472152 120.56014"
   version="1.1"
   id="svg5"
   xml:space="preserve"
   inkscape:version="1.2 (dc2aeda, 2022-05-15)"
   sodipodi:docname="drawing.svg"
   xmlns:inkscape="http://www.inkscape.org/namespaces/inkscape"
   xmlns:sodipodi="http://sodipodi.sourceforge.net/DTD/sodipodi-0.dtd"
   xmlns="http://www.w3.org/2000/svg"
   xmlns:svg="http://www.w3.org/2000/svg"><sodipodi:namedview
     id="namedview7"
     pagecolor="#ffffff"
     bordercolor="#000000"
     borderopacity="0.25"
     inkscape:showpageshadow="2"
     inkscape:pageopacity="0.0"
     inkscape:pagecheckerboard="0"
     inkscape:deskcolor="#d1d1d1"
     inkscape:document-units="px"
     showgrid="false"
     showborder="false"
     inkscape:zoom="2"
     inkscape:cx="1026.75"
     inkscape:cy="425.5"
     inkscape:window-width="1920"
     inkscape:window-height="1031"
     inkscape:window-x="0"
     inkscape:window-y="25"
     inkscape:window-maximized="1"
     inkscape:current-layer="layer1" /><defs
     id="defs2" /><g
     inkscape:label="Layer 1"
     inkscape:groupmode="layer"
     id="layer1"
     transform="translate(-163.33427,-35.921486)"><path
       style="fill:#1b2021;fill-opacity:1;stroke-width:0.233253"
       d="m 207.41007,156.43738 c -10.65313,-1.34869 -19.46795,-5.90247 -27.23069,-14.0675 -1.07103,-1.12654 -1.18081,-1.18464 -1.89029,-1.00037 -0.41427,0.10759 -1.89247,0.20821 -3.28493,0.2236 -2.22906,0.0246 -2.69953,-0.0381 -3.93569,-0.52568 -2.7372,-1.07939 -4.21105,-2.65673 -4.46965,-4.78348 -0.1713,-1.40888 0.33127,-2.46103 1.55354,-3.25237 1.04424,-0.67609 3.01465,-0.95369 3.90343,-0.54994 0.68808,0.31259 0.7046,0.0535 0.0644,-1.01257 -1.61195,-2.68461 -4.16489,-8.48945 -5.35986,-12.18713 -1.3176,-4.07717 -2.36302,-8.71519 -3.07592,-13.6463 -0.52697,-3.64495 -0.44079,-16.553195 0.13556,-20.308235 1.87618,-12.22334 5.69672,-21.3294 13.16345,-31.37443 3.14165,-4.22648 6.2975,-7.3561 10.33492,-10.24904 8.85126,-6.34216 19.92068,-9.01167 30.07164,-7.25207 12.83204,2.22434 24.58316,11.04914 32.17388,24.16181 2.93029,5.06195 4.87295,9.62487 6.67908,15.68784 0.57515,1.93074 1.8708,8.47419 2.23397,11.28236 0.4997,3.86397 0.41442,15.281965 -0.14287,19.126285 -0.57436,3.96207 -1.91153,9.66497 -3.06448,13.06983 -0.49301,1.4559 -0.89639,2.72385 -0.89639,2.81766 0,0.0938 0.28571,0.1242 0.63492,0.0676 1.06369,-0.17259 2.08255,0.3385 2.64665,1.32766 0.28381,0.49763 0.516,1.12898 0.516,1.40298 0,2.35979 -2.61781,4.54804 -6.26854,5.2399 -1.43895,0.2727 -1.46149,0.28896 -2.30288,1.66002 -6.16167,10.04068 -14.04725,17.23718 -23.0801,21.06322 -4.96184,2.1017 -9.06604,2.97387 -14.55219,3.09247 -2.08867,0.0451 -4.13935,0.0389 -4.55708,-0.0141 z m 7.0255,-3.88048 c 0.3785,-0.19529 0.17788,-0.92252 -0.31647,-1.14711 -0.45465,-0.20654 -0.50634,-0.16343 -0.50634,0.42225 0,0.35874 -0.12162,0.65226 -0.27024,0.65226 -0.15123,0 -0.20232,-0.18162 -0.116,-0.41247 0.18375,-0.49145 -0.57066,-0.77424 -1.44039,-0.53992 -0.43005,0.11587 -0.33584,-0.029 0.40427,-0.62151 1.04165,-0.8339 1.07842,-1.18686 0.16432,-1.577 -0.51095,-0.21809 -0.76511,-0.14627 -2.00536,0.56664 -1.52086,0.8742 -4.6849,1.93537 -5.80256,1.9461 -1.23769,0.0118 -0.0427,0.37113 2.06012,0.61942 2.16843,0.25601 3.19441,0.27785 2.22562,0.0474 -0.5216,-0.12408 -0.41915,-0.19278 0.75951,-0.50926 l 1.36241,-0.36582 -0.63294,0.42164 c -0.53963,0.3595 -0.57694,0.45479 -0.25316,0.64651 0.3555,0.21049 3.90511,0.0893 4.36721,-0.14911 z m 4.27144,-0.58511 c 3.23176,-0.69761 7.08186,-2.17746 10.03903,-3.85868 2.68848,-1.52848 5.98046,-3.78138 5.77734,-3.95378 -0.0702,-0.0596 -0.61705,0.1333 -1.21514,0.42874 -0.59807,0.29544 -1.94187,0.80511 -2.98618,1.13263 -1.62547,0.50975 -2.28147,0.59575 -4.55709,0.59744 -2.3333,0.002 -4.48555,-0.28857 -6.14367,-0.82866 -0.57498,-0.1873 -1.50553,1.48142 -1.3127,2.35396 0.20139,0.91126 -0.43291,1.93528 -1.41198,2.27953 -0.36872,0.12964 -1.19927,0.21247 -1.84568,0.18407 -1.44039,-0.0633 -1.70807,0.11035 -0.76115,0.49374 0.53215,0.21544 0.73572,0.46819 0.79474,0.98659 0.0989,0.86823 0.38676,0.88289 3.62248,0.18442 z m -10.62589,-2.00438 c 3.56387,-1.49902 5.53164,-3.36292 5.53164,-5.23961 0,-1.2892 -1.28252,-2.36657 -2.27854,-1.91408 -0.59376,0.26973 -0.7073,0.97104 -0.12658,0.78188 0.42824,-0.13949 0.52264,0.19229 0.11548,0.40589 -0.3659,0.19196 -1.0016,-0.29808 -1.0016,-0.7721 0,-0.4524 0.91145,-1.06038 1.58964,-1.06038 0.25536,0 0.79965,0.31166 1.20953,0.6926 0.69087,0.64207 0.74524,0.65799 0.74524,0.21828 0,-0.26086 -0.33011,-0.78792 -0.7336,-1.17124 -0.59845,-0.56854 -0.92233,-0.69694 -1.75793,-0.69694 -1.67398,0 -2.98176,1.40998 -2.30434,2.48442 0.4246,0.67346 0.0954,0.73452 -0.63196,0.1172 -1.73185,-1.47006 0.11055,-4.06301 2.66116,-3.74524 0.73416,0.0915 0.77482,0.0619 0.63042,-0.45869 -0.38901,-1.40238 -0.44749,-3.28447 -0.13183,-4.24152 0.4416,-1.33882 2.05505,-2.77747 3.34405,-2.98174 2.90832,-0.46091 5.32918,1.24268 4.76967,3.35646 -0.13189,0.49831 -0.51699,1.1413 -0.85577,1.42887 l -0.61597,0.52285 0.12408,-1.09598 c 0.1173,-1.03639 0.0749,-1.13534 -0.77944,-1.8193 -1.10173,-0.882 -1.90604,-1.07486 -3.22517,-0.77334 -1.33958,0.30617 -2.33443,1.52356 -2.21908,2.71542 l 0.08,0.82749 0.45652,-0.70987 c 0.67964,-1.05683 1.35907,-1.54661 2.14545,-1.54661 1.51373,0 2.32432,1.11289 1.42498,1.95644 -0.45278,0.42468 -1.11547,0.3183 -1.11547,-0.17907 0,-0.26397 0.0715,-0.27538 0.37675,-0.0603 0.30528,0.21506 0.40673,0.19915 0.53467,-0.0839 0.45968,-1.01683 -1.55745,-1.34651 -2.56914,-0.41988 -0.80938,0.74133 -0.84994,2.33234 -0.0932,3.65913 1.55038,2.71853 7.31569,5.04567 12.51077,5.0499 2.66646,0.003 6.1975,-0.76884 7.8483,-1.71372 l 1.01269,-0.57964 -1.89879,-0.11579 c -1.34588,-0.0821 -2.2121,-0.26568 -2.97475,-0.63055 -1.08021,-0.51677 -1.46106,-0.98926 -0.63294,-0.78522 3.31434,0.81664 7.88429,-0.15466 9.30564,-1.97782 0.66469,-0.85259 1.46626,-2.6399 1.73663,-3.87223 0.15244,-0.69484 0.0946,-0.66388 -1.67627,0.89735 -1.93231,1.70355 -2.87585,2.11111 -4.43702,1.91662 -1.04771,-0.13053 -1.03672,-0.3871 0.0294,-0.68576 1.14517,-0.32081 1.95701,-1.09367 3.27031,-3.11323 1.25389,-1.92823 1.71655,-2.28933 2.44106,-1.90526 0.39818,0.21107 0.49806,0.19223 0.578,-0.10902 0.0531,-0.2003 -0.0776,-2.60404 -0.2906,-5.34165 l -0.38724,-4.97746 -1.17281,1.56889 c -1.43938,1.92549 -2.87142,2.75518 -4.57188,2.64888 l -1.09093,-0.0682 0.88608,-0.34689 c 1.27193,-0.49791 1.86138,-1.15521 2.66665,-2.97359 0.79768,-1.80117 1.56024,-2.58634 2.51186,-2.58634 0.9445,0 0.80281,-0.46695 -0.48229,-1.58933 -2.25752,-1.9717 -3.16905,-3.95744 -3.17418,-6.91474 -0.005,-3.59709 1.38802,-5.47552 7.27046,-9.79535 l 2.33662,-1.71592 -1.30065,-1.326655 c -1.52246,-1.55289 -2.41705,-3.07497 -2.64238,-4.49588 -0.0978,-0.61659 -0.26397,-0.9628 -0.42231,-0.87973 -0.1696,0.089 -0.1957,-0.0442 -0.0746,-0.38017 0.10263,-0.28442 0.40948,-1.28567 0.68193,-2.225 0.47881,-1.65079 1.54162,-3.70022 2.53059,-4.87982 0.26303,-0.31373 0.47513,-0.6522 0.47129,-0.75216 -0.0109,-0.28576 -2.31427,-1.20028 -2.52652,-1.00312 -0.10464,0.0972 -0.32056,0.52338 -0.47984,0.94713 -0.35128,0.9345 -1.4086,1.83021 -2.4082,2.04012 -0.6366,0.13369 -0.71435,0.10301 -0.56676,-0.2235 0.13523,-0.29911 0.0777,-0.34635 -0.27485,-0.22536 -0.24524,0.0842 -1.12946,0.34688 -1.96494,0.58373 -0.83545,0.23684 -1.82666,0.56554 -2.20266,0.73044 -0.86044,0.37735 -1.10343,0.38109 -0.742,0.0115 0.15509,-0.15863 0.21169,-0.34806 0.1258,-0.42097 -0.086,-0.073 0.2154,-0.39798 0.66955,-0.72235 0.99865,-0.71329 1.7113,-1.98655 1.24793,-2.22963 -0.40389,-0.21188 0.64594,-1.83521 1.55623,-2.40634 0.97485,-0.61162 2.51197,-0.71405 3.98196,-0.26536 0.71866,0.21937 1.4527,0.31556 1.72493,0.22603 0.45711,-0.15032 0.45595,-0.16685 -0.0324,-0.46691 -1.19136,-0.73195 -1.39244,-0.97093 -1.39244,-1.65472 0,-0.64189 0.36208,-1.22704 0.75931,-1.22704 0.0834,0 0.10679,0.32654 0.0519,0.72567 -0.0788,0.57357 0.0246,0.80005 0.49389,1.08056 0.58356,0.34883 0.59585,0.34291 0.72027,-0.34715 0.0798,-0.44257 0.29034,-0.72863 0.56964,-0.77396 0.24367,-0.0396 0.44305,0.0319 0.44305,0.15874 0,0.12685 -0.17089,0.23065 -0.37976,0.23065 -0.49143,0 -0.48024,0.19426 0.0392,0.68151 0.49884,0.46789 1.70167,0.50373 3.50515,0.10446 1.06576,-0.23595 1.2702,-0.36268 1.29331,-0.80174 0.0504,-0.95606 0.0967,-1.05873 0.47889,-1.05873 0.20886,0 0.37977,0.15076 0.37977,0.33503 0,0.18427 -0.11395,0.27527 -0.25318,0.20221 -0.13925,-0.073 -0.25317,0.0204 -0.25317,0.20754 0,0.49625 1.0588,0.75953 3.05452,0.75953 0.96565,0 1.75573,-0.0337 1.75573,-0.0749 0,-0.42376 -1.4684,-5.51748 -2.17365,-7.54011 -6.27941,-18.00943 -20.25208,-30.99251 -35.63381,-33.11015 -3.29455,-0.45357 -3.45924,-0.44072 -3.46038,0.26983 -9.4e-4,0.8431 -0.81846,1.86775 -1.75084,2.19558 -0.86959,0.30575 -0.91446,0.6281 -0.12207,0.87691 0.32353,0.1016 1.00162,-0.0231 1.88575,-0.34692 3.07406,-1.12571 5.88479,-0.34877 7.30862,2.0203 0.5715,0.95091 0.71181,1.87683 0.24751,1.63324 -0.32182,-0.16882 -0.1135,0.53188 0.42601,1.43292 0.36296,0.60622 1.9986,1.9123 2.3948,1.9123 0.13439,0 0.24437,0.0967 0.24437,0.21489 0,0.1182 -0.19077,0.2149 -0.42389,0.2149 -0.34883,0 -0.31519,0.10125 0.18987,0.57167 0.6802,0.63356 0.64058,0.62711 -1.91795,-0.31172 -0.97471,-0.35765 -2.34805,-0.80001 -3.05187,-0.983 -0.70381,-0.18299 -1.50129,-0.39951 -1.7722,-0.48116 -0.40412,-0.12181 -0.43572,-0.0965 -0.17605,0.14106 0.80584,0.73721 -0.18712,0.86255 -1.68714,0.21297 -1.31851,-0.57097 -2.19346,-1.51058 -2.7154,-2.91609 -0.24028,-0.64706 -0.51236,-1.17646 -0.60459,-1.17646 -0.0923,0 -0.36447,0.18456 -0.605,0.41016 -0.24051,0.22559 -0.77016,0.5272 -1.17701,0.67025 -0.61727,0.21703 -0.84473,0.20168 -1.37415,-0.0928 -0.82405,-0.45832 -0.80702,-0.77274 0.0419,-0.77274 0.78625,0 1.60226,-0.54944 1.60226,-1.07884 0,-0.5966 -0.97786,-1.4779 -2.24021,-2.01901 -1.30064,-0.5575 -4.59814,-1.2002 -6.15789,-1.2002 -1.02863,0 -3.33793,0.7023 -3.99825,1.21594 -0.31777,0.24718 -0.26352,0.2889 0.37975,0.29206 1.27489,0.006 4.27137,0.76282 5.84997,1.47702 4.31274,1.95121 7.51822,5.56889 8.5896,9.69421 0.23023,0.88647 0.58469,2.04694 0.78769,2.57882 0.20301,0.53188 0.42505,1.20882 0.49341,1.50432 0.10652,0.46047 0.0841,0.4835 -0.15685,0.16117 -0.47875,-0.64037 -0.63771,-0.432 -0.95276,1.24882 -0.4257,2.2711 -1.73023,4.31798 -3.97658,6.23941 -1.90594,1.63029 -3.78599,2.45099 -5.61461,2.45099 -1.15819,0 -2.54823,-0.56195 -3.0736,-1.24257 -0.40715,-0.52745 -0.41574,-0.5143 -0.74414,1.13601 -0.75835,3.8111 -3.15269,6.27513 -10.32532,10.62585 -5.58393,3.38706 -6.45585,3.94581 -6.45585,4.13696 0,0.0913 0.90556,1.20136 2.01237,2.46671 5.00057,5.71688 5.93644,8.60548 4.19569,12.94988 -0.64454,1.6086 -1.92116,3.406315 -3.08965,4.350795 -1.15403,0.93279 -3.6234,2.09468 -5.4618,2.56986 -2.44829,0.63284 -5.61703,0.51364 -7.47281,-0.28111 l -1.33497,-0.57171 0.77294,0.89477 c 1.55928,1.80507 4.64974,4.64732 9.50179,8.73869 6.45086,5.43955 8.2708,7.48676 9.3173,10.48085 0.4701,1.34495 0.59187,5.25879 0.19086,6.13433 -0.6181,1.34955 -0.11046,3.15582 0.88696,3.15582 0.75463,0 1.25233,0.41767 2.36807,1.98729 0.69588,0.97896 1.08253,1.29219 1.89879,1.53815 l 1.02495,0.30887 -1.21919,0.017 c -1.48927,0.0207 -1.98358,-0.18282 -3.5417,-1.45846 -0.66905,-0.54778 -1.15891,-0.85088 -1.08853,-0.67359 0.0703,0.17729 0.30784,1.84495 0.52768,3.7059 0.47403,4.01215 0.5029,4.1039 1.18108,3.75183 0.43643,-0.22657 0.60976,-0.15232 1.40301,0.6011 0.49777,0.47277 1.23327,1.16677 1.63444,1.5422 0.40118,0.37544 1.12786,0.79422 1.61487,0.93065 1.15759,0.3243 0.89207,0.64322 -0.53549,0.64322 -1.21121,0 -2.00741,-0.3287 -3.34714,-1.38184 l -0.83928,-0.65973 0.26009,0.58367 c 1.3498,3.02899 3.42011,4.1597 6.7128,3.66618 0.8477,-0.12705 1.74065,-0.29941 1.98433,-0.38302 0.72312,-0.24812 0.50862,0.25486 -0.32305,0.75755 -0.42136,0.25468 -1.3043,0.53133 -1.96208,0.6148 -1.17996,0.14971 -1.18749,0.15573 -0.56306,0.4485 1.09478,0.51331 2.07245,0.63163 4.83477,0.5851 2.59304,-0.0437 2.7545,-0.0754 4.82387,-0.94574 z m 5.78481,-1.47293 c 0,-1.06423 1.00275,-2.10312 1.86558,-1.9328 0.48158,0.0951 2.23808,-0.72026 2.58845,-1.20148 0.10953,-0.15043 0.0542,-0.30387 -0.12846,-0.35552 -0.17664,-0.05 -1.05126,-0.50646 -1.94361,-1.01439 l -1.62245,-0.92351 v 0.80152 c 0,1.17414 -0.64935,2.83498 -1.49655,3.82771 l -0.74203,0.86951 0.54965,0.22563 c 0.82422,0.33833 0.92942,0.30476 0.92942,-0.29667 z m -21.2623,-1.97371 c -1.11693,-1.90249 -1.69929,-3.83664 -2.66911,-8.86471 -0.37617,-1.95024 -0.71561,-3.57573 -0.75431,-3.61222 -0.0386,-0.0364 -0.47425,0.49541 -0.96789,1.18197 -0.91239,1.26894 -2.56832,2.74579 -4.28388,3.82059 -0.52216,0.32713 -0.94938,0.74156 -0.94938,0.92095 0,0.4998 6.46664,5.84551 8.59352,7.10392 1.03648,0.61325 1.91249,1.11499 1.94668,1.11499 0.0342,0 -0.37783,-0.74947 -0.91563,-1.66549 z m -14.90141,-6.23367 c 0.21614,-0.18346 0.17125,-0.39635 -0.17857,-0.84706 -0.25698,-0.3311 -1.18535,-1.60569 -2.063,-2.83239 -1.57889,-2.20683 -1.59587,-2.22158 -1.60694,-1.39687 l -0.0112,0.83352 -0.4903,-0.78787 c -1.15944,-1.86305 -4.75782,-1.49906 -5.5593,0.56234 -0.33754,0.86818 -0.0149,2.15814 0.7369,2.94519 0.65661,0.68749 0.79048,0.47549 0.48002,-0.76013 -0.22948,-0.91332 -0.2003,-1.11425 0.23362,-1.60904 0.72762,-0.82969 1.6918,-1.06557 2.33523,-0.57129 0.60703,0.46631 0.67865,1.36262 0.12334,1.5435 -0.51574,0.16799 -0.83119,-0.11309 -0.38791,-0.34564 0.46749,-0.24525 0.1515,-0.86961 -0.44008,-0.86961 -1.10694,0 -1.77493,1.65959 -1.0993,2.73119 0.34333,0.54454 1.37924,1.19361 2.44454,1.53169 0.94732,0.30062 5.09212,0.20422 5.48294,-0.12753 z m 65.04028,-4.45771 c 1.6905,-2.14828 4.8297,-7.26311 6.07337,-9.89559 0.87343,-1.84881 2.26621,-5.23132 2.26621,-5.50374 0,-0.0925 -0.41226,0.0694 -0.91611,0.35959 -1.82194,1.04951 -4.51156,1.25664 -6.9322,0.53386 -0.76584,-0.22868 -1.4814,-0.41894 -1.59014,-0.42279 -0.10871,-0.004 -0.17449,2.77328 -0.14614,6.17142 0.0541,6.49555 -0.16234,8.65009 -1.07452,10.69137 -0.26411,0.59098 -0.47614,1.12286 -0.47119,1.18196 0.0176,0.21115 1.29379,-1.21377 2.79072,-3.11608 z m -59.33667,2.15455 c 2.41968,-1.38319 5.52677,-5.00291 5.24371,-6.10883 -0.29332,-1.14588 -0.30615,-1.15404 -1.0793,-0.68673 -0.76713,0.46368 -1.48126,0.72452 -2.6291,0.9603 -0.76615,0.15738 -0.97848,-0.18997 -0.23805,-0.38945 0.25198,-0.0679 1.04098,-0.60788 1.75332,-1.19997 1.21967,-1.01381 1.28153,-1.11704 1.06133,-1.77145 -0.12861,-0.38219 -0.48541,-1.09827 -0.79291,-1.59127 l -0.55907,-0.89638 -0.72183,0.43629 c -0.90702,0.54822 -1.05707,0.4298 -0.54954,-0.43378 0.21917,-0.37292 0.32888,-0.8642 0.2438,-1.09174 -0.25888,-0.69235 -3.52806,-3.14877 -5.00931,-3.76394 -0.7664,-0.31828 -2.00513,-0.71612 -2.75275,-0.88409 -1.78846,-0.40181 -6.54928,-0.67038 -6.54928,-0.36945 0,0.12247 0.46267,1.36162 1.02814,2.75368 1.20277,2.96093 3.30728,6.97112 4.9473,9.42723 1.60334,2.40117 4.73019,6.33914 5.04087,6.34849 0.14112,0.004 0.8443,-0.32826 1.56267,-0.73891 z m 69.69088,-8.31 c 1.14081,-0.32703 1.96244,-0.75169 2.83403,-1.4648 1.16942,-0.9568 1.37194,-1.3582 1.23599,-2.44991 -0.0297,-0.23852 0.0606,-0.34168 0.22402,-0.25594 0.3359,0.17621 0.35458,-0.31805 0.0387,-1.02334 -0.33902,-0.7569 -1.50472,-1.05092 -2.51687,-0.63481 -0.78597,0.32312 -1.25295,1.10285 -0.92792,1.54928 0.20996,0.28837 -0.18666,0.29751 -0.52295,0.012 -0.16903,-0.14348 -0.60936,0.55392 -1.32295,2.0953 -0.58827,1.27069 -1.06668,2.38289 -1.06314,2.47154 0.009,0.2417 0.26602,0.20373 2.02111,-0.29938 z m 1.94736,-4.36853 c -0.1617,-0.35769 0.45486,-0.97328 0.97485,-0.97328 0.38138,0 1.22896,0.64019 1.04939,0.79263 -0.0626,0.0532 -0.3501,-0.0284 -0.63866,-0.18138 -0.42342,-0.22445 -0.58657,-0.2256 -0.84535,-0.005 -0.25878,0.21967 -0.24777,0.31132 0.057,0.47487 0.32584,0.17485 0.32057,0.20311 -0.0384,0.20595 -0.22878,0.002 -0.48028,-0.13897 -0.55888,-0.31284 z m -65.80485,1.48363 c 0.43892,-1.38872 0.24501,-2.38901 -0.80215,-4.13765 -1.51693,-2.5331 -1.53932,-2.52703 -1.49098,0.40425 0.0395,2.4001 0.0981,2.69002 0.75951,3.76454 0.39415,0.64029 0.82507,1.13374 0.9576,1.09655 0.13254,-0.0372 0.39175,-0.54465 0.57602,-1.12769 z m -4.61476,-4.76015 c -0.55682,-1.68456 -0.44138,-2.69235 0.32602,-2.84596 0.54192,-0.10848 0.49326,-0.18562 -0.7595,-1.20446 -0.73618,-0.59871 -2.6788,-2.08455 -4.31692,-3.30188 -1.63813,-1.21733 -3.08215,-2.37066 -3.20894,-2.56298 -0.45847,-0.69541 -0.54153,-0.0505 -0.15611,1.21204 0.75618,2.47708 0.41888,4.05597 -1.13676,5.32107 -0.82927,0.67441 -0.96483,0.57885 -0.33549,-0.23646 0.64015,-0.82931 0.52629,-1.97852 -0.36432,-3.67729 -0.88093,-1.68033 -1.01367,-2.73461 -0.43293,-3.43842 0.35093,-0.42528 0.27638,-0.56076 -1.17917,-2.14311 -0.85458,-0.92902 -1.59397,-1.73042 -1.64308,-1.78088 -0.049,-0.0504 -0.23053,0.0569 -0.40315,0.23859 -0.4268,0.44925 -0.97365,0.57934 -1.5797,0.37578 -0.41663,-0.13992 -0.42943,-0.17272 -0.0723,-0.18515 0.7689,-0.0267 1.04251,-0.7991 0.56008,-1.58106 -0.42188,-0.68384 -2.26695,-3.84563 -2.84838,-4.88111 -0.24837,-0.44231 -0.27652,-0.19546 -0.15927,1.39686 0.32682,4.43879 1.6158,10.95265 2.97679,15.04314 l 0.57201,1.71923 3.66281,0.12592 c 2.85303,0.0981 3.99863,0.22919 5.18184,0.59302 1.66429,0.51175 3.66428,1.5967 4.80267,2.60533 0.40159,0.35581 0.77573,0.60826 0.8314,0.56101 0.0557,-0.0473 -0.0872,-0.65622 -0.31769,-1.35323 z m 63.94841,-1.41047 c 1.49436,-0.85481 1.6374,-2.30727 0.24448,-2.4823 -0.48865,-0.0614 -0.54262,-0.002 -0.38874,0.4298 0.13793,0.38687 0.10904,0.44507 -0.1267,0.25531 -0.46718,-0.37605 -0.19812,-1.03491 0.45486,-1.11383 1.00345,-0.12129 1.38171,0.35134 1.24536,1.55601 l -0.12144,1.07267 0.60069,-0.59278 c 0.72197,-0.71245 0.79122,-1.8258 0.15506,-2.49267 -0.66775,-0.69999 -2.37545,-0.83915 -3.06936,-0.25012 -0.6686,0.56752 -0.78892,0.56881 -0.78892,0.008 0,-0.74516 1.3416,-1.70268 2.38565,-1.70268 0.49808,0 0.90559,-0.0496 0.90559,-0.11037 0,-0.46779 -1.50392,-2.07195 -1.79789,-1.91773 -0.284,0.14899 -0.94752,-0.75924 -1.13454,-1.55298 -0.16333,-0.69323 0.30309,-1.70663 1.01695,-2.20952 0.21804,-0.15362 0.39644,-0.4051 0.39644,-0.55886 0,-0.21815 -0.17237,-0.20658 -0.78467,0.0527 -0.74119,0.31386 -0.81486,0.30624 -1.32915,-0.13747 l -0.54448,-0.46975 0.68184,0.14123 c 0.9016,0.18675 1.39119,-0.0661 0.81752,-0.42212 -0.23637,-0.14671 -0.3661,-0.40337 -0.28832,-0.57036 0.10421,-0.22366 0.14669,-0.20458 0.16142,0.0724 0.0335,0.62848 0.49701,0.42186 0.9027,-0.40232 0.43542,-0.8846 0.50835,-2.01533 0.12997,-2.01533 -0.13925,0 -0.25317,-0.14506 -0.25317,-0.32235 0,-0.38139 0.42063,-0.43318 0.5635,-0.0694 0.12376,0.3152 1.10811,-1.01216 1.34298,-1.81099 0.0956,-0.32504 0.0725,-0.59099 -0.0515,-0.59099 -0.12389,0 -0.88114,0.56263 -1.6828,1.25028 -0.97885,0.83966 -1.40706,1.36197 -1.30381,1.59035 0.10662,0.23587 0.0172,0.33017 -0.29175,0.30776 -0.29762,-0.0216 -0.80959,0.46704 -1.54234,1.47201 -2.13252,2.92473 -3.12475,5.95627 -3.48233,10.63962 l -0.15602,2.04356 0.81227,0.40729 c 2.13419,1.07013 4.93252,1.28948 6.32062,0.49544 z m -8.76868,-2.57217 c 0.29996,-1.16535 0.26539,-1.98793 -0.081,-1.92579 -0.41206,0.0739 -1.55286,-0.52291 -1.55286,-0.81242 0,-0.11177 0.16199,-0.15044 0.35997,-0.086 0.66512,0.21666 1.38874,-0.33183 1.6658,-1.26263 0.95256,-3.20035 2.46274,-6.08621 4.60268,-8.79554 0.66002,-0.83564 0.96668,-1.46181 0.96668,-1.97385 0,-0.41248 0.11475,-1.00614 0.25499,-1.31924 0.14024,-0.3131 0.19124,-0.65682 0.11334,-0.76382 -0.0779,-0.107 -1.36041,0.59373 -2.84999,1.55717 -3.29886,2.13365 -3.83348,2.55638 -3.40456,2.69219 0.47342,0.14991 0.38268,1.19623 -0.21461,2.47408 -0.39602,0.84726 -0.49536,1.40944 -0.39062,2.2107 l 0.14043,1.07452 -0.62205,-0.60298 c -0.63364,-0.61418 -0.68723,-0.86206 -0.63628,-2.94292 l 0.0289,-1.18195 -0.50801,0.53725 c -1.44963,1.53304 -1.80757,3.48066 -0.92094,5.01079 0.26139,0.4511 0.98034,1.24893 1.59767,1.77294 0.61732,0.52401 0.99383,0.95274 0.83667,0.95274 -0.59967,0 -1.7647,-0.66732 -2.51634,-1.44133 -0.75915,-0.78178 -0.78229,-0.7894 -0.78229,-0.25768 0,0.84162 0.75502,2.56001 1.59634,3.63313 0.90453,1.15376 1.70638,1.93412 1.98736,1.93412 0.11232,0 0.26022,-0.21759 0.32868,-0.48352 z m 13.14035,-3.27726 c 1.50702,-5.44667 2.71104,-14.50589 1.9279,-14.50589 -0.14322,0 -1.08972,0.33407 -2.1034,0.74238 l -1.84301,0.7424 -0.91018,2.00055 c -1.06032,2.33058 -1.35641,3.69065 -0.98398,4.51977 0.30421,0.67723 0.6739,0.74244 1.33405,0.23532 0.3941,-0.30275 0.46299,-0.3077 0.46299,-0.0333 0,0.1773 -0.22332,0.49391 -0.49626,0.70358 -0.49143,0.3775 -0.4902,0.38797 0.12658,1.07437 0.60843,0.67711 0.9024,2.22148 0.36968,1.942 -0.15505,-0.0814 -0.26797,0.30938 -0.29136,1.0081 -0.0626,1.87303 0.0547,2.38491 0.69463,3.0305 0.33518,0.33813 0.60941,0.77176 0.60941,0.96362 0,0.85632 0.49863,-0.23928 1.10295,-2.42339 z M 179.4836,104.35672 c 0.93201,-0.24752 2.41106,-0.85885 3.28677,-1.35849 2.29107,-1.30721 4.76577,-4.045275 4.76577,-5.272945 0,-0.24946 -0.17983,-0.19013 -0.69623,0.22974 -0.83703,0.68056 -2.31737,1.235 -3.28308,1.22967 -0.62198,-0.004 -0.54173,-0.08 0.68618,-0.65442 2.87928,-1.34701 3.94409,-2.80367 3.73372,-5.10778 -0.072,-0.78821 -0.35257,-1.8657 -0.6236,-2.3944 l -0.49273,-0.96128 -0.15797,1.43588 c -0.17394,1.58114 -0.84995,2.91164 -1.7016,3.34902 -0.73991,0.37999 -0.88818,0.19508 -0.37582,-0.4687 0.34154,-0.44246 0.40481,-0.9785 0.3367,-2.85296 -0.0821,-2.26047 -0.0717,-2.31063 0.50141,-2.42886 0.54243,-0.1119 0.38787,-0.32242 -2.11159,-2.87629 -2.53642,-2.59161 -2.72378,-2.73488 -3.14913,-2.40813 -0.27491,0.21119 -0.50009,0.76988 -0.57422,1.42471 -0.0962,0.8503 -0.2992,1.23253 -0.96323,1.81407 -0.97623,0.85497 -1.16722,0.84565 -0.62881,-0.0307 0.42426,-0.69057 0.51259,-1.59002 0.15613,-1.59002 -0.25902,0 -2.45846,2.02389 -2.81638,2.59157 -0.18519,0.29372 -0.0848,0.4213 0.4908,0.62367 0.97218,0.34183 1.93397,1.2261 2.4301,2.23427 0.46691,0.94878 0.38603,1.13118 -0.35275,0.79555 l -0.5213,-0.23681 0.49961,0.98939 c 0.2748,0.54415 0.49963,1.15332 0.49963,1.35371 0,0.20038 0.39874,1.07058 0.88611,1.93381 1.04869,1.85748 1.09589,2.07668 0.261,1.21211 l -0.62257,-0.64471 -0.0105,0.53726 c -0.01,0.52879 -0.0176,0.52672 -0.49039,-0.1314 -0.26419,-0.36776 -0.82381,-0.87626 -1.2436,-1.12999 -0.90903,-0.54945 -2.3249,-0.84287 -2.3249,-0.48181 0,0.35175 -1.74264,-0.30167 -2.54556,-0.95448 -0.35574,-0.28922 -0.71362,-0.52586 -0.79532,-0.52586 -0.28378,0 -2.32566,4.71735 -2.11813,4.8935 0.0603,0.0511 0.37025,-0.0618 0.68872,-0.25118 0.33121,-0.19692 1.0871,-0.34428 1.76606,-0.34428 1.0147,0 1.28218,0.096 1.84245,0.66121 0.4455,0.4494 0.65514,0.91404 0.65448,1.450575 l -9.4e-4,0.78939 -0.49754,-0.69265 c -0.55686,-0.775255 -1.37016,-1.032055 -2.6321,-0.831105 -1.06883,0.1702 -1.65871,0.71538 -1.84856,1.708455 -0.14944,0.78166 0.29076,2.07177 0.70691,2.07177 0.12234,0 0.22245,-0.40338 0.22245,-0.8964 0,-1.0292 0.55241,-1.68242 1.42278,-1.68242 0.63912,0 1.23299,0.705 1.00979,1.19876 -0.24274,0.53692 -0.67985,0.33879 -0.51117,-0.2317 0.13078,-0.44231 0.0671,-0.53725 -0.36057,-0.53725 -0.64012,0 -1.30766,0.76794 -1.30766,1.5043 0,0.99763 1.07142,1.84164 3.03641,2.3919 0.99169,0.2777 4.00877,0.0479 5.87351,-0.44729 z m 68.94019,-2.58932 c 0.086,-0.11819 0.0357,-0.2149 -0.11166,-0.2149 -0.14746,0 -0.26811,0.0967 -0.26811,0.2149 0,0.11821 0.0502,0.21491 0.11165,0.21491 0.0614,0 0.18206,-0.0967 0.26812,-0.21491 z m 1.81916,-1.11196 c 0.74715,-0.59581 0.77988,-1.578525 0.0635,-1.904005 -0.38786,-0.1762 -0.61625,-0.17136 -0.88611,0.0188 -0.52108,0.36708 -0.4484,0.68511 0.12147,0.53159 0.64214,-0.173 0.94121,0.27257 0.45814,0.68261 -0.34133,0.289735 -0.44302,0.273455 -0.94319,-0.15109 -0.48885,-0.41497 -0.6074,-0.43612 -0.92648,-0.16528 -0.2988,0.25365 -0.3096,0.415415 -0.0589,0.882625 0.38481,0.7169 1.3458,0.76328 2.17154,0.1048 z m -80.6981,-5.924065 c 0.56673,-1.38997 1.06857,-3.05895 1.1153,-3.70906 0.0467,-0.65009 0.27422,-1.49146 0.50558,-1.86973 0.47315,-0.77362 0.53419,-1.5193 0.16358,-1.99851 -0.22159,-0.28654 -0.27699,-0.28654 -0.49859,0 -0.13711,0.1773 -0.25103,0.43464 -0.25317,0.57187 -0.006,0.42758 -1.5289,1.36225 -2.21861,1.36225 -0.36128,0 -0.85433,-0.15169 -1.09567,-0.3371 -0.41207,-0.31654 -0.44992,-0.22394 -0.62099,1.51938 -0.31609,3.22096 0.21091,8.11354 1.04388,9.69114 l 0.44285,0.838735 0.19273,-1.770935 c 0.12722,-1.16882 0.54308,-2.63016 1.22311,-4.29804 z m 85.52467,4.38408 c 0.2275,-0.12015 0.31647,-0.97276 0.31647,-3.03326 v -2.86613 l -1.45915,1.21332 c -2.42532,2.01673 -3.48941,3.46979 -2.54096,3.46979 0.20524,0 0.22057,0.0706 0.0472,0.21782 -0.17163,0.1457 -0.17385,0.5205 -0.006,1.13205 l 0.2499,0.914235 1.5384,-0.440345 c 0.84612,-0.24219 1.6808,-0.51556 1.85486,-0.60748 z m -7.55307,-0.56874 c 1.74493,-1.30518 3.05928,-2.53162 3.05928,-2.85467 0,-0.0546 -0.6741,-0.30784 -1.49801,-0.56284 -0.94546,-0.29263 -1.77865,-0.73495 -2.25884,-1.1992 -0.62484,-0.60406 -0.81264,-0.68257 -1.05064,-0.43913 -0.22098,0.22599 -0.19629,0.41755 0.10391,0.80645 0.30632,0.39683 0.35222,0.78962 0.20681,1.76959 -0.10274,0.69275 -0.32931,1.29977 -0.50336,1.34891 -0.17405,0.0492 -0.31646,-0.0637 -0.31646,-0.2509 0,-0.43148 -0.40543,-0.44363 -0.59789,-0.0179 -0.42502,0.94018 -2.24979,-0.29906 -2.61997,-1.77926 -0.10997,-0.43976 -0.19551,-1.62156 -0.19011,-2.62623 0.008,-1.52175 0.12442,-2.03726 0.69622,-3.08831 0.80827,-1.4857 0.87972,-1.80387 0.18923,-0.84261 -1.49214,2.0773 -1.69646,5.8065 -0.43907,8.01407 0.68219,1.19774 2.55475,3.223525 2.97968,3.223525 0.12752,0 1.13518,-0.675665 2.23922,-1.501485 z m -3.35434,-2.11222 c -0.72826,-0.68309 -0.81496,-1.70766 -0.20387,-2.40927 0.68114,-0.78205 0.68305,-0.93337 0.007,-0.62664 -0.38584,0.17528 -0.61009,0.17737 -0.81014,0.007 -0.20008,-0.16982 -0.17261,-0.23482 0.0992,-0.23482 0.49349,0 1.24448,-1.09636 1.24448,-1.81677 0,-0.31267 0.17576,-0.857 0.39058,-1.2096 0.21481,-0.35262 0.61081,-1.24638 0.87999,-1.98617 0.56053,-1.54047 1.70977,-2.79609 3.45981,-3.78005 1.19413,-0.6714 2.75686,-1.14094 3.80953,-1.14464 0.31113,-8.2e-4 0.49483,-0.0984 0.40883,-0.21651 -0.0914,-0.1257 -0.68609,-0.16127 -1.43578,-0.0859 -5.41657,0.54453 -10.74738,6.91952 -9.55815,11.43033 0.29983,1.13724 1.29752,2.46264 1.85378,2.46264 0.14844,0 0.0827,-0.17557 -0.14609,-0.39017 z m 8.35586,-2.76983 c 0.79353,-0.44136 1.349,-1.48908 1.349,-2.54453 0,-1.65722 -2.54942,-2.67729 -4.07333,-1.62982 -0.78388,0.53878 -0.80183,1.78732 -0.0351,2.43817 0.65185,0.55331 0.98079,0.3996 0.56299,-0.26307 -0.41403,-0.6567 -0.13061,-1.38282 0.65897,-1.68819 1.0321,-0.39917 1.87376,0.15405 1.87376,1.23163 0,0.97999 -0.56805,1.49844 -1.83264,1.67264 -0.72833,0.10033 -1.0244,0.0142 -1.69264,-0.49271 -1.58942,-1.20558 -1.13186,-3.35767 0.86439,-4.06569 1.30297,-0.46212 2.17866,-0.37935 3.49742,0.33057 l 1.18883,0.63996 v -0.93233 c 0,-0.51278 -0.0725,-1.381 -0.16099,-1.92938 -0.18129,-1.12275 -0.47892,-1.22483 -1.99909,-0.68567 -0.87353,0.30982 -1.1651,0.85117 -0.56151,1.04254 0.21118,0.067 0.16341,0.15392 -0.1436,0.26136 -0.71677,0.25084 -1.08081,-0.20075 -0.71349,-0.88508 0.3838,-0.71501 0.28088,-0.80983 -0.42404,-0.39072 -0.32164,0.19123 -0.55436,0.55752 -0.55436,0.87256 0,0.33883 -0.11898,0.50936 -0.31646,0.45355 -0.54256,-0.15334 -0.51582,-0.83177 0.0588,-1.49148 l 0.55096,-0.63256 -0.72153,0.31672 c -1.98188,0.86995 -3.24272,2.76946 -3.24272,4.88531 0,1.14661 0.11918,1.56579 0.63293,2.22605 1.11285,1.43023 3.7751,2.07127 5.23346,1.26017 z m -6.85459,-1.08431 c -0.0886,-0.32504 -0.23416,-0.97462 -0.3234,-1.44351 -0.13079,-0.68716 -0.20001,-0.77053 -0.35693,-0.4298 -0.10707,0.23249 -0.20267,0.88207 -0.21247,1.4435 -0.0158,0.90102 0.045,1.02078 0.51807,1.02078 0.45486,0 0.5115,-0.0894 0.37473,-0.59097 z m -76.69053,-4.8353 c 0.9229,-0.8702 0.92482,-1.00527 0.0125,-0.87959 -0.93006,0.12812 -1.61655,-0.32166 -1.35934,-0.89062 0.22347,-0.49431 0.73005,-0.39655 0.54261,0.10472 -0.12618,0.33747 -0.0455,0.4298 0.37562,0.4298 0.36869,0 0.6467,-0.22423 0.88948,-0.71747 0.35836,-0.72803 0.33367,-0.91234 -0.5588,-4.17155 -0.13786,-0.50349 -0.44467,-0.62795 -0.69623,-0.28244 -0.0806,0.11059 -0.43098,1.62698 -0.77879,3.36975 -0.50129,2.51185 -0.56588,3.20449 -0.31158,3.3415 0.58142,0.31327 1.36374,0.18703 1.88461,-0.3041 z m 4.68223,-1.37645 c 0.25464,-0.1956 0.46299,-0.58243 0.46299,-0.85961 0,-0.65367 0.44052,-0.6468 0.79435,0.0124 0.27659,0.51532 0.27933,0.51423 1.38975,-0.54704 0.90757,-0.86741 1.06598,-1.13733 0.85959,-1.46466 -0.13916,-0.22071 -0.39672,-0.45043 -0.57237,-0.5105 -0.17566,-0.0601 -0.0594,-0.11684 0.25821,-0.12618 0.31768,-0.009 0.64829,-0.18621 0.7347,-0.39305 0.0864,-0.20684 0.31861,-0.53617 0.51598,-0.73183 0.31552,-0.31279 0.24516,-0.53339 -0.58255,-1.82667 -1.14918,-1.79557 -1.06359,-1.71145 -1.42714,-1.40285 -0.16478,0.13986 -0.52232,0.25429 -0.79454,0.25429 -0.47739,0 -0.47885,-0.0151 -0.0408,-0.42588 0.43803,-0.41086 0.43032,-0.48688 -0.2184,-2.15299 -1.04372,-2.68063 -1.42304,-4.55752 -1.42304,-7.0413 0,-1.31705 -0.0938,-2.19889 -0.22137,-2.08124 -0.4101,0.37823 -1.8129,3.74994 -2.97328,7.14644 -1.12726,3.29956 -1.14964,3.42449 -1.02854,5.73693 0.14579,2.78345 0.79972,4.7776 1.95558,5.96354 0.85427,0.87649 1.57363,1.01664 2.31096,0.45022 z m 71.35476,-2.27688 c 0.003,-0.17973 0.0827,-0.16277 0.24214,0.0512 0.19917,0.26739 0.37503,0.21205 1.07209,-0.33738 0.45863,-0.36148 1.14417,-0.82029 1.52344,-1.01957 0.95734,-0.503 3.35713,-1.0045 4.80679,-1.0045 0.88619,0 1.21267,-0.0833 1.21267,-0.30918 0,-0.72977 -4.87086,-0.61697 -7.98357,0.18487 -1.15101,0.29651 -2.90281,1.41516 -2.90281,1.85368 0,0.0957 0.17904,0.32602 0.39785,0.51175 0.47385,0.40223 1.6259,0.45101 1.6314,0.069 z m -63.70843,-2.70995 c 0.33889,-0.31787 0.37285,-0.51883 0.16581,-0.98106 -0.39358,-0.87875 -0.35187,-1.00054 0.92111,-2.68947 1.17358,-1.55704 1.34235,-2.11859 1.00617,-3.34769 l -0.17528,-0.64086 0.48736,0.52485 c 1.13477,1.22205 1.15657,2.8877 0.0648,4.94996 -0.28007,0.52902 -0.47145,0.99392 -0.42529,1.0331 0.0462,0.0391 1.16468,-0.53871 2.4856,-1.28421 1.32089,-0.7455 3.38405,-1.88059 4.58476,-2.5224 2.10333,-1.12431 2.57925,-1.51934 1.83042,-1.51934 -0.81865,0 -0.58336,-1.02396 0.8771,-3.81705 0.52178,-0.99785 0.55768,-1.2376 0.30547,-2.03967 -0.15719,-0.49991 -0.24364,-0.94471 -0.19212,-0.98845 0.0515,-0.0438 0.38226,0.18477 0.73495,0.50782 1.04674,0.95871 1.09119,1.8534 0.25079,5.04794 -0.12533,0.47643 -0.0378,0.43992 0.77348,-0.32235 0.50314,-0.47279 1.22158,-1.29343 1.59651,-1.82367 1.3318,-1.88335 0.64302,-4.5761 -1.72931,-6.76072 -0.58979,-0.54316 -1.0039,-1.04568 -0.92021,-1.11671 0.0837,-0.0711 0.65045,0.1187 1.25946,0.42166 1.0533,0.52397 2.45118,1.97366 2.46768,2.55913 0.005,0.17287 0.0952,0.14625 0.24572,-0.0724 0.30843,-0.44797 -0.0474,-2.29616 -0.74614,-3.87623 -1.2758,-2.88465 -3.8647,-5.24261 -7.44246,-6.77854 -2.36246,-1.01419 -4.82697,-1.21938 -6.41033,-0.53372 -1.58875,0.68801 -2.12148,2.31311 -0.96985,2.95858 0.69431,0.38916 1.38159,0.058 0.90061,-0.4339 -0.27835,-0.2847 -0.26566,-0.33873 0.0797,-0.33873 0.52704,0 0.55162,0.92264 0.0343,1.28709 -0.54741,0.38564 -1.61648,0.0829 -1.95868,-0.55457 -0.21799,-0.40612 -0.22061,-0.77383 -0.0105,-1.44277 0.15527,-0.49376 0.23037,-0.94182 0.16692,-0.99569 -0.0635,-0.0538 -0.40924,0.15149 -0.76839,0.45635 -0.44525,0.37794 -0.69468,0.86816 -0.784,1.54085 -0.12073,0.90919 -0.061,1.04598 0.76193,1.7445 0.744,0.63153 1.07393,0.75796 1.97792,0.75796 0.76554,0 1.2575,-0.13757 1.67094,-0.46726 0.51057,-0.40717 0.58594,-0.41962 0.58594,-0.0968 0,0.5891 -0.71418,1.60283 -1.32454,1.88012 -1.12245,0.50991 -2.70591,0.20856 -3.95119,-0.75196 l -0.59208,-0.45667 -0.5472,0.5616 c -0.30096,0.30889 -0.97134,0.99258 -1.48972,1.51933 -1.70822,1.73579 -2.31883,3.19142 -2.431,5.79525 -0.18281,4.24431 0.8224,7.03351 4.00417,11.11058 1.02842,1.3178 1.94466,2.396 2.03609,2.396 0.0915,0 0.35804,-0.17988 0.59244,-0.39975 z m 22.91373,-14.49103 c 1.26238,-0.46197 3.52962,-1.8631 4.32293,-2.67152 0.43815,-0.44651 1.25828,-1.59787 1.82249,-2.55857 0.88309,-1.5037 1.0443,-1.99793 1.15851,-3.55204 0.21243,-2.89017 -1.0971,-6.59685 -2.94907,-8.3475 l -0.79569,-0.75216 0.79967,1.14298 c 2.82933,4.04399 2.87172,9.63447 0.091,11.9949 -0.67681,0.57451 -1.38146,0.6694 -1.38146,0.18605 0,-0.41714 -0.22886,-0.40765 -0.80288,0.0333 -0.25464,0.19561 -0.46297,0.5794 -0.46297,0.85285 0,0.35368 -0.10964,0.46151 -0.37977,0.37352 -0.23035,-0.075 -0.37975,-0.39998 -0.37975,-0.826 0,-1.1065 -0.28712,-2.053 -0.57668,-1.90109 -0.47415,0.24874 0.0222,-1.4701 0.56666,-1.96196 0.62121,-0.5613 0.63705,-0.67592 0.11679,-0.84539 -0.25133,-0.0818 -0.69689,0.12223 -1.20103,0.55015 -1.23493,1.04826 -3.27646,1.74961 -5.15723,1.77173 -0.87754,0.0103 -1.59583,0.0761 -1.59618,0.14629 -2.5e-4,0.0702 0.21786,0.66658 0.48487,1.3254 0.26705,0.65882 0.56697,1.75114 0.6665,2.42739 0.14616,0.99301 0.22928,1.15146 0.43206,0.82363 0.59299,-0.95865 1.69202,-1.21588 2.51003,-0.5875 0.52578,0.40389 0.61318,1.365 0.15918,1.75037 -0.47573,0.40383 -1.39266,0.31203 -1.53617,-0.15379 -0.15169,-0.49244 0.2453,-0.88887 0.73156,-0.73049 0.19189,0.0626 0.3489,0.017 0.3489,-0.10126 0,-0.42793 -0.7824,-0.45634 -1.26585,-0.0459 -0.6815,0.57848 -0.24594,1.5481 0.8773,1.95298 0.59796,0.21553 2.43579,0.0552 3.39632,-0.29631 z m 4.69793,-5.6861 c 1.6051,-2.07268 1.53341,-5.92024 -0.17521,-9.40196 -1.17058,-2.38533 -4.53011,-5.59573 -7.17954,-6.86085 -1.77362,-0.84691 -4.07702,-1.29205 -5.58501,-1.07934 l -1.2218,0.17235 1.77219,0.1782 c 3.01739,0.30341 6.20456,1.95661 7.9443,4.12075 0.85904,1.06858 1.8028,3.14851 1.8028,3.97314 0,0.69856 0.7374,1.72018 0.75147,1.0411 0.009,-0.45496 0.51438,-0.27184 0.51438,0.18654 0,0.17033 -0.18638,0.30967 -0.41416,0.30967 -0.34828,0 -0.38803,0.16192 -0.24985,1.01765 0.19153,1.1861 1.02621,2.09866 1.42799,1.56118 0.14665,-0.19621 0.24247,-0.2214 0.24484,-0.0644 0.002,0.14187 -0.1955,0.35296 -0.43919,0.46907 -0.42195,0.20107 -0.42195,0.21804 0,0.35603 0.24369,0.0797 0.61395,0.0893 0.82281,0.0212 0.22621,-0.0737 0.37976,-0.002 0.37976,0.17743 0,0.48116 -0.96888,0.61878 -1.658,0.2355 -0.84348,-0.46913 -0.84989,0.0366 -0.0105,0.80573 0.83966,0.76906 1.02225,1.65083 0.54332,2.62382 -0.46479,0.94422 -0.46761,0.96308 -0.14455,0.96308 0.13728,0 0.53042,-0.36265 0.87367,-0.80588 z m -30.68097,-0.49171 c 0.68157,-0.48863 0.87783,-1.13593 0.49808,-1.64281 -0.11882,-0.15859 -0.56108,0.32615 -1.17641,1.2894 -0.64976,1.01718 -0.82093,1.42572 -0.50195,1.19804 0.26624,-0.19003 0.79736,-0.57012 1.18028,-0.84463 z m 23.11599,-2.54617 c 2.25208,-0.8683 3.8707,-3.36892 3.54272,-5.47317 -0.31355,-2.01135 -1.91228,-4.36197 -3.66997,-5.39593 -0.96934,-0.57021 -2.31612,-0.82441 -1.46524,-0.27656 0.71259,0.4588 1.20135,1.4745 0.92244,1.91687 -0.40439,0.64139 -1.00142,0.49683 -0.83663,-0.20259 0.14382,-0.61039 -0.30188,-1.12784 -1.2043,-1.39818 -0.62375,-0.18686 -0.74233,0.0475 -0.30849,0.60944 0.57337,0.74282 0.36798,1.49211 -0.40898,1.49211 -0.39774,0 -0.66083,-0.13818 -0.71464,-0.37532 -0.0604,-0.26638 0.0305,-0.33768 0.31299,-0.24564 0.25778,0.084 0.39815,0.0109 0.39815,-0.20728 0,-1.07944 -3.28859,-1.89735 -5.82772,-1.44943 -3.88711,0.68572 -7.90149,3.39815 -9.85631,6.65968 l -0.56556,0.94357 0.59297,-0.14612 c 3.33872,-0.82282 5.46067,-0.65797 8.55344,0.66446 1.05225,0.44993 2.00164,0.85114 2.1098,0.89159 0.10811,0.0405 0.12389,-0.31229 0.0351,-0.78384 -0.44905,-2.38377 2.17981,-4.75291 5.28736,-4.76499 0.66832,-0.003 1.53767,0.13687 1.9319,0.30992 2.35832,1.03518 2.97516,3.82283 1.16529,5.26611 -1.21632,0.96994 -3.96597,0.7286 -4.68458,-0.41119 -0.47846,-0.75888 -0.30991,-1.92378 0.36073,-2.49305 0.71698,-0.60859 1.14723,-0.65121 2.14639,-0.21263 0.84934,0.37282 1.08543,1.00003 0.79153,2.10279 -0.25109,0.94213 -0.005,1.02846 0.71577,0.2509 0.73805,-0.79643 0.86336,-1.28712 0.54069,-2.11706 -0.51552,-1.32592 -2.37685,-1.81167 -4.14459,-1.08164 -1.14271,0.47191 -1.70511,1.24331 -1.84193,2.52644 -0.30116,2.82426 2.94283,4.62637 6.1217,3.40074 z m 5.12524,-0.92706 c 0.33319,-0.28282 0.39261,-1.26549 0.12736,-2.10605 -0.15386,-0.48752 -0.19878,-0.44774 -0.48525,0.42981 -0.17363,0.53188 -0.39388,1.18465 -0.48946,1.45059 -0.19416,0.54032 0.31645,0.6763 0.84735,0.22565 z m 4.53638,-16.48834 c 0.61044,-0.67 0.39385,-1.09066 -0.56158,-1.09066 -0.83988,0 -0.88612,0.0383 -0.88612,0.73459 0,0.40402 -0.0799,0.91146 -0.17769,1.12765 -0.16839,0.3725 -0.13857,0.37145 0.56964,-0.02 0.41103,-0.22719 0.88611,-0.56541 1.05575,-0.75157 z m -2.4462,0.44714 c 0.3983,-0.27378 0.52184,-0.51748 0.39951,-0.7881 -0.135,-0.29859 -0.2474,-0.3321 -0.47262,-0.14092 -0.41454,0.35188 -0.71249,0.31234 -0.53896,-0.0715 0.19788,-0.43773 -1.14471,-0.42898 -3.52944,0.023 -2.73255,0.51789 -2.70954,0.65664 0.20318,1.22517 1.35875,0.26522 3.37681,0.13833 3.93833,-0.24763 z"
       id="path1072"
       inkscape:export-filename="path1072.svg"
       inkscape:export-xdpi="135.13351"
       inkscape:export-ydpi="135.13351" /></g></svg>
