<?xml version="1.0" encoding="UTF-8" standalone="no"?>
<!-- Created with Inkscape (http://www.inkscape.org/) -->

<svg
   width="485.99997"
   height="699.57776"
   viewBox="0 0 128.58749 185.09661"
   version="1.1"
   id="svg5"
   xml:space="preserve"
   xmlns="http://www.w3.org/2000/svg"
   xmlns:svg="http://www.w3.org/2000/svg"><defs
     id="defs2" /><g
     id="layer1"
     transform="translate(-115.99457,-16.911244)"><path
       style="fill:#ffd42a;fill-opacity:1;stroke-width:0.260804"
       d="M 115.99457,109.45956 V 16.911244 h 64.29375 64.29374 v 92.548316 92.54831 h -64.29374 -64.29375 z m 127.26458,0 V 18.196636 h -62.97083 -62.97083 v 91.262924 91.26292 h 62.97083 62.97083 z m -51.99062,90.11293 c 0.14552,-0.0693 1.81239,-0.29359 3.70416,-0.49822 1.89177,-0.20461 3.94533,-0.54851 4.56345,-0.76422 l 1.12387,-0.39221 0.40428,0.75964 0.40428,0.7596 -2.1896,9.8e-4 c -1.20429,7.8e-4 -3.55883,0.0596 -5.23232,0.13078 -1.67349,0.0713 -2.92365,0.0728 -2.77812,0.003 z m 11.93058,-0.7781 c 0.23837,-0.35348 0.46554,-0.64271 0.50483,-0.64271 0.0393,0 0.26647,0.28923 0.50484,0.64271 l 0.4334,0.64269 h -0.93824 -0.93824 z m 2.23984,0.0179 c -0.52168,-0.61076 -0.39902,-1.87325 0.27549,-2.83555 0.81484,-1.1625 1.15241,-1.17227 0.58539,-0.0168 -0.35918,0.73183 -0.38108,1.01488 -0.12142,1.56862 0.26129,0.55721 0.38528,0.62049 0.70713,0.36094 0.21465,-0.17308 0.39028,-0.71118 0.39028,-1.19577 0,-2.21593 -1.8585,-3.42219 -4.36563,-2.83355 -0.74657,0.17528 -0.76322,0.16319 -0.28016,-0.2032 0.78747,-0.5973 2.56598,-0.49103 3.6406,0.21755 0.84383,0.55639 0.98104,0.57639 1.64272,0.23955 0.39709,-0.20216 1.45789,-0.44643 2.35733,-0.54284 l 1.63534,-0.17527 0.15516,-1.28542 c 0.1923,-1.59311 0.51619,-2.36575 1.43783,-3.43 1.01176,-1.16831 1.98545,-1.58303 3.71667,-1.58303 1.38466,0 1.57681,0.075 2.50952,0.9814 1.19724,1.16328 1.48516,2.0608 1.08128,3.37059 -0.21228,0.68845 -0.56388,1.103 -1.232,1.4526 -0.85623,0.44804 -0.99565,0.45614 -1.65587,0.096 -0.39651,-0.21622 -0.72092,-0.56225 -0.72092,-0.76892 0,-0.52516 1.15296,-0.64171 1.35241,-0.13669 0.0877,0.222 0.36635,0.40364 0.61926,0.40364 0.73603,0 1.33562,-0.85737 1.33562,-1.90977 0,-0.75981 -0.19458,-1.15859 -0.89958,-1.84359 -0.77666,-0.75462 -1.07558,-0.87407 -2.18754,-0.87407 -2.35374,0 -4.32121,2.06755 -4.32121,4.54101 0,0.96032 0.0777,1.07068 1.05574,1.4992 0.58065,0.25442 1.53134,0.92929 2.11263,1.49974 1.18898,1.16681 1.2727,1.607 0.10222,0.53742 -0.74729,-0.68285 -2.76286,-1.71526 -2.9651,-1.51877 -0.24933,0.24226 1.00477,1.85897 2.0333,2.6212 1.40002,1.03753 2.94626,1.45721 4.71895,1.28077 2.62802,-0.26158 4.45021,-1.42907 5.84831,-3.74708 0.5465,-0.9061 0.7103,-1.57122 0.80117,-3.25342 0.14088,-2.60806 -0.2971,-4.03436 -1.94121,-6.32156 -1.76422,-2.45433 -1.51639,-3.26236 0.55114,-1.79702 2.21434,1.56945 3.77321,2.17 5.95067,2.29247 3.5395,0.19909 6.26218,-1.13635 7.55619,-3.70618 1.28228,-2.54655 1.14227,-5.23908 -0.38605,-7.42441 -0.70668,-1.01046 -2.49104,-2.20105 -2.81987,-1.88155 -0.26615,0.25859 0.6371,1.79388 1.67413,2.8456 1.33455,1.35343 0.81898,1.20311 -0.74325,-0.21671 -0.71454,-0.64943 -1.43305,-1.57492 -1.59668,-2.05664 -0.27934,-0.82238 -0.36958,-0.87586 -1.47814,-0.87586 -2.54887,0 -4.59915,1.87174 -4.59915,4.19864 0,1.08041 0.12293,1.37088 0.89958,2.12551 0.71902,0.69861 1.1091,0.87406 1.94337,0.87406 1.67506,0 2.47462,-1.23178 1.40822,-2.16949 -0.53078,-0.46671 -0.46953,-1.17255 0.10175,-1.17255 0.49501,0 1.20333,0.87043 1.20333,1.47872 0,0.84407 -1.23724,2.08146 -2.26932,2.2696 -2.98736,0.54454 -5.20194,-3.09339 -3.61566,-5.93953 0.82494,-1.48013 2.97866,-2.69328 4.7814,-2.69328 h 1.03008 l 0.14268,-1.52888 c 0.0785,-0.84088 0.32969,-1.89311 0.55826,-2.33828 0.39629,-0.77186 0.38523,-0.85282 -0.23822,-1.74429 -1.05809,-1.51294 -0.71591,-3.95147 0.65446,-4.66406 1.01025,-0.52534 3.45423,-0.18002 3.45423,0.48807 0,0.43598 -0.8481,0.52478 -1.40328,0.14694 -1.77958,-1.21112 -3.59555,0.57421 -2.84167,2.7937 0.48495,1.42772 0.91678,1.61906 1.87878,0.83257 1.39167,-1.13777 3.10901,-1.20879 3.69076,-0.15261 0.80561,1.46258 -1.50028,2.42609 -4.21157,1.75974 -0.49037,-0.1205 -1.12121,1.87871 -1.02298,3.242 0.0665,0.92338 0.16128,1.04431 0.99955,1.27592 1.32885,0.36713 3.84515,2.8379 4.20711,4.13098 1.12326,4.01275 -0.72174,7.82453 -4.73628,9.78517 -1.81388,0.88587 -4.68497,1.10924 -6.87881,0.53521 -0.80017,-0.2094 -1.49632,-0.3404 -1.54699,-0.29118 -0.0507,0.0493 0.39564,0.33133 0.99183,0.62685 0.71229,0.35309 1.08397,0.71014 1.08397,1.04135 0,0.48091 0.1512,0.55566 1.71979,0.85029 0.48489,0.091 0.47471,0.12093 -0.12164,0.35699 -0.61332,0.24274 -0.55997,0.29107 0.92604,0.83865 2.15721,0.79497 4.64314,0.82746 6.10304,0.0798 1.28449,-0.65784 1.90132,-1.77897 1.43978,-2.61688 -0.37682,-0.68416 -0.80083,-0.70014 -0.61867,-0.0232 0.18352,0.68189 -0.59817,0.69625 -0.97184,0.018 -0.20635,-0.37461 -0.17156,-0.59522 0.14188,-0.89974 0.5972,-0.58028 1.3629,-0.49767 2.10927,0.22751 1.35032,1.31202 0.50997,3.6304 -1.65286,4.55997 -1.68357,0.7236 -3.81156,0.50255 -6.15378,-0.63929 l -1.73038,-0.84355 0.91046,1.76252 c 1.56626,3.03201 1.41252,5.81846 -0.40666,7.37043 -0.90921,0.77566 -2.09776,1.01215 -3.13778,0.6244 -0.70518,-0.26293 -1.26704,-1.55647 -0.93662,-2.15634 0.3344,-0.60712 1.46122,-0.685 1.68574,-0.11649 0.17042,0.43149 -0.4317,0.78162 -0.8806,0.51202 -0.15249,-0.0915 -0.27725,-0.048 -0.27725,0.0967 0,0.34186 0.87975,0.79547 1.5427,0.79547 0.28553,0 0.88062,-0.40002 1.32242,-0.88894 1.33574,-1.47818 1.41085,-4.12372 0.1972,-6.946 -0.40452,-0.94068 -0.44571,-0.96606 -0.8098,-0.49856 -0.36227,0.46518 -0.38408,0.44897 -0.39203,-0.29148 -0.009,-0.87097 -0.41779,-1.40109 -1.07948,-1.40109 -0.25368,0 -0.63808,-0.4353 -0.91907,-1.04075 -0.65707,-1.41578 -1.00897,-1.55889 -0.46913,-0.19076 0.29244,0.74114 0.44155,1.94632 0.45452,3.67374 0.0184,2.45578 -0.0212,2.64341 -0.88574,4.19364 -1.72025,3.08453 -4.29138,4.67558 -7.55573,4.67558 -2.78356,0 -5.69807,-1.91877 -6.49982,-4.27918 -0.27436,-0.80776 -0.36799,-0.86239 -1.47815,-0.86239 -0.65188,0 -1.70478,0.12712 -2.33977,0.28248 l -1.15454,0.28246 0.35434,0.97583 c 0.37803,1.04103 0.19258,2.52582 -0.40248,3.22248 -0.412,0.48236 -1.42267,0.48816 -1.83064,0.009 z m 33.66004,-32.76361 c 0.76475,-0.74306 -1.3819,-1.13081 -2.33771,-0.42225 -0.44604,0.33067 -0.46139,0.41641 -0.11672,0.65201 0.4414,0.30172 2.06373,0.14986 2.45443,-0.22976 z m -5.1809,30.95345 c 0.17746,-2.44329 -0.18086,-3.7584 -1.56044,-5.72722 -0.42107,-0.60091 -0.70631,-1.09256 -0.63385,-1.09256 0.0725,0 0.68209,0.36088 1.35474,0.80196 2.0818,1.36516 4.43705,1.82295 6.46752,1.25714 1.04637,-0.29159 1.46476,-0.043 1.21502,0.72138 -0.41873,1.28187 -3.1207,1.22853 -5.66162,-0.11174 l -1.67739,-0.88478 0.55725,0.76036 c 0.96919,1.32251 1.59509,2.94357 1.6011,4.14683 0.007,1.3079 -0.56467,2.30664 -1.31923,2.30664 -0.46499,0 -0.48983,-0.15768 -0.3431,-2.17797 z m 3.72614,1.98601 c -0.43744,-0.0962 -0.99503,-1.4665 -0.99819,-2.45336 -7.9e-4,-0.25308 -0.24202,-0.91827 -0.53602,-1.47821 -0.56724,-1.08035 -0.45347,-1.2502 0.4332,-0.64677 0.30006,0.20421 1.18975,0.45109 1.9771,0.54861 0.78734,0.0975 1.63989,0.28157 1.89456,0.40899 0.51134,0.25585 0.62357,1.11516 0.1804,1.38127 -0.15545,0.0934 -0.2154,0.33993 -0.13324,0.54795 0.25027,0.63371 -0.34803,1.4099 -1.02074,1.32425 -0.33357,-0.0425 -0.77188,0.0453 -0.97401,0.19502 -0.20214,0.14977 -0.57251,0.22727 -0.82306,0.17225 z m 1.06408,-2.17316 c 0.17463,-0.16971 0.3175,-0.3984 0.3175,-0.50825 0,-0.25427 -1.00986,-0.87685 -1.7888,-1.10282 -0.56816,-0.16479 -0.58216,-0.13709 -0.27901,0.55168 0.6142,1.39556 1.10106,1.6902 1.75031,1.05939 z m -81.95949,1.40105 c 0.0115,-0.26368 0.76232,-1.21044 0.85156,-1.07381 0.0394,0.0604 0.29725,0.37007 0.57291,0.6882 l 0.50121,0.57843 h -0.96705 c -0.53188,0 -0.96326,-0.0867 -0.95863,-0.19282 z m 3.37733,-0.58713 c 0.34385,-0.59502 0.57618,-0.7416 0.97988,-0.61827 2.02712,0.6193 3.54104,0.89145 6.08541,1.09392 2.90112,0.2309 2.89376,0.23176 -2.30279,0.26797 l -5.21322,0.0365 z m -33.87463,0.0824 c -1.00446,-1.0829 -0.76071,-3.37769 0.58438,-5.50172 l 0.75762,-1.19639 -1.71765,0.86992 c -2.09833,1.0627 -4.23816,1.2114 -5.1188,0.35575 -0.29104,-0.28281 -0.52916,-0.70214 -0.52916,-0.93192 0,-0.33628 0.16769,-0.38318 0.85989,-0.24047 2.02673,0.41775 2.57186,0.43918 3.97434,0.15629 0.86975,-0.17543 2.15082,-0.71964 3.10566,-1.31926 1.64172,-1.03102 1.70662,-0.98921 0.63254,0.40726 -0.32625,0.42418 -0.85279,1.40751 -1.17009,2.18518 -0.55545,1.36135 -0.59556,2.35767 -0.20143,5.00319 0.0994,0.66731 -0.63272,0.79928 -1.1773,0.21217 z m 13.82013,0.079 c -1.96145,-0.71785 -2.27951,-0.89885 -3.26943,-1.86059 -2.46953,-2.39924 -3.41364,-5.47659 -2.69518,-8.78503 0.22464,-1.03442 0.53167,-2.10451 0.68229,-2.37798 0.15062,-0.27345 0.21757,-0.49719 0.14877,-0.49719 -0.0688,0 -0.44909,0.57843 -0.84511,1.28539 -0.45355,0.80968 -0.89685,1.2854 -1.19783,1.2854 -0.54294,0 -1.013,0.71039 -1.05196,1.58984 -0.026,0.58779 -0.0289,0.58718 -0.22905,-0.0474 -0.19273,-0.61117 -0.23125,-0.58218 -0.7853,0.59059 -1.03912,2.19961 -1.15913,5.01552 -0.28164,6.60862 0.45416,0.82455 1.80794,1.38622 2.54966,1.05784 0.7256,-0.32122 0.83224,-0.76099 0.1719,-0.70893 -0.24908,0.0196 -0.49594,-0.16675 -0.54857,-0.41419 -0.0743,-0.3493 0.0821,-0.44987 0.69964,-0.44987 1.42224,0 1.44467,1.73506 0.0316,2.44504 -0.99793,0.50142 -1.72132,0.48334 -2.68382,-0.0671 -2.38762,-1.36542 -2.63648,-5.04933 -0.57228,-8.47172 l 0.65574,-1.08719 -1.54128,0.76463 c -3.84102,1.90556 -7.33478,1.39679 -8.46555,-1.23273 -0.65526,-1.52379 0.22972,-3.14829 1.7151,-3.14829 0.70752,0 1.18831,0.63493 0.97508,1.28769 -0.21264,0.65097 -1.0758,0.57554 -1.01867,-0.0891 0.0624,-0.72554 -0.5596,-0.32862 -0.65054,0.41518 -0.11991,0.98081 0.3518,1.65451 1.58726,2.2669 1.42006,0.70394 4.51217,0.60681 6.30041,-0.19784 1.17812,-0.53015 1.18368,-0.53861 0.52916,-0.80766 l -0.66146,-0.27187 0.70597,-0.0162 c 1.06422,-0.0245 1.54299,-0.27582 1.54299,-0.80979 0,-0.30475 0.39782,-0.67865 1.08397,-1.01874 0.59619,-0.29552 1.04169,-0.57841 0.99001,-0.62864 -0.0517,-0.0502 -0.80736,0.0717 -1.67929,0.271 -2.99205,0.68381 -5.39453,0.28966 -7.9622,-1.30629 -3.40806,-2.11827 -4.78985,-6.883 -2.90322,-10.01097 0.87412,-1.44929 2.64354,-2.91445 3.76691,-3.11922 0.87913,-0.16025 0.88299,-0.1674 0.88299,-1.63648 0,-0.81148 -0.13417,-1.84945 -0.29816,-2.30652 -0.24975,-0.69609 -0.38938,-0.79974 -0.8599,-0.63814 -1.01226,0.34766 -2.70032,0.23647 -3.42625,-0.2257 -0.75305,-0.47941 -0.93836,-1.39659 -0.38986,-1.92952 0.70026,-0.68042 3.03503,-0.18285 3.90136,0.83141 0.47622,0.55753 0.62748,0.51219 1.14806,-0.34407 0.68482,-1.12644 0.59493,-2.73884 -0.19551,-3.50686 -0.74177,-0.72072 -1.06835,-0.76085 -1.99641,-0.24539 -0.85141,0.47292 -1.5875,0.48456 -1.5875,0.0252 0,-0.47081 1.37289,-0.92759 2.30802,-0.76793 0.40408,0.0689 1.09188,0.46902 1.52844,0.88895 1.0738,1.03289 1.12585,2.82472 0.1189,4.09342 -0.67188,0.84654 -0.67276,0.85437 -0.20026,1.78227 0.26101,0.51261 0.50516,1.52463 0.54255,2.24893 l 0.068,1.31697 1.32292,0.17047 c 4.58448,0.59081 6.75457,5.21486 3.6788,7.83881 -1.86446,1.59058 -4.83805,0.72567 -4.86101,-1.41393 -0.009,-0.88393 0.39759,-1.40109 1.10283,-1.40109 0.63454,0 0.60545,0.66878 -0.0529,1.21651 -0.68368,0.56878 -0.66706,0.8817 0.0832,1.56655 1.55181,1.4165 4.41472,-0.30492 4.41472,-2.65451 0,-1.94 -2.70589,-4.2418 -4.98648,-4.2418 -0.61908,0 -0.83986,0.16352 -1.12553,0.83362 -0.40847,0.95815 -1.91749,2.65925 -2.72871,3.07607 -0.34591,0.17769 -0.2189,-0.0431 0.3402,-0.59193 0.85173,-0.83582 1.97987,-2.79804 1.74171,-3.02942 -0.0621,-0.0604 -0.66663,0.22607 -1.3434,0.63647 -1.85386,1.12425 -2.7457,2.91344 -2.7457,5.50837 0,2.68433 0.84791,4.33857 2.92032,5.6974 3.11986,2.04562 6.55831,1.99162 10.04425,-0.15773 2.34629,-1.44664 2.62029,-1.56028 2.96195,-1.22832 0.22594,0.21955 0.0219,0.68088 -0.81236,1.83642 -2.11998,2.9365 -2.75216,5.29362 -2.16136,8.05875 0.66579,3.11617 3.06684,5.24429 6.28803,5.57329 2.05809,0.2102 3.19102,-0.0203 4.74406,-0.96459 1.11658,-0.67904 2.69651,-2.68176 2.23382,-2.83162 -0.42773,-0.13855 -1.95612,0.72742 -3.00153,1.70057 -0.5457,0.508 -0.99219,0.80029 -0.99219,0.64956 0,-0.49119 2.52344,-2.58184 3.55285,-2.94353 l 1.00368,-0.35265 -0.15234,-1.2498 c -0.45303,-3.71661 -4.24734,-5.75939 -6.54712,-3.52484 -0.95102,0.92403 -1.2278,1.96799 -0.74202,2.79868 0.64256,1.09878 1.18505,1.26376 1.92743,0.58609 0.70117,-0.64001 1.2221,-0.54793 1.2221,0.21601 0,1.00406 -2.09304,1.087 -3.08591,0.12231 -0.60825,-0.59103 -0.66756,-0.81416 -0.5579,-2.099 0.10631,-1.24562 0.24843,-1.54964 1.06371,-2.2756 1.58988,-1.4157 4.1545,-1.3846 5.8092,0.0705 0.87062,0.76553 1.82245,2.6479 1.97603,3.90784 l 0.15244,1.25065 1.33032,0.15309 c 0.73167,0.0841 1.77292,0.36587 2.31389,0.62592 0.97825,0.47028 0.98745,0.46961 1.6942,-0.12108 0.54716,-0.45729 1.02673,-0.59296 2.08492,-0.58994 0.75587,0.002 1.55291,0.11705 1.77119,0.25534 0.27312,0.17299 0.017,0.20256 -0.82139,0.0947 -0.87721,-0.11277 -1.4883,-0.0322 -2.18282,0.2881 -1.04142,0.4802 -1.20372,0.90155 -0.55022,1.42853 0.59105,0.47662 1.17318,1.65537 1.17318,2.37558 0,0.854 -0.87188,1.56776 -1.67564,1.37172 -1.11488,-0.27188 -1.55334,-2.35852 -0.85018,-4.04597 0.18624,-0.44694 -0.57871,-0.83504 -2.17054,-1.10122 -1.53461,-0.25662 -2.32281,0.0512 -2.69567,1.05318 -0.4905,1.31798 -2.0699,2.89552 -3.58818,3.58397 -1.50986,0.68459 -3.67472,0.78671 -5.15938,0.24338 z m 15.03683,-1.80339 c 0.0872,-0.74105 -0.39178,-1.94841 -0.77301,-1.94841 -0.31769,0 -0.54914,1.4125 -0.35475,2.16502 0.23932,0.92648 1.01065,0.77833 1.12776,-0.21661 z M 124.83959,165.0178 c 0.2485,-0.39071 -0.65082,-0.90321 -1.58488,-0.90321 -1.03491,0 -1.30198,0.18105 -1.08342,0.73443 0.17266,0.4372 2.40765,0.57852 2.6683,0.16878 z m -2.23043,32.59197 c 0,-0.17193 -0.25035,-0.22389 -0.63119,-0.13103 -0.75961,0.18526 -1.34425,-0.38335 -1.14715,-1.11568 0.0749,-0.27835 -0.0301,-0.64017 -0.23335,-0.80408 -0.84057,-0.67782 -0.0402,-1.41092 1.80638,-1.65448 0.76776,-0.10131 1.83871,-0.40228 2.37989,-0.6689 l 0.98396,-0.48474 -0.51962,0.85572 c -0.28579,0.47062 -0.59625,1.42556 -0.68989,2.12203 -0.0936,0.69648 -0.27702,1.4688 -0.4075,1.71623 -0.25845,0.49011 -1.54153,0.6274 -1.54153,0.16493 z m 1.49976,-2.73375 0.57373,-1.05319 -0.83831,0.27369 c -1.1149,0.364 -1.49977,0.68155 -1.49977,1.23747 0,0.46362 0.4338,0.77129 0.92605,0.65677 0.14552,-0.0338 0.52275,-0.53547 0.8383,-1.11474 z m 77.37195,2.2091 c -0.36205,-1.0091 -0.37325,-1.93822 -0.0259,-2.14679 0.14552,-0.0873 0.26459,0.0833 0.26459,0.3795 0,0.29608 0.19168,0.8226 0.42596,1.17002 0.42132,0.62477 0.35061,1.40688 -0.12719,1.40688 -0.13586,0 -0.37772,-0.36432 -0.53747,-0.80961 z m -42.61489,-0.46586 c -0.33063,-0.20244 -0.29552,-0.3974 0.23749,-1.31885 0.50386,-0.87107 0.56643,-1.17316 0.32182,-1.55372 -0.43666,-0.67939 -0.37443,-0.92568 0.0848,-0.33572 0.82897,1.06491 0.28448,3.7769 -0.64413,3.20829 z m 80.9952,-33.3907 -0.61985,-0.46325 0.68599,-0.43673 0.68599,-0.43673 v 0.90572 c 0,0.49812 -0.0298,0.90311 -0.0661,0.89995 -0.0364,-0.002 -0.34508,-0.21417 -0.68599,-0.46896 z m -119.36869,-1.45339 c 0,-1.02435 0.14032,-1.07996 1.03621,-0.4108 l 0.63934,0.47755 -0.57319,0.17675 c -0.31526,0.0973 -0.57319,0.28466 -0.57319,0.41652 0,0.13186 -0.11907,0.23973 -0.26459,0.23973 -0.14552,0 -0.26458,-0.4049 -0.26458,-0.89975 z m 119.29224,-1.48744 c -0.67772,-0.55402 -0.68613,-0.59661 -0.3153,-1.59751 0.20954,-0.56556 0.53767,-2.87928 0.72918,-5.14157 l 0.34819,-4.11326 0.0333,5.71999 c 0.0183,3.146 0.003,5.71586 -0.0329,5.71077 -0.0364,-0.004 -0.37948,-0.26538 -0.76244,-0.57842 z m -119.29224,-5.18889 c 0,-2.62004 0.10097,-4.76367 0.22438,-4.76367 0.1234,0 0.30063,1.21095 0.39383,2.69099 0.15478,2.458 0.44989,4.33412 0.83521,5.30975 0.0905,0.22916 -0.16413,0.60038 -0.65249,0.95121 l -0.80093,0.57534 z m -1.01386,-90.692213 c -0.0245,-3.075303 0.0448,-5.588887 0.15397,-5.585744 0.10914,0.0031 0.4642,0.205596 0.78903,0.449889 0.57188,0.4301 0.57822,0.483994 0.19989,1.701447 -0.33459,1.076715 -0.60464,3.212812 -1.01106,7.997554 -0.048,0.565574 -0.10736,-1.487842 -0.13183,-4.563146 z m 122.3576,1.542472 c -0.0682,-0.459527 -0.2431,-1.820491 -0.38869,-3.024363 -0.14559,-1.203872 -0.43156,-2.659436 -0.6355,-3.234582 -0.36666,-1.034035 -0.36245,-1.050378 0.3767,-1.462554 0.72374,-0.403591 0.74765,-0.398835 0.75244,0.149635 0.003,0.311559 0.0796,2.330673 0.17078,4.486921 0.0912,2.156247 0.0944,3.920449 0.007,3.920449 -0.0873,0 -0.21459,-0.375978 -0.28278,-0.835506 z M 121.88155,58.807052 c -0.67135,-0.262201 -0.81188,-1.020304 -0.18913,-1.020304 0.22341,0 0.69988,0.186973 1.05883,0.415496 0.36101,0.229837 0.94798,0.360639 1.31361,0.29273 0.72828,-0.135272 0.90615,0.173663 0.24245,0.421123 -0.58433,0.217869 -1.71934,0.166845 -2.42576,-0.109043 z m 3.36413,-1.260482 c 0.43347,-0.786973 0.31862,-2.127646 -0.26147,-3.052115 l -0.53339,-0.85005 -0.98112,0.78578 c -1.67509,1.341591 -4.07321,0.962584 -3.67456,-0.580743 0.0855,-0.331082 0.46161,-0.737481 0.83575,-0.903115 0.83142,-0.368074 2.63043,-0.392867 3.29853,-0.04544 0.41691,0.216792 0.53301,0.128787 0.7631,-0.578427 0.44367,-1.363668 0.62402,-2.682952 0.44267,-3.238138 -0.0975,-0.298384 -0.57871,-0.651663 -1.12735,-0.827596 -1.10832,-0.355405 -3.11276,-2.061814 -3.68508,-3.137158 -1.09182,-2.051468 -0.87535,-5.145955 0.52206,-7.462819 2.11426,-3.505379 7.22205,-4.925646 12.21538,-3.396594 0.29104,0.08912 -0.005,-0.121331 -0.6584,-0.467676 -0.73915,-0.391941 -1.24262,-0.858615 -1.33337,-1.235919 -0.11588,-0.481795 -0.34727,-0.622577 -1.12754,-0.68599 -1.04359,-0.08482 -1.38302,-0.562908 -0.39965,-0.562908 0.9079,0 0.26663,-0.412816 -1.56592,-1.008057 -0.90492,-0.293928 -2.21461,-0.531875 -2.91042,-0.52877 -1.47409,0.0069 -3.34713,0.753375 -3.75731,1.498069 -0.55314,1.004232 -0.20145,2.352466 0.61365,2.352466 0.14699,0 0.12347,-0.137108 -0.0529,-0.308497 -0.46286,-0.449726 -0.38929,-0.719818 0.19605,-0.719818 1.10901,0 0.9802,1.401659 -0.14806,1.61122 -0.91975,0.170837 -1.93121,-0.722324 -2.11575,-1.868298 -0.2983,-1.852369 1.78103,-3.599101 4.2844,-3.599101 1.40942,0 3.92679,0.714526 4.93517,1.400791 0.93011,0.632992 1.00467,0.476226 0.33072,-0.695398 -2.24669,-3.905744 -1.48525,-8.110779 1.55549,-8.590228 1.84933,-0.291593 3.40175,1.011225 2.627,2.204624 -0.37791,0.582123 -1.50038,0.530413 -1.62031,-0.07465 -0.0782,-0.394396 0.0276,-0.461772 0.56754,-0.361486 0.97035,0.180233 0.60744,-0.492683 -0.37927,-0.703256 -2.44985,-0.522812 -3.76269,3.512559 -2.33769,7.185498 0.54137,1.395356 0.62097,1.482655 0.9515,1.04345 0.34086,-0.452935 0.36093,-0.444776 0.36476,0.148256 0.005,0.710158 0.3714,1.383048 0.78005,1.430931 0.15083,0.01768 0.39102,0.04662 0.53375,0.06427 0.14273,0.01768 0.56611,0.581641 0.94085,1.25326 0.37474,0.671618 0.5989,0.989751 0.49812,0.706966 -0.10078,-0.282787 -0.3521,-1.323957 -0.5585,-2.313708 -1.11775,-5.360133 2.27309,-10.331793 7.39709,-10.845637 3.25788,-0.326706 5.72421,0.945726 7.10134,3.663728 l 0.83839,1.654718 h 1.18976 c 0.65436,0 1.65835,-0.136417 2.23109,-0.303144 0.87358,-0.254307 1.0154,-0.388914 0.8803,-0.835507 -0.43467,-1.43682 -0.43944,-2.183782 -0.0194,-3.04378 0.53796,-1.101507 1.31389,-1.364473 2.01527,-0.682983 0.85178,0.827625 0.60987,2.194939 -0.6207,3.508214 -0.43272,0.461802 -0.47292,0.643505 -0.21036,0.950895 0.47597,0.557243 2.06438,0.998325 2.96493,0.823327 0.48349,-0.09395 0.72158,-0.05532 0.62215,0.101012 -0.3232,0.508122 -2.61527,0.281855 -3.5676,-0.352181 -0.90572,-0.603013 -0.91349,-0.603537 -1.97691,-0.134185 -0.58718,0.259161 -1.63315,0.473744 -2.32438,0.476848 -1.20646,0.0054 -1.25677,0.03523 -1.25677,0.744561 0,0.406403 -0.18093,1.237177 -0.40206,1.846166 -1.29758,3.573407 -4.98982,4.916057 -7.463,2.713844 -0.77413,-0.689316 -0.95628,-1.054159 -1.06249,-2.128171 -0.15695,-1.587016 0.21011,-2.323944 1.39767,-2.806064 1.1295,-0.458551 2.30747,-0.05171 2.18418,0.754386 -0.11083,0.724654 -0.63433,0.805936 -1.18272,0.183637 -0.62453,-0.708716 -0.99385,-0.670115 -1.67835,0.175409 -1.4757,1.822827 0.89707,4.592661 3.46484,4.044681 1.75534,-0.374602 3.66457,-2.801643 3.67779,-4.675265 0.005,-0.722004 -0.13276,-0.884326 -1.11867,-1.317272 -0.61846,-0.271586 -1.5412,-0.930641 -2.05052,-1.464569 -0.94944,-0.99531 -0.73889,-0.985043 0.66146,0.03223 0.43656,0.317143 1.13399,0.659143 1.54984,0.759997 0.72823,0.176617 0.74407,0.16078 0.42982,-0.429872 -1.25713,-2.362853 -3.06918,-3.397491 -5.98149,-3.415297 -2.58552,-0.01581 -4.56271,0.944152 -5.96687,2.897022 -2.28586,3.179109 -2.01291,6.761537 0.82522,10.830876 1.52546,2.187232 0.95058,2.471635 -1.65516,0.818835 -2.4777,-1.571583 -3.82713,-1.946275 -6.47336,-1.79743 -3.4756,0.195493 -5.8611,1.816239 -6.82548,4.637333 -0.53918,1.577297 -0.41311,4.039761 0.27818,5.433093 0.7784,1.568942 2.97696,3.404122 3.48583,2.909688 0.17044,-0.165606 -0.57752,-1.597729 -1.43451,-2.746688 -0.62021,-0.831496 -0.57795,-0.813053 0.55694,0.243036 0.67544,0.628547 1.35793,1.525111 1.51664,1.99236 0.26212,0.771701 0.38486,0.849547 1.33951,0.849547 3.60794,0 6.04565,-3.923538 3.90769,-6.289483 -0.69594,-0.770139 -0.98846,-0.907472 -1.91824,-0.900542 -1.15921,0.0085 -1.81187,0.345111 -2.0958,1.080487 -0.11455,0.29668 0.002,0.536362 0.34713,0.71601 0.55704,0.289662 0.69996,1.141445 0.23806,1.41882 -0.46166,0.277227 -1.30625,-0.676781 -1.30625,-1.475474 0,-0.960948 0.98901,-1.920934 2.20789,-2.143115 1.23869,-0.225787 2.7365,0.479918 3.56673,1.680488 0.81325,1.176028 0.7238,3.341798 -0.18951,4.588045 -0.85619,1.168303 -3.0759,2.347678 -4.4242,2.350667 l -1.08805,0.0024 -0.17371,1.436076 c -0.0955,0.789842 -0.35698,1.780432 -0.58098,2.201315 -0.38329,0.720171 -0.36741,0.842955 0.26957,2.08496 0.37227,0.725945 0.67685,1.58088 0.67685,1.899948 0,0.70861 -0.52847,1.889711 -0.84553,1.889711 -0.12728,0 -0.10817,-0.223766 0.0425,-0.497258 z m -1.8747,-3.520378 c 0.48186,-0.327934 0.53756,-0.466207 0.25731,-0.638762 -0.7798,-0.480134 -2.60663,-0.185303 -2.60663,0.420682 0,0.696586 1.44863,0.831057 2.34932,0.21808 z m 31.07637,-30.993991 c 0,-0.948456 -0.5291,-1.525978 -0.8953,-0.977239 -0.46384,0.695059 -0.54932,1.421227 -0.25564,2.171751 l 0.28952,0.739897 0.43071,-0.597481 c 0.23689,-0.328614 0.43071,-0.930232 0.43071,-1.336928 z m 82.59912,34.670482 c -0.49764,-0.362213 -0.48558,-0.374333 0.23862,-0.239823 0.47813,0.08881 1.09605,-0.03274 1.65593,-0.325685 0.68299,-0.357382 0.96617,-0.396436 1.20336,-0.165974 0.79614,0.773567 -2.10043,1.457508 -3.09791,0.731482 z M 119.43416,56.623968 v -0.905703 l 0.66146,0.421112 c 0.78612,0.500477 0.8027,0.586733 0.19843,1.032426 -0.71308,0.525953 -0.85989,0.432417 -0.85989,-0.547835 z m 116.43809,-0.0837 c -0.49904,-0.90602 -0.3368,-2.465244 0.36037,-3.463454 0.61827,-0.885224 0.62808,-0.961166 0.22548,-1.745298 -0.2315,-0.450894 -0.49261,-1.464203 -0.58024,-2.251797 l -0.15934,-1.431993 -1.19062,-0.08901 c -1.29134,-0.09656 -2.94297,-0.805375 -3.92774,-1.685657 -2.11483,-1.890437 -1.74615,-5.437002 0.6888,-6.626264 1.72786,-0.843904 4.29727,0.324641 4.29727,1.954356 0,0.679578 -0.62984,1.417959 -1.20952,1.417959 -0.50822,0 -0.49193,-1.187897 0.0189,-1.378359 0.58903,-0.219623 0.48062,-1.106276 -0.19117,-1.563467 -1.01537,-0.691028 -2.26154,-0.510709 -3.27487,0.473872 -0.77665,0.754626 -0.89958,1.045075 -0.89958,2.125491 0,2.26322 1.63513,3.854753 4.31786,4.202729 l 1.27516,0.165397 0.62252,-1.193637 c 0.5591,-1.072033 2.49647,-3.089105 2.96704,-3.089105 0.10188,0 -0.24984,0.433822 -0.78159,0.964046 -1.19108,1.187666 -2.01254,2.892136 -1.39384,2.892136 0.61138,0 2.49137,-1.769594 3.08878,-2.907404 1.95155,-3.716865 -0.25428,-8.65687 -4.38639,-9.823369 -3.14677,-0.888339 -6.13634,-0.254596 -9.26739,1.964547 -1.0699,0.758295 -1.9984,0.967147 -1.9984,0.449511 0,-0.159855 0.44028,-0.882887 0.9784,-1.60674 1.5324,-2.061301 2.18302,-3.843045 2.19032,-5.998266 0.0109,-3.229832 -1.37697,-5.731432 -3.82569,-6.895494 -2.62204,-1.246462 -5.24922,-1.114581 -7.57162,0.380084 -1.11365,0.716725 -2.70232,2.842523 -2.12431,2.842523 0.63109,0 1.67062,-0.558481 2.66615,-1.432375 0.5897,-0.517638 1.07217,-0.827845 1.07217,-0.689347 0,0.433313 -2.56596,2.606607 -3.28444,2.781816 -0.6107,0.148931 -0.68431,0.292811 -0.68431,1.33755 0,2.416675 1.97986,4.429323 4.35716,4.429323 1.07107,0 1.38201,-0.126317 2.15159,-0.874068 1.01332,-0.984582 1.1989,-2.195407 0.4877,-3.181991 -0.50987,-0.7073 -1.18189,-0.731033 -1.77098,-0.06255 -0.47255,0.536249 -1.25672,0.453675 -1.25672,-0.132335 0,-0.496515 0.75426,-1.147714 1.32937,-1.147714 1.34814,0 2.63938,1.376027 2.63938,2.812691 0,0.877394 -0.94189,2.420001 -1.76076,2.883724 -1.87617,1.062475 -3.85015,0.752703 -5.58207,-0.875982 -0.87968,-0.827248 -1.91759,-3.076457 -1.91759,-4.155546 0,-0.540009 -0.14203,-0.612663 -1.3951,-0.71363 -0.76731,-0.06183 -1.78404,-0.300935 -2.25941,-0.531352 -0.83283,-0.403684 -0.89899,-0.396068 -1.81682,0.209118 -1.40354,0.925452 -3.19507,0.876268 -4.29027,-0.117782 -0.66483,-0.603428 -0.82173,-0.950266 -0.82173,-1.816451 0,-1.609046 0.75585,-2.687682 1.16226,-1.658619 0.0883,0.223577 -0.018,0.654218 -0.23627,0.956975 -1.45378,2.016686 0.92678,3.733478 3.49553,2.520881 l 1.17739,-0.555797 -0.81126,-0.897761 c -0.95813,-1.060304 -1.25116,-1.992687 -0.91668,-2.916795 0.19877,-0.549178 0.40963,-0.670864 1.16248,-0.670864 0.8439,0 0.95155,0.0896 1.30652,1.087299 0.30311,0.85195 0.32486,1.312928 0.10048,2.129708 -0.25872,0.941788 -0.2341,1.069586 0.25498,1.323911 0.29774,0.154825 1.28881,0.339798 2.20237,0.41105 l 1.66103,0.129548 0.63153,-1.383905 c 0.70044,-1.534911 2.28924,-3.080043 3.81885,-3.713905 1.4383,-0.596018 4.5965,-0.394524 6.28821,0.401191 3.77963,1.777788 5.65496,6.191592 4.56056,10.733756 -0.21293,0.883707 -0.34597,1.606741 -0.29565,1.606741 0.0503,0 0.33446,-0.462742 0.63142,-1.028316 0.35266,-0.671663 0.71984,-1.028313 1.05867,-1.028313 0.49494,0 0.57188,-0.146918 0.8751,-1.671013 0.0937,-0.471135 0.12447,-0.461245 0.3674,0.118196 0.25005,0.596433 0.298,0.546933 0.84419,-0.871468 0.31849,-0.827103 0.64868,-1.997245 0.73375,-2.60032 0.20192,-1.431345 -0.57091,-3.876492 -1.39005,-4.397989 -0.67154,-0.427528 -2.26239,-0.376798 -2.41551,0.07703 -0.0547,0.162187 0.11014,0.27787 0.36636,0.257078 0.5886,-0.04777 0.78432,0.745102 0.23453,0.950092 -1.10794,0.4131 -1.83802,-0.915339 -1.10249,-2.00607 0.9184,-1.361892 3.62048,-0.966374 4.65482,0.681355 0.2938,0.468037 0.61235,1.253009 0.70788,1.744387 0.23763,1.222337 -0.32905,3.72486 -1.19481,5.276474 l -0.71723,1.285395 1.81397,-0.884637 c 2.03889,-0.994325 4.27529,-1.300648 5.83778,-0.799608 2.27021,0.727989 3.33273,3.393999 1.90537,4.780873 -0.73454,0.713701 -1.15556,0.780586 -1.84231,0.29267 -0.58881,-0.418334 -0.45464,-1.294143 0.21751,-1.419917 0.39228,-0.07341 0.46701,0.02135 0.35247,0.446935 -0.20517,0.762304 0.28333,0.67289 0.6551,-0.119907 0.2542,-0.542083 0.2251,-0.812246 -0.16287,-1.512231 -1.03722,-1.87138 -4.2014,-2.187385 -7.69613,-0.768611 l -1.04033,0.422348 0.65123,0.350358 c 0.64908,0.349207 0.64813,0.350391 -0.28805,0.359469 -1.01346,0.0099 -1.57427,0.380748 -1.57427,1.041227 0,0.228319 -0.43146,0.615039 -0.9588,0.859378 -1.11507,0.51666 -1.06549,0.834127 0.0622,0.398284 0.42036,-0.162467 1.89539,-0.310309 3.27784,-0.32854 2.25623,-0.02976 2.68395,0.0433 4.17816,0.71371 2.03003,0.910804 4.0433,2.93754 4.65731,4.688461 0.50222,1.432128 0.54999,3.611422 0.11041,5.03699 -0.44402,1.439963 -2.34363,3.40235 -3.82598,3.952409 l -1.21535,0.450981 0.12505,1.698187 c 0.15722,2.135099 0.55239,2.947508 1.25578,2.581741 0.27537,-0.143192 1.04969,-0.260349 1.72071,-0.260349 0.94773,0 1.36729,0.143069 1.87973,0.64098 0.53736,0.522114 0.6076,0.735545 0.37879,1.150961 -0.71031,1.289579 -2.05417,1.271467 -3.60145,-0.04855 -0.93161,-0.794757 -0.97264,-0.804667 -1.33545,-0.322572 -0.70043,0.930731 -1.00371,2.369999 -0.65575,3.112021 0.37755,0.805124 0.19925,1.135254 -0.21094,0.390559 z m 4.41727,-3.426242 c 0.49584,-0.48178 -0.13452,-0.98357 -1.22996,-0.979079 -1.41404,0.0059 -1.8264,0.341444 -1.06016,0.862924 0.71982,0.489882 1.84666,0.547034 2.29012,0.11615 z M 208.05097,22.551838 c 0.0102,-0.361808 -0.15774,-0.882391 -0.37325,-1.156853 -0.33917,-0.431931 -0.42755,-0.447177 -0.65741,-0.113405 -0.4139,0.601022 -0.32024,1.837591 0.17984,2.374508 0.43489,0.466916 0.46128,0.467747 0.64286,0.02024 0.10415,-0.256665 0.19773,-0.762685 0.20796,-1.124494 z m 33.17403,33.493911 -0.57894,-0.444168 0.64509,-0.461889 0.64508,-0.461891 v 0.911778 c 0,1.055115 0.0378,1.030858 -0.71123,0.45617 z M 127.50395,28.723499 c -1.77108,-1.232126 -3.346,-1.620967 -5.86562,-1.448199 -2.4211,0.166013 -2.72047,-0.03418 -1.59181,-1.064413 0.921,-0.840687 2.56704,-0.746888 4.6793,0.266649 0.94589,0.45387 1.81067,0.868827 1.92174,0.92213 0.11106,0.05329 -0.1554,-0.462738 -0.59215,-1.146765 -1.64824,-2.581467 -1.46672,-5.742556 0.32977,-5.742556 0.42977,0 0.49065,0.121538 0.35407,0.706966 -0.4344,1.862106 -0.45968,2.395567 -0.1764,3.721435 0.16766,0.784731 0.71793,2.093321 1.22281,2.907976 0.50488,0.814656 0.88616,1.510861 0.84729,1.547121 -0.0389,0.03626 -0.54692,-0.265392 -1.129,-0.670344 z m 105.38919,-1.014953 c 1.65212,-2.420304 2.18489,-4.964723 1.54759,-7.39101 -0.19098,-0.727058 -0.15337,-0.835507 0.28972,-0.835507 0.28005,0 0.736,0.243948 1.01321,0.542102 0.82964,0.892313 0.63147,2.903578 -0.4879,4.951819 l -0.92504,1.692658 0.72965,-0.504822 c 1.23487,-0.854361 3.1609,-1.540185 4.32538,-1.540185 1.25474,0 2.2859,0.571855 2.2859,1.267693 0,0.42635 -0.20576,0.455908 -2.34764,0.337249 -2.12669,-0.117821 -2.48154,-0.06813 -3.77032,0.527827 -0.78247,0.36184 -1.83939,0.926552 -2.34871,1.254919 l -0.92604,0.597032 z M 158.3279,25.792141 c 0,-0.08095 0.14883,-0.380033 0.33073,-0.664602 0.27822,-0.435252 0.23943,-0.672052 -0.24431,-1.491418 -0.37944,-0.642717 -0.49568,-1.098764 -0.34174,-1.340781 0.55132,-0.866757 1.36657,1.175233 1.00146,2.508414 -0.192,0.70107 -0.74614,1.435124 -0.74614,0.988387 z m -34.66041,-0.705762 c -0.50932,-0.254087 -1.30524,-0.462158 -1.76871,-0.46238 -1.76177,-8.21e-4 -2.96741,-1.074473 -2.04335,-1.819623 0.20166,-0.162613 0.30075,-0.399274 0.22019,-0.52591 -0.34358,-0.540169 0.19619,-1.253965 0.94825,-1.253965 0.41817,0 0.83389,-0.115684 0.92383,-0.257078 0.0899,-0.141392 0.32658,-0.257078 0.52588,-0.257078 0.66241,0 1.11361,0.717151 1.27279,2.023017 0.0866,0.710249 0.35114,1.655388 0.58794,2.10031 0.23679,0.444919 0.39199,0.832738 0.34488,0.861817 -0.0471,0.02908 -0.50238,-0.155022 -1.0117,-0.40911 z m -0.12176,-1.296521 c -0.42694,-0.986587 -0.95848,-1.368377 -1.58162,-1.136036 -0.70077,0.26128 -0.37724,1.022496 0.64582,1.519493 1.26238,0.613258 1.35135,0.576804 0.9358,-0.383457 z m 112.83425,0.730246 c 0,-0.04103 0.17843,-0.422114 0.39651,-0.846869 0.21809,-0.424758 0.47271,-1.339092 0.56583,-2.031857 0.0931,-0.692765 0.27607,-1.462021 0.40655,-1.70946 0.25544,-0.484433 1.01438,-0.597856 1.42246,-0.212591 0.13825,0.130513 0.60855,0.275119 1.04511,0.321349 0.65685,0.06956 0.79593,0.20171 0.80637,0.766278 0.007,0.375225 0.16403,0.859494 0.34909,1.07615 0.59542,0.697098 -0.0594,1.400244 -1.48688,1.596481 -0.69084,0.09498 -1.7621,0.384728 -2.38056,0.643894 -0.61846,0.259165 -1.12448,0.437647 -1.12448,0.396625 z m 2.92466,-1.841265 c 0.42636,-0.499165 0.11793,-1.140179 -0.54861,-1.140179 -0.37862,0 -0.67089,0.278877 -0.93434,0.891516 -0.21086,0.490336 -0.38338,0.947059 -0.38338,1.014941 0,0.23454 1.55779,-0.405061 1.86633,-0.766278 z m -79.88553,-1.409033 c -0.30639,-0.402657 -0.46889,-0.78122 -0.36112,-0.841248 0.10778,-0.06004 2.99392,-0.111351 6.41366,-0.114039 5.13684,-0.0041 5.80376,0.03381 3.83646,0.217663 -6.05416,0.565835 -7.60742,0.76962 -8.43883,1.107151 -0.86342,0.350526 -0.91162,0.338244 -1.45017,-0.369524 z m -3.04623,-0.109309 c -0.56171,-0.83297 -0.56867,-0.821534 0.49981,-0.821534 1.07619,0 1.08663,0.02048 0.42624,0.836212 l -0.49982,0.617382 z m 43.62689,-0.294321 c -0.58208,-0.208549 -3.14192,-0.532779 -5.68854,-0.720516 l -4.6302,-0.341339 6.32486,-0.03262 c 6.11175,-0.03152 6.3101,-0.01676 5.88698,0.437526 -0.24084,0.258571 -0.43789,0.605628 -0.43789,0.771236 0,0.37119 -0.12826,0.361114 -1.45521,-0.114303 z m 3.75797,-0.492446 -0.47538,-0.634616 h 1.08304 1.08304 l -0.47538,0.634616 c -0.26145,0.349042 -0.5349,0.634619 -0.60766,0.634619 -0.0728,0 -0.34621,-0.285577 -0.60766,-0.634619 z"
       id="path379" /></g></svg>
