<?xml version="1.0" encoding="UTF-8" standalone="no"?>
<!-- Created with Inkscape (http://www.inkscape.org/) -->

<svg
   width="312.22488"
   height="316.55838"
   viewBox="0 0 82.6095 83.756069"
   version="1.1"
   id="svg5"
   xml:space="preserve"
   xmlns:inkscape="http://www.inkscape.org/namespaces/inkscape"
   xmlns:sodipodi="http://sodipodi.sourceforge.net/DTD/sodipodi-0.dtd"
   xmlns="http://www.w3.org/2000/svg"
   xmlns:svg="http://www.w3.org/2000/svg"><sodipodi:namedview
     id="namedview7"
     pagecolor="#ffffff"
     bordercolor="#000000"
     borderopacity="0.25"
     inkscape:showpageshadow="2"
     inkscape:pageopacity="0.0"
     inkscape:pagecheckerboard="0"
     inkscape:deskcolor="#d1d1d1"
     inkscape:document-units="px"
     showgrid="false"
     showborder="false" /><defs
     id="defs2" /><g
     inkscape:label="Layer 1"
     inkscape:groupmode="layer"
     id="layer1"
     transform="translate(-205.0571,-69.806336)"><path
       style="fill:#ffd42a;fill-opacity:1"
       d="m 251.12821,153.28223 c -0.88426,-1.22069 -0.86093,-2.77687 0.0572,-3.81523 0.22086,-0.24978 0.67557,-0.73041 1.01046,-1.06807 0.33489,-0.33766 0.55279,-0.61393 0.48422,-0.61393 -0.0686,0 -0.40565,0.1896 -0.74906,0.42133 -1.66149,1.12116 -3.39136,1.9855 -4.58444,2.29064 -2.37573,0.60761 -4.28536,0.10772 -7.9936,-2.09251 -1.10356,-0.65478 -1.18867,-0.68923 -2.45572,-0.99411 -0.7219,-0.1737 -1.92224,-0.52706 -2.66742,-0.78524 -1.84987,-0.64091 -2.28547,-0.73091 -3.21464,-0.66413 -0.78894,0.0567 -1.79091,0.28732 -2.37424,0.54647 -0.39976,0.1776 -0.97099,0.77404 -1.23277,1.28718 l -0.18631,0.36518 0.62486,-0.58114 c 0.83554,-0.77707 1.35385,-1.01523 2.08224,-0.95677 0.30152,0.0242 0.58606,0.0818 0.6323,0.12808 0.13112,0.13113 -0.1477,0.58848 -0.68834,1.12912 -0.85477,0.85477 -1.88268,1.38126 -2.90548,1.48816 l -0.51188,0.0535 0.0467,-0.6697 c 0.0557,-0.79772 0.28266,-1.43721 0.68403,-1.92703 0.4465,-0.5449 0.86417,-0.787 1.70867,-0.99044 0.41917,-0.10098 0.79248,-0.21182 0.82959,-0.24631 0.0371,-0.0345 -0.34908,-0.088 -0.85822,-0.11893 -3.37873,-0.20521 -5.57908,-1.24698 -7.14159,-3.38125 -0.54012,-0.73777 -1.48051,-2.57592 -2.09762,-4.10017 -0.40814,-1.00808 -0.51913,-1.19596 -1.12559,-1.9053 -0.37004,-0.43282 -0.94152,-1.13942 -1.26996,-1.57023 -0.32843,-0.43081 -0.64885,-0.78329 -0.71203,-0.78329 -0.0632,0 -0.11488,-0.0789 -0.11488,-0.17536 0,-0.16276 -0.71989,-1.27131 -0.86691,-1.33494 -0.0361,-0.0156 -0.0405,-0.0692 -0.01,-0.11894 0.0308,-0.0498 0.0175,-0.0668 -0.0295,-0.0377 -0.047,0.029 -0.17673,-0.0444 -0.28829,-0.16331 -0.49513,-0.52757 -2.10338,-1.35067 -3.04292,-1.55737 -0.39416,-0.0867 -0.55317,-0.0816 -0.99604,0.0318 -0.28986,0.0743 -0.66943,0.21362 -0.8435,0.30968 -0.30817,0.17008 -0.30981,0.17349 -0.0625,0.12984 0.13972,-0.0247 0.62324,-0.0701 1.07448,-0.10099 0.77828,-0.0533 0.84456,-0.0444 1.28964,0.17342 0.25806,0.12625 0.58431,0.3692 0.72499,0.53987 l 0.25579,0.31032 -0.27523,0.13971 c -0.62779,0.31869 -2.17739,0.44501 -3.05265,0.24886 -0.43238,-0.0969 -1.19511,-0.42234 -1.45294,-0.61995 -0.16301,-0.12493 -0.16206,-0.13254 0.0579,-0.46498 0.76351,-1.15374 2.5161,-1.77567 3.5285,-1.25214 0.13326,0.0689 0.50414,0.22191 0.82417,0.33999 l 0.58187,0.2147 -0.29638,-0.26527 c -1.3464,-1.20506 -2.03074,-1.88335 -2.51624,-2.49399 -0.42802,-0.53835 -0.61906,-0.71515 -0.78216,-0.72386 -0.18578,-0.01 -0.19059,-0.0165 -0.0346,-0.047 0.17369,-0.034 0.16456,-0.0682 -0.21928,-0.82215 -0.22029,-0.43267 -0.46872,-1.04979 -0.55207,-1.37138 -0.20376,-0.78618 -0.2577,-2.55983 -0.10744,-3.53285 l 0.11527,-0.74647 -0.30162,-0.12651 c -0.16589,-0.0696 -0.48525,-0.16608 -0.70969,-0.21445 -0.58506,-0.12608 -0.43324,-0.17945 0.20677,-0.0727 0.29701,0.0495 0.61005,0.0987 0.69564,0.1092 0.13355,0.0164 0.20347,-0.17301 0.49308,-1.33577 l 0.33747,-1.35488 -0.0911,-1.31254 c -0.0501,-0.7219 -0.091,-1.6911 -0.0909,-2.15378 2.1e-4,-0.68268 -0.0334,-0.91067 -0.1781,-1.20968 -0.22791,-0.47079 -0.81855,-0.92255 -1.44797,-1.1075 -0.53948,-0.15851 -0.66227,-0.30553 -0.19429,-0.23262 0.16301,0.0254 0.43928,0.0682 0.61393,0.0951 0.17465,0.0269 0.51761,0.15662 0.76212,0.28823 l 0.44457,0.23929 v -0.63341 c 0,-0.60997 -0.0185,-0.66843 -0.50062,-1.57961 -0.27534,-0.5204 -0.60438,-1.24208 -0.7312,-1.60372 -0.16236,-0.46294 -0.31287,-0.72977 -0.50861,-0.90163 -0.29905,-0.26257 -0.99074,-0.55343 -1.52672,-0.642 -0.29263,-0.0483 -0.24687,-0.009 0.38803,0.33784 1.14046,0.62216 1.53592,1.1133 1.65861,2.05988 l 0.0584,0.45061 -0.32926,-0.0588 c -0.62785,-0.11207 -1.64605,-0.71168 -2.28628,-1.34636 -0.56121,-0.55634 -1.1338,-1.4511 -1.1338,-1.77173 0,-0.1742 0.45232,-0.31268 1.2003,-0.36748 0.75729,-0.0555 1.32332,0.0607 1.79244,0.36806 0.17893,0.11721 0.33405,0.20072 0.34473,0.18559 0.0107,-0.0151 0.0641,-0.22951 0.11875,-0.4764 0.23899,-1.07981 0.98893,-2.05108 2.49759,-3.23469 l 0.80951,-0.6351 0.3397,-0.88914 c 0.5821,-1.523625 1.19188,-2.985815 1.37367,-3.293925 0.16935,-0.28704 0.17125,-0.3338 0.0665,-1.637835 -0.12907,-1.60702 -0.0534,-2.32861 0.32776,-3.127642 0.54237,-1.136816 1.43785,-1.713773 3.61224,-2.327351 l 0.83972,-0.236954 0.22824,-0.509902 c 0.35737,-0.798364 0.53511,-1.673777 0.54194,-2.669242 0.006,-0.804246 -0.0152,-0.929566 -0.21753,-1.31254 -0.12301,-0.23287 -0.3797,-0.594877 -0.57042,-0.80446 l -0.34678,-0.38106 0.37322,0.80446 c 0.20527,0.442453 0.39858,0.978647 0.42957,1.191541 0.0685,0.470262 -0.0647,1.020998 -0.35452,1.466214 l -0.2142,0.329055 -0.20484,-0.244375 c -0.26258,-0.313267 -0.72453,-1.212832 -0.92997,-1.810955 -0.18192,-0.529618 -0.21347,-2.154551 -0.0496,-2.555917 0.0879,-0.215431 0.10944,-0.222678 0.41454,-0.139727 0.48586,0.132092 1.24741,0.624905 1.62027,1.0485 0.18282,0.207688 0.41785,0.606129 0.5223,0.885424 0.18285,0.488937 0.18638,0.551085 0.0951,1.672095 -0.0522,0.640357 -0.13303,1.297404 -0.17971,1.460106 -0.0467,0.162701 -0.0849,0.319127 -0.0849,0.347614 0,0.02849 0.38043,-0.333269 0.8454,-0.803901 0.46497,-0.470632 1.09228,-1.065277 1.39403,-1.321434 0.54506,-0.46271 0.55057,-0.471811 0.84678,-1.398755 0.41006,-1.283239 0.89016,-2.243354 1.35345,-2.706642 0.21045,-0.210453 0.42175,-0.382643 0.46955,-0.382643 0.13297,0 0.10332,0.229622 -0.0366,0.283309 -0.34203,0.131246 -1.04677,1.655908 -1.27638,2.761323 -0.0707,0.340572 -0.19833,0.408263 1.13932,-0.604401 l 0.85938,-0.650589 0.25047,0.142509 c 0.13776,0.07838 0.25026,0.161562 0.25,0.184849 -2.5e-4,0.02329 -0.21192,0.189144 -0.47036,0.368571 -0.25844,0.179427 -0.87462,0.647025 -1.36928,1.039105 l -0.89939,0.712874 -0.3238,0.986562 c -0.61503,1.873846 -1.24741,2.490987 -3.37131,3.290059 -0.64823,0.243881 -0.75969,0.319772 -1.12123,0.763419 -0.73994,0.907972 -2.60469,3.626341 -2.60469,3.797021 0,0.0197 0.2568,-0.13645 0.57066,-0.34692 2.04097,-1.36862 5.22837,-2.269531 8.32074,-2.351834 0.62875,-0.01673 0.99076,-0.01464 0.80446,0.0047 -1.68949,0.174996 -2.16774,0.241367 -3.09082,0.428944 -2.6279,0.53401 -5.02886,1.62613 -6.51764,2.96467 l -0.44513,0.400215 0.0558,0.68222 c 0.10368,1.26773 0.0662,1.20023 0.66827,1.20516 0.99502,0.008 2.03743,0.59595 2.63782,1.487485 0.46719,0.69374 0.47979,0.68494 -0.90833,0.63437 -0.71611,-0.0261 -1.39604,-0.0984 -1.67243,-0.17793 -0.25616,-0.0737 -0.54195,-0.1555 -0.6351,-0.18182 -0.13875,-0.0392 -0.19799,0.0224 -0.32775,0.34099 -0.24396,0.59894 -0.96265,1.45145 -1.88394,2.23472 -0.91337,0.77655 -1.21785,1.07607 -1.21785,1.19803 0,0.0437 0.16408,-0.0458 0.36462,-0.19892 0.20054,-0.15308 0.56676,-0.36528 0.81382,-0.47156 0.55157,-0.23728 1.54615,-0.45357 1.64252,-0.35719 0.039,0.039 -0.0982,0.0962 -0.30496,0.12725 -0.67226,0.10081 -1.55289,0.59307 -2.17639,1.21657 -0.64154,0.64154 -0.65999,0.6924 -1.0289,2.8365 l -0.17805,1.03485 0.44267,0.76212 c 1.02467,1.76409 1.35498,2.62272 1.41896,3.68854 0.0748,1.24555 -0.0707,2.13956 -1.038,6.37968 -0.1964,0.86087 -0.28571,1.42563 -0.24774,1.56658 l 0.0594,0.2204 0.0612,-0.2117 c 0.12454,-0.43076 0.58693,-1.23977 0.93245,-1.63145 0.49495,-0.56106 1.11861,-0.83862 1.99825,-0.8893 0.71085,-0.041 1.42834,0.10046 1.76703,0.34829 0.16072,0.1176 0.15708,0.12885 -0.11756,0.36362 -0.54023,0.46179 -1.32124,0.98195 -1.88956,1.25846 -0.57783,0.28113 -1.72497,0.61126 -1.81415,0.52209 -0.0922,-0.0922 0.0574,-0.46779 0.33168,-0.83302 0.31518,-0.41968 0.9345,-0.76378 1.8154,-1.00866 l 0.57686,-0.16035 -0.6351,0.0452 c -1.25696,0.0894 -1.95092,0.68615 -2.42394,2.08429 -0.22994,0.67965 -0.25367,1.17022 -0.0804,1.66142 0.0664,0.18827 0.14683,0.52649 0.17867,0.7516 0.0491,0.34737 0.77624,2.46118 0.96614,2.80873 0.0412,0.0754 0.14336,-0.0518 0.30629,-0.38106 0.15501,-0.31325 0.49327,-0.74326 0.92407,-1.17467 0.96803,-0.96942 1.89586,-1.42551 3.09294,-1.5204 l 0.55042,-0.0436 -0.50808,0.11885 c -1.95939,0.45834 -3.26928,1.68855 -3.72868,3.50187 -0.0738,0.29116 -0.10881,0.57031 -0.0779,0.62034 0.0309,0.05 0.84289,0.76295 1.80438,1.58425 3.63011,3.10085 4.10602,3.77031 5.8722,8.2603 0.54261,1.37944 0.6447,1.57531 0.98808,1.89578 0.21062,0.19657 0.39313,0.34722 0.40557,0.33477 0.0125,-0.0124 -0.0373,-0.21138 -0.11043,-0.44207 -0.0775,-0.24424 -0.13567,-0.74143 -0.13931,-1.19027 -0.006,-0.68381 0.0203,-0.82241 0.22919,-1.22786 0.46805,-0.9086 1.48456,-1.68109 2.39524,-1.82024 l 0.35588,-0.0544 -0.0857,0.32773 c -0.35293,1.34928 -0.84849,2.40162 -1.52354,3.23525 -0.52277,0.6456 -0.61047,0.60921 -0.65496,-0.27173 -0.0363,-0.71913 0.0631,-0.96881 0.74437,-1.86885 0.23277,-0.30753 0.3574,-0.52303 0.27694,-0.47888 -0.27016,0.14825 -0.93499,0.89408 -1.12282,1.25962 -0.1648,0.32071 -0.1791,0.43703 -0.12495,1.01616 0.0726,0.7759 0.27793,1.47817 0.58601,2.00388 0.30643,0.52288 1.77109,1.61725 3.85841,2.88295 1.50394,0.91194 1.44123,0.89237 3.4275,1.06969 1.65389,0.14764 3.53177,0.4111 3.87841,0.54411 0.19723,0.0757 0.18802,-0.0199 -0.0674,-0.70039 -0.86318,-2.29933 -2.93334,-4.008 -5.41592,-4.47018 -0.51702,-0.0963 -0.54749,-0.11133 -0.23841,-0.118 0.50834,-0.011 1.46783,0.20746 2.20105,0.50106 1.24121,0.497 2.51332,1.4978 3.29897,2.59537 0.39129,0.54665 0.99027,1.75497 1.08482,2.18843 0.0495,0.22687 0.17044,0.30974 1.13083,0.77483 0.59148,0.28644 1.65436,0.903 2.36197,1.37013 l 1.28654,0.84932 1.08791,0.13295 c 1.40138,0.17126 1.37513,0.17419 0.98287,-0.10995 -0.43104,-0.31225 -0.97757,-0.95292 -1.26784,-1.48623 -0.19784,-0.36351 -0.22816,-0.51615 -0.22732,-1.14461 7.7e-4,-0.53858 0.0477,-0.845 0.18264,-1.1909 0.18182,-0.46615 0.7348,-1.27266 0.91228,-1.33054 0.11496,-0.0375 0.58088,1.23226 0.75234,2.05032 0.12976,0.61917 0.16117,1.99992 0.0518,2.27878 -0.0579,0.14757 -0.0957,0.13269 -0.43068,-0.16936 -0.55354,-0.49911 -0.67383,-0.83905 -0.68652,-1.94006 -0.0103,-0.89255 -0.0154,-0.91733 -0.12237,-0.59276 -0.0614,0.18629 -0.11456,0.62658 -0.11814,0.97841 -0.006,0.56325 0.0221,0.68468 0.23313,1.01616 0.35859,0.56332 1.213,1.30746 1.85058,1.61175 l 0.56533,0.26981 2.20762,-0.0491 c 2.16243,-0.0481 3.10771,-0.11868 4.68628,-0.34983 0.73935,-0.10827 0.84783,-0.15213 1.86296,-0.75326 0.59284,-0.35106 1.17614,-0.68201 1.29622,-0.73543 0.20163,-0.0897 0.22925,-0.17022 0.36124,-1.05321 0.23085,-1.54429 0.6108,-2.78743 0.90811,-2.97118 0.0511,-0.0316 0.0357,0.0532 -0.0342,0.18838 -0.19813,0.38313 -0.30784,1.16399 -0.31702,2.25628 -0.005,0.55084 0.006,1.01639 0.0246,1.03455 0.0182,0.0182 0.41215,-0.0952 0.87554,-0.25189 1.13458,-0.38367 3.31248,-0.72568 4.62106,-0.72568 0.33979,0 0.59725,-0.0919 1.40942,-0.50338 1.38274,-0.70046 1.68705,-0.89571 1.50494,-0.96559 -0.0792,-0.0304 -0.26477,-0.0557 -0.41233,-0.0563 -0.14755,-5.9e-4 -0.45881,-0.052 -0.69168,-0.11427 -1.5002,-0.40134 -2.33851,-1.49278 -2.36114,-3.07413 -0.005,-0.38024 0.0175,-0.71888 0.0511,-0.75254 0.11202,-0.11239 1.20122,0.67173 1.88666,1.35821 0.64307,0.64404 1.35661,1.6818 1.26183,1.83516 -0.12397,0.20059 -1.11762,-0.0989 -1.53206,-0.46175 -0.17059,-0.14936 -0.49396,-0.55273 -0.71858,-0.89637 -0.46297,-0.70825 -0.51937,-0.67471 -0.16812,0.1 0.34281,0.75604 0.69932,1.13027 1.22841,1.28943 0.68989,0.20754 1.52271,0.2852 2.17719,0.20302 0.55862,-0.0701 0.66289,-0.11974 1.60544,-0.76368 1.24747,-0.85226 2.71531,-2.02014 3.79396,-3.01864 l 0.81993,-0.759 0.49646,-1.30397 c 0.85378,-2.24251 1.65026,-3.68232 2.66921,-4.82517 l 0.42145,-0.4727 -0.2715,-0.67048 c -0.85236,-2.10493 -2.66874,-3.55007 -5.0939,-4.05279 l -0.59276,-0.12287 0.55042,0.0437 c 2.27596,0.18069 4.48037,1.65082 5.55971,3.70781 l 0.32555,0.62041 1.4192,-1.26341 c 1.42408,-1.26775 1.56167,-1.43523 1.95562,-2.38041 l 0.13395,-0.32138 -0.23014,0.16233 c -0.39998,0.28211 -1.06088,0.58047 -1.53143,0.69136 -0.95039,0.22396 -2.07307,-0.12677 -2.83056,-0.88426 -0.34994,-0.34994 -0.73726,-0.93406 -0.73726,-1.11187 0,-0.0308 0.58111,-0.0374 1.29137,-0.0146 1.3371,0.0429 2.00884,0.18351 2.79998,0.58599 0.38564,0.19619 0.37085,0.31232 -0.0674,0.52926 -0.68956,0.34133 -1.37527,0.30759 -2.36424,-0.11633 -0.22742,-0.0975 -0.42924,-0.16148 -0.4485,-0.14222 -0.0861,0.0861 0.9775,0.64956 1.38655,0.73448 0.39703,0.0824 0.52232,0.0715 0.99776,-0.0867 0.65478,-0.21789 1.40135,-0.69354 1.8791,-1.19717 0.25852,-0.27254 0.43031,-0.58329 0.64957,-1.17499 0.36633,-0.98864 0.8306,-2.54783 1.10428,-3.70859 l 0.20555,-0.87181 -0.1948,-0.82179 c -0.10714,-0.45199 -0.32908,-1.37433 -0.4932,-2.04965 -0.45955,-1.891 -0.58794,-2.73366 -0.5935,-3.89528 -0.005,-0.98792 0.0127,-1.10523 0.26091,-1.7592 0.14629,-0.38538 0.53715,-1.17478 0.86858,-1.75421 l 0.6026,-1.05351 -0.17868,-1.04023 c -0.0983,-0.57213 -0.24783,-1.34508 -0.33235,-1.71767 -0.14965,-0.65975 -0.15626,-0.67081 -0.25281,-0.4234 -0.44148,1.13118 -1.03178,1.8543 -1.80126,2.20657 -0.46707,0.21382 -0.63197,0.2445 -1.29721,0.24133 -0.58401,-0.003 -0.87592,-0.0482 -1.24903,-0.19452 -0.2678,-0.10499 -0.48677,-0.21673 -0.4866,-0.24832 5.1e-4,-0.097 0.95661,-0.83648 1.53081,-1.18398 0.67078,-0.40594 1.51412,-0.7453 2.04661,-0.82354 0.36057,-0.053 0.40223,-0.0423 0.40223,0.10329 0,0.18537 -0.40154,0.84385 -0.64656,1.06029 -0.19483,0.1721 -0.64649,0.36931 -1.34342,0.58656 l -0.50808,0.15839 0.55056,-0.0313 c 0.84367,-0.0479 1.31591,-0.31171 1.75539,-0.98047 0.36193,-0.55077 0.64366,-1.27987 0.74247,-1.92152 l 0.0539,-0.34976 -0.61966,-0.50675 c -1.47706,-1.2079 -2.26614,-2.2811 -2.40165,-3.26641 -0.0469,-0.34121 -0.13399,-0.521025 -0.39656,-0.819035 -0.82104,-0.93188 -1.71055,-2.51353 -2.16731,-3.853725 -0.29096,-0.8537 -0.60273,-2.29165 -0.61794,-2.85008 -0.0208,-0.764378 -0.061,-0.824939 -0.71623,-1.079511 -0.88368,-0.34333 -1.48554,-0.715197 -1.93467,-1.195359 -0.47826,-0.511301 -0.75716,-1.091106 -1.00211,-2.083342 -0.16348,-0.662191 -0.22027,-0.772977 -0.55537,-1.083344 -0.57196,-0.529754 -0.61228,-0.535874 -0.46121,-0.06999 0.0778,0.239993 0.13408,0.742615 0.13974,1.248513 0.009,0.786147 -0.008,0.878708 -0.23734,1.292286 -0.4709,0.849913 -1.47551,1.599956 -2.35708,1.759804 -0.38096,0.06908 -0.38247,0.06058 -0.14401,-0.809772 0.2424,-0.884752 0.83614,-2.059477 1.36212,-2.694993 0.50387,-0.608799 0.59852,-0.591617 0.69695,0.12652 0.0926,0.675837 -0.15514,1.274029 -0.89797,2.167945 -0.18384,0.221226 -0.31526,0.40223 -0.29204,0.40223 0.13458,0 0.82486,-0.677251 1.09557,-1.074888 0.25502,-0.374588 0.31742,-0.543962 0.31691,-0.860125 -10e-4,-0.770978 -0.16865,-1.48884 -0.50647,-2.171967 -0.32656,-0.660364 -0.35958,-0.695225 -1.30977,-1.382983 -0.86449,-0.625724 -0.98514,-0.744044 -1.06641,-1.045878 -0.15728,-0.584086 -0.19574,-0.602908 1.71008,0.836763 0.63553,0.480077 1.3515,1.049086 1.59105,1.264466 0.23956,0.21538 0.4607,0.36646 0.49142,0.335733 0.0858,-0.08577 -0.28671,-1.621406 -0.51336,-2.116471 -0.11073,-0.241867 -0.3226,-0.577878 -0.47082,-0.74669 -0.40694,-0.46348 -0.15428,-0.497872 0.28552,-0.03887 0.48426,0.505399 0.82412,1.238514 1.18561,2.557494 l 0.29614,1.080517 1.08095,1.109857 c 0.59452,0.610422 1.36015,1.43917 1.7014,1.841663 0.58403,0.688848 0.65107,0.740397 1.14208,0.878166 2.66591,0.748015 3.66087,1.431357 4.09656,2.813506 0.10426,0.33076 0.17539,0.43682 0.27342,0.40768 0.47921,-0.14247 1.39899,-0.23159 1.9473,-0.18867 0.90633,0.0709 2.29218,0.58302 2.29218,0.84698 0,0.34903 -1.09252,1.3333 -1.75511,1.581215 -0.59945,0.22428 -1.48031,0.22858 -1.91037,0.009 -0.17275,-0.0881 -0.40858,-0.183855 -0.52409,-0.212845 -0.23806,-0.0597 -0.23466,-0.0683 -0.38278,0.957165 l -0.0905,0.62654 0.52555,1.23642 c 0.28905,0.680045 0.64751,1.579385 0.79657,1.998555 l 0.27102,0.76212 0.83624,0.4412 c 1.02237,0.5394 2.39013,0.99382 3.63069,1.20624 0.51231,0.0877 0.81142,0.16258 0.66468,0.16634 -0.76305,0.0196 -2.93159,-0.48679 -3.99436,-0.93267 l -0.39624,-0.16625 0.29638,0.22777 c 0.16301,0.12527 0.63027,0.56131 1.03836,0.96897 0.55688,0.5563 0.81037,0.88561 1.01616,1.3201 0.25094,0.52984 0.27379,0.64707 0.26962,1.38336 -0.004,0.70122 -0.0387,0.88805 -0.2707,1.45585 -0.14637,0.35826 -0.49337,1.05245 -0.7711,1.54263 l -0.50497,0.89124 0.0109,2.31373 0.0109,2.31373 0.28781,-0.38448 c 0.65044,-0.86893 1.54966,-1.66396 2.47139,-2.18506 0.64895,-0.36688 1.91198,-0.77513 2.55282,-0.82515 l 0.53624,-0.0419 -0.71661,0.16885 c -0.92828,0.21873 -2.26725,0.87947 -2.97861,1.46985 -0.67882,0.56337 -1.42865,1.50151 -1.81786,2.27438 l -0.28677,0.56944 0.19917,0.5487 c 0.28269,0.7788 0.87814,1.78933 1.32742,2.25275 0.29456,0.30383 0.51179,0.437 0.93148,0.57104 0.99817,0.3188 1.09491,0.29904 0.41258,-0.0842 -0.35357,-0.19861 -0.77371,-0.46131 -0.93365,-0.58379 -0.38264,-0.293 -0.72636,-0.93893 -0.80164,-1.50646 l -0.0606,-0.45646 0.33021,0.0523 c 0.59875,0.0948 1.70809,0.72589 2.26876,1.29075 0.53263,0.53661 1.01469,1.25855 1.11422,1.66867 0.0511,0.2104 0.0245,0.24704 -0.27022,0.37318 -0.22168,0.0949 -0.58567,0.1422 -1.1313,0.14709 -0.7209,0.006 -0.85568,-0.0179 -1.29751,-0.23423 -0.80711,-0.39523 -1.1977,-0.88362 -2.07457,-2.59401 -0.1686,-0.32886 -0.25899,-0.44816 -0.22456,-0.29638 0.73857,3.25558 0.85069,4.02601 0.77614,5.33294 -0.0795,1.39379 -0.46825,2.5424 -1.25084,3.6958 -0.51478,0.75869 -1.72522,1.98558 -2.88554,2.92475 -0.90488,0.73242 -1.02765,0.86715 -1.47654,1.62047 -0.709,1.18983 -1.62113,2.50991 -2.54769,3.68716 -0.44578,0.56639 -0.93507,1.29649 -1.08735,1.62252 -0.36636,0.78432 -0.5744,1.76532 -0.58362,2.7521 -0.009,0.94079 0.12885,1.30277 0.75805,1.99343 l 0.38257,0.41995 -0.30135,-0.61671 c -0.43648,-0.89321 -0.57796,-1.50785 -0.46408,-2.01602 0.0934,-0.41681 0.4038,-1.05085 0.51443,-1.05085 0.13976,0 0.5484,0.59334 0.84563,1.22786 0.40779,0.8705 0.54025,1.55428 0.47275,2.44039 -0.0779,1.02313 -0.11012,1.10116 -0.42791,1.0376 -0.65258,-0.13051 -1.61601,-0.82798 -1.99696,-1.44567 -0.38365,-0.62206 -0.44985,-1.0536 -0.33985,-2.21518 0.0563,-0.59473 0.15086,-1.26815 0.21009,-1.4965 l 0.10769,-0.41516 -0.28212,0.28514 c -0.17855,0.18046 -0.50119,0.766 -0.87884,1.59495 -1.25393,2.75241 -2.3313,4.08278 -3.97608,4.90975 -1.22898,0.61792 -2.17719,0.84664 -4.43908,1.07076 -1.06583,0.1056 -1.44949,0.17771 -1.74888,0.32871 -1.03267,0.5208 -3.38868,1.36368 -5.5772,1.99528 -1.14884,0.33155 -1.75219,0.69338 -2.59977,1.55907 -1.09845,1.12192 -1.38991,1.79451 -1.26403,2.91694 l 0.0627,0.55932 0.16196,-0.83719 c 0.25412,-1.31365 0.64462,-1.89602 1.51234,-2.25544 0.37133,-0.15381 0.43976,-0.0184 0.37718,0.74631 -0.0969,1.18435 -0.53522,2.23019 -1.28333,3.06227 -0.58327,0.64873 -0.65473,0.66748 -0.95649,0.2509 z m -4.57519,-3.63904 c 0.901,-0.11231 1.94429,-0.4584 3.04121,-1.00886 0.46852,-0.23511 0.85185,-0.4398 0.85185,-0.45487 0,-0.0151 -0.21766,0.002 -0.48368,0.0382 -1.86771,0.25346 -5.70241,0.2983 -7.70911,0.0902 -0.33766,-0.035 -0.61393,-0.0547 -0.61393,-0.0437 0,0.011 0.31437,0.19012 0.69861,0.39805 1.12796,0.61037 2.02395,0.88875 3.41059,1.05968 0.0478,0.006 0.4098,-0.0295 0.80446,-0.0787 z m 8.08472,-2.88158 c 0.15247,-0.0601 0.14825,-0.0669 -0.0423,-0.0691 -0.11644,-0.001 -0.30697,0.0538 -0.4234,0.12234 l -0.2117,0.1247 0.25404,-0.0556 c 0.13972,-0.0306 0.33025,-0.0856 0.4234,-0.12234 z m 3.39991,-1.03866 c 1.16435,-0.42527 1.49628,-0.58409 1.08813,-0.52063 -0.13972,0.0217 -0.5508,0.0811 -0.9135,0.13185 -0.82795,0.11594 -1.70022,0.356 -2.49344,0.68622 -0.51272,0.21344 -0.61536,0.28883 -0.61536,0.45196 v 0.19578 l 0.95265,-0.28469 c 0.52396,-0.15659 1.41564,-0.4538 1.98152,-0.66049 z m -23.00333,0.46027 c -0.0699,-0.0398 -0.26039,-0.0955 -0.4234,-0.1237 l -0.29638,-0.0513 0.29638,0.11984 c 0.34416,0.13915 0.63793,0.17744 0.4234,0.0552 z m 28.66105,-1.99826 c 3.02549,-0.456 4.57017,-1.55105 5.87867,-4.16747 0.19164,-0.3832 0.34844,-0.72056 0.34844,-0.74967 0,-0.0291 -0.25722,0.17214 -0.57159,0.44725 -1.77658,1.55465 -3.54616,2.81156 -5.6904,4.04181 -0.53322,0.30593 -0.93333,0.55601 -0.88914,0.55574 0.0442,-2.6e-4 0.46,-0.0577 0.92402,-0.12766 z m -36.37399,-0.66412 c -0.0194,-0.0166 -0.4735,-0.30707 -1.0091,-0.64551 -0.5356,-0.33844 -1.48307,-1.00125 -2.10548,-1.47291 -0.62241,-0.47166 -1.20776,-0.91266 -1.30079,-0.98 -0.32072,-0.23216 0.37426,0.77437 0.96145,1.39245 0.66094,0.69572 1.5125,1.18906 2.61418,1.51449 0.69416,0.20506 0.91436,0.25527 0.83974,0.19148 z m 46.25175,-9.10273 c 0.70525,-0.90066 0.75249,-0.98608 0.74918,-1.35488 l -0.004,-0.39361 -0.30424,0.33872 c -0.55315,0.61582 -1.81697,2.70762 -1.80219,2.98285 0.005,0.0969 0.51053,-0.48725 1.36077,-1.57308 z m -55.56653,0.009 c -0.22072,-0.36848 -0.77404,-1.12201 -0.82388,-1.12201 -0.0815,0 0.0915,0.28756 0.507,0.84283 0.2456,0.3282 0.46018,0.59673 0.47682,0.59673 0.0166,0 -0.0553,-0.1429 -0.15994,-0.31755 z m 57.3382,-2.51923 c 0.18521,-0.27585 0.22688,-0.38054 0.11957,-0.3004 -0.42059,0.31408 -0.52524,0.44532 -0.48322,0.60601 0.024,0.0918 0.0517,0.15581 0.0615,0.14232 0.01,-0.0135 0.14579,-0.21506 0.30215,-0.44793 z m 4.33034,-6.24042 c 0.57834,-0.97012 0.76746,-1.64524 0.8019,-2.86268 0.0345,-1.21825 0.0744,-1.27693 -0.60561,0.88914 -0.21933,0.69861 -0.55117,1.65126 -0.73744,2.117 -0.18627,0.46574 -0.35648,0.90396 -0.37826,0.97382 -0.0772,0.24767 0.58655,-0.55894 0.91941,-1.11728 z m -67.40968,-0.0894 c -0.0843,-0.19794 -0.25764,-0.67453 -0.38519,-1.05908 -0.12756,-0.38456 -0.26248,-0.68031 -0.29982,-0.65723 -0.0373,0.0231 -0.0948,-0.17337 -0.12768,-0.43655 -0.0329,-0.26319 -0.092,-0.55808 -0.13129,-0.65532 -0.0594,-0.14678 -0.0722,-0.12649 -0.0754,0.11959 -0.006,0.4199 0.20001,1.32269 0.41448,1.82062 0.17322,0.40214 0.66257,1.22786 0.72768,1.22786 0.0168,0 -0.0385,-0.16195 -0.12278,-0.35989 z m -1.45212,-11.63538 c 0.0745,-0.69174 0.0737,-1.00529 -0.003,-1.33469 -0.14183,-0.60662 -0.24245,-0.7598 -0.24565,-0.37396 -0.001,0.17085 -0.0281,0.37715 -0.0593,0.45846 -0.0357,0.0932 -0.0238,0.12748 0.0323,0.0928 0.0527,-0.0326 0.12459,0.0849 0.17616,0.28806 0.0701,0.27602 0.0637,0.35207 -0.0323,0.38894 -0.0931,0.0357 -0.11783,0.24455 -0.11215,0.94708 0.009,1.06374 0.0978,0.89321 0.24426,-0.46668 z m 70.03028,-0.26216 c -0.002,-1.20982 -0.025,-1.54902 -0.097,-1.42502 -0.15301,0.26364 -0.18681,1.27998 -0.0724,2.1776 0.0585,0.45934 0.12119,0.83517 0.13923,0.83517 0.018,0 0.0316,-0.71449 0.0302,-1.58775 z m 0.57573,-6.76923 c 0.0303,-0.33482 -0.003,-0.52629 -0.13956,-0.80446 -0.18673,-0.3802 -0.8186,-1.14789 -0.74236,-0.9019 0.024,0.0773 0.14202,0.62986 0.26233,1.22786 0.33448,1.66245 0.29832,1.56508 0.45094,1.21428 0.0709,-0.16301 0.14681,-0.49411 0.16865,-0.73578 z m -70.43415,-1.85335 c 0,-0.0342 -0.0803,0.0104 -0.17851,0.0991 -0.25913,0.23417 -0.58361,0.9172 -0.58361,1.22849 0,0.22749 0.058,0.15157 0.38106,-0.49853 0.20958,-0.42178 0.38106,-0.79487 0.38106,-0.82907 z m 67.42647,-4.47022 c -0.40147,-0.988655 -0.55251,-1.092995 -0.36421,-0.25162 0.0584,0.26116 0.22803,0.6184 0.41089,0.86554 0.17125,0.23147 0.32132,0.41091 0.33347,0.39875 0.0121,-0.0122 -0.15892,-0.46785 -0.38015,-1.01267 z m -65.01917,-0.12988 c -0.0558,-0.0552 -0.41576,0.35273 -0.5528,0.62653 -0.0466,0.0932 0.0703,0.002 0.25975,-0.20313 0.18947,-0.20487 0.32135,-0.3954 0.29305,-0.4234 z m 4.07393,-0.42678 c -0.0982,-0.158905 -0.94905,-0.590965 -1.33337,-0.677095 -0.45142,-0.10117 -0.91386,-0.0368 -0.91386,0.12721 0,0.0773 0.12528,0.11062 0.40808,0.10843 0.24649,-0.002 0.69076,0.0979 1.12201,0.25193 0.39266,0.1403 0.72571,0.258225 0.7401,0.262055 0.0144,0.004 0.004,-0.0288 -0.023,-0.0725 z m 59.14604,-1.047525 c 1.7e-4,-0.14862 0.058,-0.60052 0.12867,-1.00424 l 0.1284,-0.73402 -0.60587,-1.044265 c -0.51085,-0.88049 -1.82492,-2.926523 -2.01727,-3.140922 -0.0861,-0.09596 0.0525,1.073442 0.2133,1.800292 0.18091,0.81754 0.56911,1.91644 0.9423,2.667425 0.38264,0.77 1.06188,1.81761 1.14513,1.76616 0.0358,-0.0221 0.0652,-0.16181 0.0653,-0.31043 z m 3.90726,-2.769735 c 0.29599,-0.0939 0.63343,-0.2295 0.74987,-0.30121 l 0.2117,-0.13039 -0.2117,0.0418 c -1.33803,0.26431 -2.0594,0.23068 -2.6606,-0.12403 l -0.3032,-0.1789 v 0.25535 c 0,0.23472 0.0393,0.26905 0.48691,0.42508 0.63049,0.21978 1.06358,0.22286 1.72702,0.0123 z m -3.48413,-0.0802 c 0,-0.0915 -0.0748,-0.2064 -0.16615,-0.2553 -0.16193,-0.0867 -0.16247,-0.0825 -0.0212,0.16585 0.17118,0.3008 0.18732,0.3085 0.18732,0.0894 z m -61.34258,-1.8692 c 0.28966,-0.44424 0.76143,-1.124363 1.04838,-1.511375 0.28695,-0.387012 0.50362,-0.72177 0.48149,-0.743906 -0.0987,-0.09872 -1.35543,0.585448 -1.7454,0.950219 -0.52584,0.491858 -0.68229,0.947242 -0.68026,1.979962 l 10e-4,0.72558 0.18386,-0.29638 c 0.10112,-0.16301 0.42085,-0.65985 0.71051,-1.1041 z m 61.40607,0.69574 c -0.0826,-0.91074 -0.52803,-1.47404 -1.54539,-1.954246 -0.93366,-0.440696 -0.96151,-0.434099 -0.5507,0.130456 0.19859,0.272914 0.51372,0.73585 0.70028,1.02875 0.22458,0.35258 0.51415,0.65935 0.85693,0.90781 0.28475,0.2064 0.53255,0.3764 0.55066,0.37777 0.0181,10e-4 0.0128,-0.21937 -0.0118,-0.49054 z m -4.68925,-4.185531 c -0.11705,-0.196549 -1.83644,-2.012862 -1.87189,-1.977408 -0.0699,0.06989 0.40482,0.958805 0.67474,1.263477 0.152,0.171577 0.48595,0.425528 0.74211,0.564336 0.5346,0.289689 0.53941,0.291272 0.45504,0.149595 z m -52.1098,-0.917164 c 0.26922,-0.143491 0.58637,-0.362601 0.70478,-0.48691 0.27694,-0.290739 0.81942,-1.193043 0.81942,-1.362944 0,-0.0719 -0.47633,0.344451 -1.0585,0.925228 -1.28849,1.285392 -1.34203,1.391706 -0.4657,0.924626 z m 67.13003,22.052265 c 0.0582,-0.0235 0.15348,-0.0235 0.2117,0 0.0582,0.0235 0.0106,0.0427 -0.10585,0.0427 -0.11644,0 -0.16407,-0.0192 -0.10585,-0.0427 z M 252.19429,87.358697 c -1.21562,-0.294272 -2.55407,-1.337967 -3.40158,-2.652485 -0.7958,-1.234306 -1.61557,-3.078515 -2.18668,-4.919263 -0.57892,-1.865927 -0.97598,-3.856516 -0.78215,-3.921128 0.34653,-0.115511 2.92853,2.008491 3.74826,3.083386 0.17222,0.225837 0.32837,0.395379 0.34698,0.376763 0.0186,-0.01862 -0.0816,-0.274994 -0.2227,-0.569726 -0.49536,-1.034668 -1.31632,-1.867463 -3.54806,-3.599207 -0.57065,-0.4428 -1.01305,-0.844725 -0.98311,-0.893165 0.0341,-0.05525 0.25992,-0.06889 0.60577,-0.03659 0.91794,0.08572 1.9567,0.651447 2.967,1.615891 0.74088,0.707251 1.2195,1.380045 2.173,3.054635 0.94761,1.664226 1.87196,3.082901 2.57916,3.958465 0.45616,0.564747 1.69287,1.810787 2.35426,2.372018 0.2076,0.17616 0.2752,0.302095 0.2752,0.512671 0,0.343137 -0.38795,0.977352 -0.75982,1.242147 -0.67255,0.478896 -2.05915,0.643414 -3.16553,0.375588 z m 4.43478,-0.659546 c 0.32646,-0.454589 0.40825,-0.940629 0.21965,-1.305335 -0.16536,-0.319769 -0.16784,-0.356707 -0.0239,-0.356707 0.16237,0 1.74497,-0.998092 3.35001,-2.112736 1.43653,-0.997624 1.81736,-1.193016 2.1874,-1.122279 0.73384,0.140282 1.82512,2.282639 1.94328,3.81498 0.0667,0.864736 0.0153,0.910813 -0.85872,0.769821 -1.10883,-0.178873 -2.63791,-0.06097 -4.39035,0.338539 -0.9894,0.225555 -1.71282,0.343995 -2.10109,0.343995 h -0.59216 z m -25.7026,0.132627 c -0.19446,-0.09122 -0.7554,-0.584781 -1.31254,-1.154891 -1.02889,-1.052844 -1.34896,-1.263723 -2.88737,-1.902357 -0.35432,-0.147088 -0.72747,-0.356052 -0.82923,-0.464365 -0.15899,-0.169243 -0.17112,-0.227408 -0.0862,-0.413686 0.18203,-0.399518 1.50848,-1.16189 2.02157,-1.16189 0.11794,0 0.31998,0.224743 0.67003,0.745341 0.27564,0.409939 0.69881,0.961601 0.94038,1.225918 0.85634,0.936969 2.30974,1.938773 3.47733,2.39686 0.32433,0.127246 0.58969,0.255589 0.58969,0.285205 0,0.08881 -1.39635,0.515484 -1.8357,0.560925 -0.29326,0.03033 -0.50401,-0.0027 -0.74791,-0.11706 z m 17.40261,-0.450354 c -2.20589,-0.357337 -2.7419,-0.764836 -3.13626,-2.384325 -0.29007,-1.191192 -0.74429,-2.520535 -0.99008,-2.89761 -0.12143,-0.186296 -0.50971,-0.696534 -0.86283,-1.133861 -1.5151,-1.876369 -1.63671,-2.111886 -1.26786,-2.455524 0.29785,-0.27749 0.92996,-0.376196 2.08867,-0.326155 0.73014,0.03153 1.09021,0.08132 1.17078,0.161894 0.0694,0.06942 0.15275,0.474203 0.20658,1.003521 0.29067,2.858444 1.34786,5.349084 3.17119,7.471035 0.63471,0.738661 0.64279,0.72674 -0.38019,0.561025 z M 234.4839,86.046838 c -1.51691,-0.211061 -3.42151,-1.522464 -5.26501,-3.625199 -0.62218,-0.70967 -1.43361,-1.849559 -1.36526,-1.917905 0.0577,-0.05767 1.4965,0.19617 2.09989,0.370468 0.30273,0.08745 0.79157,0.256427 1.08631,0.375512 0.4462,0.180275 0.51273,0.190919 0.39751,0.06359 -0.41446,-0.457969 -1.85341,-0.972306 -3.55848,-1.271933 -0.55889,-0.09821 -1.04636,-0.208683 -1.08326,-0.24549 -0.19538,-0.194861 0.56097,-0.43266 1.37111,-0.431085 1.21773,0.0024 2.20836,0.356176 3.63072,1.296726 2.27753,1.506046 3.91351,2.300703 5.36355,2.60527 0.60204,0.126452 0.75246,0.268709 0.75246,0.711618 0,1.248302 -1.74778,2.302423 -3.42954,2.068424 z m 4.00185,-2.096853 c 0.0349,-0.363018 0.0105,-0.442595 -0.21408,-0.69861 l -0.25344,-0.288926 0.20587,-0.29638 c 0.11322,-0.163009 0.6136,-1.03524 1.11195,-1.938291 0.49835,-0.903051 0.99166,-1.698022 1.09625,-1.766604 0.42205,-0.276757 1.37516,0.221431 2.27832,1.190864 0.55104,0.591476 0.75295,0.917317 0.68237,1.101233 -0.0259,0.06758 -0.32631,0.229102 -0.66752,0.358943 -0.83931,0.319392 -1.6195,0.79793 -2.43981,1.496481 -0.7912,0.673765 -1.59347,1.250974 -1.73873,1.250974 -0.0692,0 -0.0883,-0.127803 -0.0612,-0.409684 z m 17.02073,0.29017 c -0.48099,-0.173153 -0.6948,-0.339783 -1.17751,-0.917661 -0.71205,-0.852429 -1.6873,-2.204735 -1.65655,-2.296999 0.065,-0.195011 0.48009,-0.401234 1.07618,-0.534662 0.48303,-0.108125 1.10143,-0.144875 2.58274,-0.15349 1.0712,-0.0062 2.01344,-0.04109 2.09386,-0.07747 0.11023,-0.04986 0.17155,-0.01055 0.24912,0.15971 0.24901,0.546516 -0.37671,2.072898 -1.21878,2.973069 -0.75566,0.807806 -1.34613,1.064554 -1.94906,0.847498 z m 2.22208,-0.301834 c 0,-0.178044 1.24326,-1.737146 1.78669,-2.240591 0.60551,-0.560955 1.61624,-1.243101 2.44731,-1.6517 0.30273,-0.14884 0.6412,-0.35376 0.75216,-0.455379 0.23958,-0.219422 0.60072,-0.952691 0.60189,-1.222092 10e-4,-0.262094 -0.2227,-0.243955 -0.45015,0.03648 -0.51589,0.636046 -1.03615,1.067492 -1.92006,1.592265 -0.5356,0.317984 -1.1707,0.745609 -1.41133,0.950277 -0.37708,0.320716 -0.44408,0.351064 -0.48503,0.219677 -0.0692,-0.221972 0.15823,-1.110712 0.35048,-1.369673 0.15197,-0.204715 0.55799,-0.563546 1.56714,-1.385007 0.71045,-0.57832 1.05325,-1.656378 0.82682,-2.600246 -0.0578,-0.240835 -0.0854,-0.457537 -0.0614,-0.481559 0.1188,-0.1188 0.84873,0.406825 1.45279,1.046164 0.37216,0.393891 0.68904,0.679009 0.70418,0.633596 0.0447,-0.134142 -0.9856,-1.777668 -1.3218,-2.108482 -0.46152,-0.454145 -1.04955,-0.688914 -2.05687,-0.821213 -0.69857,-0.09175 -1.00885,-0.179474 -1.48773,-0.420638 -0.3328,-0.167592 -0.63096,-0.346588 -0.66259,-0.397769 -0.088,-0.14233 0.28127,-0.483163 0.69433,-0.640909 0.46858,-0.178952 1.27686,-0.116658 1.90968,0.147178 1.64576,0.686161 4.28024,2.749196 4.60858,3.608936 0.34017,0.890716 0.11075,1.859439 -0.62979,2.659315 -0.55154,0.595724 -1.0451,0.942077 -2.38857,1.676155 -1.22128,0.667311 -3.34073,2.108884 -4.55155,3.095802 -0.15137,0.123374 -0.27521,0.181611 -0.27521,0.129415 z m -22.38608,-1.564977 c -1.12138,-0.516021 -1.409,-0.68366 -1.409,-0.821239 0,-0.121255 0.50166,-0.593501 0.98026,-0.92279 0.20615,-0.141834 0.82854,-0.482618 1.38308,-0.757297 0.55455,-0.274679 1.03308,-0.539559 1.0634,-0.588623 0.12405,-0.20072 0.39304,-0.08792 0.52108,0.218523 0.4319,1.033695 0.0667,2.838284 -0.64927,3.208543 -0.4325,0.223655 -0.82189,0.154183 -1.88955,-0.337117 z m 2.90968,-0.59017 c 0,-0.08195 0.0784,-0.533783 0.17425,-1.004072 0.20481,-1.005015 0.55598,-1.794484 1.21226,-2.725277 0.50266,-0.712922 0.60108,-1.006853 0.495,-1.478385 -0.0827,-0.367516 -0.25027,-0.429553 -0.31932,-0.118197 -0.13846,0.624326 -0.3334,1.063619 -0.7966,1.795123 -0.27657,0.436763 -0.52679,0.903125 -0.55606,1.036359 -0.0809,0.368369 -0.19885,0.375102 -0.3473,0.01982 -0.18415,-0.440749 -0.11747,-0.9555 0.22326,-1.723281 0.36861,-0.830601 0.41496,-1.356069 0.16989,-1.925754 -0.1025,-0.238266 -0.25905,-0.498992 -0.34789,-0.579392 -0.0888,-0.0804 -0.16153,-0.178383 -0.16153,-0.217738 0,-0.144015 0.68845,-0.06595 1.23601,0.140144 0.81648,0.307322 0.91558,0.259069 0.28823,-0.140342 -1.11966,-0.712849 -1.70465,-0.824747 -2.56066,-0.489818 -0.81581,0.319194 -1.92738,0.390719 -1.92738,0.124018 0,-0.208265 0.38901,-0.66875 0.70092,-0.829706 0.43711,-0.225561 1.21207,-0.302663 2.17548,-0.216443 1.03321,0.09247 2.49715,0.450107 2.89275,0.706702 0.42304,0.27439 0.68089,0.832177 0.67786,1.466336 -0.004,0.741525 -0.22083,1.226013 -1.16563,2.599036 -0.28917,0.420235 -0.85643,1.410991 -1.26057,2.20168 -0.40415,0.79069 -0.75015,1.453494 -0.76889,1.4729 -0.0188,0.01941 -0.0341,-0.03177 -0.0341,-0.113718 z m -4.6574,-0.471193 c 0,-0.330786 0.46112,-0.820365 2.04404,-2.170174 1.34161,-1.144041 1.83929,-2.113968 1.59889,-3.116066 -0.0605,-0.25216 -0.0868,-0.518854 -0.0585,-0.592653 0.0813,-0.211755 0.43795,-0.156924 0.72529,0.111495 0.23107,0.215845 0.263,0.300892 0.263,0.700443 0,0.57123 -0.2417,1.456194 -0.53389,1.954772 -0.34005,0.580246 -0.98357,1.102481 -1.99786,1.621301 -0.71489,0.365676 -1.01845,0.578221 -1.37349,0.961692 -0.50039,0.540444 -0.66748,0.67292 -0.66748,0.52919 z m -1.01616,-0.687886 c -0.30273,-0.23633 -0.56445,-0.443308 -0.5816,-0.459952 -0.0171,-0.01664 0.0172,-0.273439 0.0762,-0.570657 0.0591,-0.297218 0.0803,-0.64858 0.0471,-0.780805 -0.0556,-0.221481 -0.59154,-0.804012 -0.73972,-0.804012 -0.0352,0 0.0374,0.195606 0.16144,0.434681 0.21996,0.423961 0.38424,1.512959 0.22824,1.512959 -0.0363,0 -0.22694,-0.09436 -0.42374,-0.209687 -0.33974,-0.199104 -0.37558,-0.25978 -0.71001,-1.20216 -0.42655,-1.201981 -0.44717,-1.709644 -0.0747,-1.83992 0.18584,-0.065 0.35124,-0.02279 0.90814,0.231776 0.96675,0.441913 1.53431,0.573858 2.46353,0.572723 0.92959,-0.0011 1.56219,-0.145965 2.43455,-0.557373 0.73417,-0.346239 0.76611,-0.289893 0.30401,0.536421 -0.19722,0.352653 -0.60671,0.848336 -1.12602,1.363017 -0.80771,0.800522 -2.33201,2.207608 -2.388,2.204361 -0.016,-9.25e-4 -0.27669,-0.195042 -0.57942,-0.431372 z m 2.47536,-2.011677 c 0.69957,-0.338658 0.59302,-0.414469 -0.51823,-0.368703 -1.1819,0.04868 -1.6353,-0.05606 -2.71925,-0.628127 -0.39588,-0.20893 -0.68167,-0.34415 -0.6351,-0.300488 0.10935,0.102516 1.22496,1.039159 1.41759,1.190182 0.50583,0.396575 1.74535,0.450667 2.45499,0.107136 z m 17.33976,1.865095 c 0,-0.294299 0.96989,-0.708988 2.50128,-1.069455 2.81489,-0.662583 3.48185,-0.915754 4.26321,-1.618263 0.55528,-0.499245 0.84149,-0.987944 0.94267,-1.609595 0.0439,-0.269848 0.13458,-0.545365 0.20148,-0.612261 0.29452,-0.29452 0.82741,0.164014 0.95104,0.81834 0.0863,0.45702 -0.24936,1.048957 -1.06912,1.885121 -1.18495,1.208651 -1.99621,1.511182 -4.06464,1.515767 -1.38896,0.0031 -2.05653,0.116034 -2.96135,0.501071 -0.6481,0.275791 -0.76457,0.304624 -0.76457,0.189275 z m -0.74875,-1.516194 c -0.19381,-0.454097 -0.35231,-0.892854 -0.35223,-0.975016 7e-5,-0.08216 0.16747,-0.354825 0.37199,-0.605915 0.64039,-0.786235 0.68046,-1.186125 0.20858,-2.081479 l -0.24547,-0.46574 0.0497,0.427028 c 0.071,0.609065 -0.10055,1.4614 -0.39936,1.984587 l -0.2559,0.448066 -0.34027,-0.517794 -0.34028,-0.517794 0.1828,-1.293107 c 0.2614,-1.849137 0.25788,-1.834965 0.53431,-2.149809 0.43607,-0.496653 0.67704,-0.399281 1.44465,0.583757 1.08399,1.388199 2.16836,2.183946 3.63988,2.671052 0.81904,0.271124 2.39809,0.49381 2.91116,0.41055 0.25471,-0.04133 0.2748,-0.03029 0.1998,0.10985 -0.35559,0.66443 -2.48042,1.650776 -4.57392,2.123217 -0.58239,0.131426 -1.36373,0.336394 -1.73632,0.455485 -0.37259,0.119091 -0.73805,0.217016 -0.81212,0.217611 -0.0902,7.62e-4 -0.25106,-0.271627 -0.48705,-0.824549 z m 5.00811,-1.050905 c 0.15266,-0.0817 0.0929,-0.120253 -0.49751,-0.32076 -1.69524,-0.575744 -2.7717,-1.44252 -3.81769,-3.074035 -0.20155,-0.314375 -0.38527,-0.57159 -0.40828,-0.57159 -0.023,0 0.0564,0.219109 0.1764,0.48691 0.12003,0.2678 0.35771,0.827736 0.52819,1.2443 0.38892,0.950364 0.97142,1.618884 1.73607,1.992463 0.81253,0.396968 1.79868,0.501817 2.28282,0.242712 z m -26.50707,1.366541 c -0.10371,-0.04172 -0.52288,-0.12044 -0.93148,-0.174931 -0.4086,-0.05449 -0.83047,-0.153379 -0.93748,-0.219755 -0.4778,-0.296352 -0.67987,-1.117487 -0.38225,-1.553368 0.0786,-0.115155 0.58778,-0.744415 1.13146,-1.398355 1.73484,-2.08667 2.5564,-2.668201 3.84872,-2.724243 0.55899,-0.02424 0.75731,0.0044 1.13424,0.163644 0.25125,0.106162 0.51195,0.277008 0.57934,0.379658 0.11231,0.171069 0.10358,0.20558 -0.1046,0.413758 -0.21347,0.213469 -0.26025,0.224028 -0.77832,0.175651 -0.90293,-0.08432 -1.58278,0.334302 -1.85014,1.139234 -0.26491,0.797586 -0.60951,1.066281 -1.13135,0.882163 -0.43095,-0.152046 -0.82972,-0.039 -0.94657,0.268334 -0.0915,0.240629 0.0484,0.856276 0.4358,1.91771 0.32451,0.8892 0.32461,0.888186 -0.0674,0.7305 z m 4.33789,-2.076669 c -0.0466,-0.01298 -0.18842,-0.04645 -0.31521,-0.07438 -0.32894,-0.07245 -0.57393,-0.369622 -0.57393,-0.696179 0,-0.213536 0.0661,-0.329543 0.28919,-0.507552 0.49359,-0.393847 1.02805,-0.556993 1.976,-0.60318 l 0.86797,-0.04229 v 0.246298 c 0,0.135464 0.0598,0.331698 0.13292,0.436076 0.21262,0.30355 0.11607,0.43872 -0.50119,0.701676 -0.31898,0.135888 -0.5957,0.24707 -0.61493,0.24707 -0.0192,0 -0.0108,-0.151117 0.0187,-0.335816 0.0483,-0.302316 0.0322,-0.345617 -0.16194,-0.434065 -0.17979,-0.08192 -0.27878,-0.06768 -0.59555,0.08567 -0.20895,0.101154 -0.3998,0.235728 -0.4241,0.299053 -0.037,0.09651 -0.009,0.09696 0.17241,0.0028 0.28692,-0.148855 0.56903,-0.04132 0.60187,0.229417 0.014,0.115397 -0.0241,0.248897 -0.0847,0.296665 -0.11472,0.09047 -0.64044,0.189778 -0.78757,0.148769 z m -2.063,-0.277855 c -0.70255,-0.22452 -0.70674,-0.227548 -0.53267,-0.384528 0.17224,-0.155315 0.28347,-0.154596 0.81739,0.0053 0.11675,0.03496 0.0833,-0.02174 -0.10776,-0.182515 -0.44354,-0.373293 -0.48758,-0.519389 -0.25859,-0.85782 0.31562,-0.466462 0.80478,-0.6568 1.56291,-0.608146 0.87356,0.05606 0.92963,0.155901 0.2718,0.483973 -0.89093,0.444316 -1.07627,0.790813 -0.78978,1.476471 0.12547,0.300292 0.12413,0.306583 -0.0635,0.300153 -0.10542,-0.0036 -0.51033,-0.108403 -0.89979,-0.23287 z m 26.06988,-0.416623 c -0.75036,-0.03504 -0.87829,-0.117408 -0.56503,-0.363817 0.27589,-0.217013 0.30017,-0.58054 0.0537,-0.803614 -0.24683,-0.223373 -1.0685,-0.272052 -1.43068,-0.08476 -0.32744,0.169326 -0.30568,0.240288 0.043,0.140282 0.44939,-0.128883 0.83168,0.138478 0.78302,0.547618 -0.0568,0.477384 -0.56167,0.482225 -1.33838,0.01283 -0.80104,-0.484099 -0.98585,-1.269084 -0.40097,-1.703212 0.29591,-0.219647 1.23708,-0.288273 1.91657,-0.139749 0.41856,0.09149 2.04333,0.775779 2.24203,0.944257 0.0428,0.03633 0.0137,0.194253 -0.0674,0.365135 -0.0973,0.204983 -0.12507,0.3961 -0.0871,0.59863 0.0653,0.348187 -0.066,0.55787 -0.33364,0.532871 -0.0991,-0.0093 -0.46591,-0.03017 -0.81516,-0.04648 z m -9.09042,-0.829379 c -0.22584,-0.207831 -0.72584,-0.585466 -1.11112,-0.839188 -0.72911,-0.480158 -0.97632,-0.827563 -0.97632,-1.372011 0,-0.775128 0.45134,-1.325013 1.41235,-1.720724 0.36427,-0.149994 1.28687,-0.537457 2.05023,-0.861029 1.78561,-0.756881 2.63605,-1.004659 3.65054,-1.063594 0.95269,-0.05535 1.57248,0.05486 2.2707,0.403768 0.73281,0.36619 1.62272,1.320307 1.62402,1.741199 0.002,0.496293 -0.74981,0.550636 -1.439,0.104079 -0.62545,-0.405256 -1.03154,-0.527738 -1.54722,-0.466663 -0.53486,0.06335 -1.00989,0.309343 -1.52422,0.789338 -0.4097,0.382336 -0.85273,0.620945 -1.15293,0.620945 -0.0908,0 -0.36605,-0.171477 -0.61159,-0.38106 -0.37913,-0.323625 -0.50143,-0.38106 -0.81137,-0.38106 -0.46069,0 -0.65473,0.183554 -0.8245,0.779955 -0.10465,0.367615 -0.47193,2.663512 -0.47193,2.950032 0,0.147148 -0.12296,0.07762 -0.53764,-0.303987 z m 4.53063,-1.101213 c -0.79816,-0.759113 -0.86265,-0.843101 -0.72477,-0.943921 0.23628,-0.172772 0.36144,-0.136127 0.80584,0.235939 0.22769,0.190633 0.41398,0.327163 0.41398,0.303401 0,-0.02376 -0.0762,-0.221001 -0.16936,-0.438306 -0.28838,-0.672756 -0.22278,-0.857315 0.4234,-1.191234 0.46002,-0.237722 1.05106,-0.194126 1.72432,0.127188 0.55955,0.267049 1.1548,0.710918 1.1548,0.861118 0,0.04175 -0.38229,0.07591 -0.84952,0.07591 -0.53038,0 -0.9545,0.04386 -1.12896,0.116758 -0.37927,0.158467 -0.64445,0.517763 -0.65662,0.889652 -0.006,0.168371 -0.0341,0.41652 -0.0635,0.55144 l -0.0535,0.245311 z"
       id="path3620" /><path
       style="fill:#ffd42a;fill-opacity:1;stroke-width:23.0331"
       d="m 287.18505,88.013847 -20.91743,8.621071"
       id="path3818" /><path
       style="fill:#ffd42a;fill-opacity:1;stroke-width:0.132292"
       d="m 252.09948,87.248886 c -0.8963,-0.280114 -1.66586,-0.798062 -2.45967,-1.655476 -0.89078,-0.962152 -1.52511,-2.063724 -2.30084,-3.995669 -0.57651,-1.435796 -1.49504,-4.719471 -1.49504,-5.344665 0,-0.320964 0.009,-0.323853 0.38952,-0.127008 0.56703,0.293222 1.93347,1.449665 2.8847,2.441376 0.89219,0.930162 1.04919,0.863394 0.44351,-0.188613 -0.41207,-0.71573 -1.45241,-1.751478 -3.12266,-3.108854 l -1.05809,-0.859896 0.44262,-0.0424 c 1.32697,-0.127113 3.32363,1.671331 4.96976,4.476396 1.61938,2.759474 2.46771,3.921389 3.90839,5.353105 0.89285,0.887288 1.32871,1.417378 1.32871,1.615969 0,0.162545 -0.1842,0.505323 -0.40933,0.761733 -0.68411,0.779156 -2.23521,1.076024 -3.52158,0.674002 z"
       id="path4720" /><path
       style="fill:#ffd42a;fill-opacity:1;stroke-width:0.132292"
       d="m 252.09948,87.248886 c -1.3665,-0.427064 -2.77818,-1.694203 -3.67193,-3.295964 -0.79097,-1.417548 -1.6057,-3.552902 -2.11631,-5.546709 -0.46142,-1.801678 -0.56176,-2.47599 -0.36809,-2.473505 0.21935,0.0028 2.00496,1.4464 2.91788,2.358996 0.53436,0.534162 1.001,0.941768 1.03698,0.905787 0.13045,-0.130445 -0.48468,-1.130707 -1.1232,-1.826447 -0.35939,-0.391602 -1.2823,-1.21802 -2.05091,-1.836484 -0.7686,-0.618464 -1.40009,-1.160238 -1.4033,-1.203941 -0.003,-0.0437 0.30003,-0.03111 0.67387,0.02799 1.64788,0.260495 3.13287,1.691735 5.00883,4.827542 1.56334,2.613229 2.43204,3.777337 3.88717,5.209035 0.75782,0.745614 1.13992,1.220769 1.13992,1.417531 0,0.162785 -0.1842,0.505762 -0.40933,0.762172 -0.68411,0.779156 -2.23521,1.076024 -3.52158,0.674002 z"
       id="path4722" /><path
       style="fill:#e06c9f;fill-opacity:1;stroke-width:0.0330729"
       d="m 252.5412,87.410346 c -1.01126,-0.180618 -1.86408,-0.660548 -2.76531,-1.556208 -0.7114,-0.707004 -1.11974,-1.303017 -1.73079,-2.526276 -0.78699,-1.575472 -1.377,-3.19831 -1.84809,-5.083278 -0.35712,-1.428914 -0.48651,-2.299597 -0.34957,-2.352146 0.17407,-0.0668 1.2696,0.71192 2.31159,1.643123 0.42616,0.380844 1.37253,1.339104 1.37253,1.389769 0,0.04997 0.34392,0.30688 0.35726,0.266872 0.0195,-0.05842 -0.33241,-0.762992 -0.5196,-1.040392 -0.50941,-0.754925 -1.13494,-1.355053 -2.79769,-2.684105 -1.1158,-0.891873 -1.39643,-1.141015 -1.35703,-1.204767 0.0381,-0.06172 0.68664,-0.02381 0.99362,0.05809 1.20889,0.322503 2.54554,1.342959 3.49567,2.668738 0.31624,0.441272 0.54466,0.809985 1.24986,2.017448 1.20559,2.06424 2.03801,3.310882 2.75937,4.132461 0.38198,0.435033 1.25671,1.317104 1.79259,1.807612 0.55305,0.506228 0.63062,0.620898 0.58869,0.87026 -0.0694,0.41276 -0.48106,0.992298 -0.87744,1.235297 -0.16927,0.103775 -0.52926,0.234418 -0.85665,0.310896 -0.3672,0.08578 -1.44508,0.113393 -1.81901,0.0466 z"
       id="path5470" /><path
       style="fill:#e06c9f;fill-opacity:1;stroke-width:0.0330729"
       d="m 255.46444,84.203755 c -0.43138,-0.160359 -0.65338,-0.338895 -1.1296,-0.90845 -0.66401,-0.794168 -1.62828,-2.127475 -1.62828,-2.251459 0,-0.134143 0.27442,-0.304614 0.71253,-0.442624 0.58221,-0.183406 0.94451,-0.213518 3.07432,-0.255521 0.94588,-0.01865 1.78574,-0.04689 1.86636,-0.06274 0.18717,-0.03681 0.21433,-0.02471 0.27746,0.123534 0.0825,0.193662 0.0941,0.31056 0.0552,0.555038 -0.19954,1.254366 -1.38797,2.886503 -2.36907,3.253581 -0.2477,0.09268 -0.59128,0.08813 -0.85892,-0.01135 z"
       id="path5472" /><path
       style="fill:#e06c9f;fill-opacity:1;stroke-width:0.0330729"
       d="m 248.60552,86.41093 c -1.4172,-0.215329 -2.19105,-0.470734 -2.61663,-0.863613 -0.38815,-0.358326 -0.55661,-0.706631 -0.80966,-1.674072 -0.27392,-1.047253 -0.57815,-1.97362 -0.83232,-2.534388 -0.11239,-0.24796 -0.37037,-0.601152 -1.23185,-1.686452 -0.98516,-1.241107 -1.19019,-1.555721 -1.19024,-1.826395 -6e-5,-0.252388 0.32009,-0.478663 0.81085,-0.573098 0.53434,-0.102819 2.23566,-0.05023 2.49641,0.07717 0.10365,0.05064 0.12161,0.08 0.17176,0.280765 0.0308,0.123317 0.0879,0.487945 0.1269,0.810287 0.35978,2.974432 1.31583,5.214448 3.16054,7.405068 0.58468,0.694314 0.58579,0.686758 -0.0858,0.584724 z"
       id="path5474" /><path
       style="fill:#e06c9f;fill-opacity:1;stroke-width:0.0330729"
       d="m 249.75866,75.953602 c -0.0661,-0.04857 -0.22653,-0.181388 -0.35653,-0.295148 -0.25529,-0.223388 -0.64852,-0.521258 -1.18493,-0.897573 -0.74429,-0.522152 -0.95651,-0.896162 -0.86836,-1.530379 0.0764,-0.549799 0.45268,-1.014132 1.07485,-1.326414 0.19472,-0.09774 2.21999,-0.951971 3.07571,-1.297295 1.5216,-0.614039 2.42343,-0.808865 3.55234,-0.767431 0.69229,0.0254 1.05218,0.115173 1.63984,0.409011 0.56412,0.282067 1.23056,0.907031 1.49682,1.403659 0.23137,0.431576 0.0746,0.690992 -0.41768,0.690992 -0.27614,0 -0.54591,-0.09363 -0.93859,-0.325761 -0.58665,-0.346794 -0.84078,-0.433898 -1.26774,-0.434525 -0.54861,-7.94e-4 -1.07768,0.21504 -1.58911,0.648303 -0.59131,0.500947 -0.91395,0.702107 -1.20992,0.754359 -0.17321,0.03058 -0.27659,-0.02633 -0.78882,-0.434197 -0.29701,-0.2365 -0.46104,-0.305821 -0.72519,-0.306488 -0.40968,-0.0011 -0.57832,0.106124 -0.74661,0.474385 -0.12847,0.281141 -0.41347,1.813181 -0.54836,2.947752 -0.0216,0.181901 -0.0479,0.340704 -0.0584,0.352896 -0.0105,0.0122 -0.0732,-0.01757 -0.13928,-0.06615 z"
       id="path5476" /><path
       style="fill:#e06c9f;fill-opacity:1;stroke-width:0.0330729"
       d="m 252.0317,79.67412 c -0.16715,-0.22257 -0.66133,-1.362602 -0.70362,-1.623211 -0.022,-0.135387 0.0232,-0.218546 0.37327,-0.687112 0.31787,-0.425472 0.39709,-0.566317 0.46572,-0.827958 0.0961,-0.366549 0.0223,-0.651746 -0.36494,-1.40987 -0.0869,-0.170156 -0.16406,-0.303342 -0.17143,-0.295971 -0.007,0.0074 0.004,0.18578 0.0249,0.396463 0.0702,0.702974 -0.0934,1.471718 -0.44743,2.102297 -0.0945,0.168254 -0.17922,0.305731 -0.18831,0.305509 -0.009,-2.22e-4 -0.16164,-0.221496 -0.33899,-0.491718 l -0.32245,-0.49131 0.1816,-1.269407 c 0.26419,-1.846707 0.26929,-1.86672 0.55226,-2.165919 0.44016,-0.465402 0.60029,-0.391252 1.47296,0.682062 0.67928,0.835464 1.17056,1.300379 1.86113,1.76127 1.14669,0.765299 2.75184,1.225674 4.28779,1.229786 l 0.56708,0.0016 -0.0492,0.09509 c -0.17086,0.330411 -0.98822,0.858832 -1.97502,1.276844 -0.85722,0.363125 -1.56976,0.586441 -2.99603,0.938985 -0.48204,0.11915 -1.07736,0.27744 -1.32292,0.351756 -0.24557,0.07432 -0.53227,0.155469 -0.63712,0.18034 l -0.19065,0.04522 z m 4.45079,-1.673291 c 0.16716,-0.05103 0.28675,-0.151543 0.23864,-0.200563 -0.0203,-0.02066 -0.27619,-0.124356 -0.56871,-0.230444 -1.74593,-0.633219 -2.64851,-1.357249 -3.77576,-3.028825 -0.19678,-0.291796 -0.38411,-0.552247 -0.4163,-0.578776 -0.0542,-0.0447 -0.0568,-0.04117 -0.0345,0.04816 0.0373,0.149688 0.76946,1.856269 0.92297,2.151348 0.52439,1.007946 1.38554,1.635879 2.5444,1.85533 0.27206,0.05152 0.89789,0.0422 1.08926,-0.01622 z"
       id="path5478" /><path
       style="fill:#e06c9f;fill-opacity:1;stroke-width:0.0330729"
       d="m 254.07205,74.680279 c -0.6983,-0.665509 -0.90247,-0.884643 -0.90247,-0.968606 0,-0.02442 0.0599,-0.07497 0.13321,-0.112347 0.13174,-0.06721 0.13476,-0.06727 0.27285,-0.0055 0.0768,0.03438 0.29591,0.185475 0.48691,0.335772 0.2402,0.189018 0.35033,0.257958 0.35721,0.223618 0.005,-0.0273 -0.0486,-0.190228 -0.12007,-0.362051 -0.0715,-0.171823 -0.1468,-0.390662 -0.16731,-0.486312 -0.0702,-0.327128 0.085,-0.521705 0.61711,-0.773761 0.21186,-0.100364 0.24085,-0.105288 0.6029,-0.102412 0.42182,0.0034 0.6795,0.07055 1.11869,0.291719 0.46447,0.2339 1.12195,0.733327 1.05437,0.800904 -0.0343,0.03434 -0.52899,0.07397 -0.9659,0.07738 -0.78701,0.0062 -1.10535,0.09538 -1.37188,0.384535 -0.17812,0.193238 -0.25296,0.369702 -0.27921,0.658323 -0.0297,0.326514 -0.0871,0.675227 -0.11382,0.691758 -0.0125,0.0077 -0.33763,-0.286181 -0.72259,-0.653071 z"
       id="path5480" /><path
       style="fill:#e06c9f;fill-opacity:1;stroke-width:0.0330729"
       d="m 258.99041,76.520924 c -0.86026,-0.04788 -1.19062,-0.09751 -1.19062,-0.17889 0,-0.02064 0.0739,-0.118324 0.16411,-0.217083 0.17465,-0.191098 0.22263,-0.32548 0.18596,-0.52089 -0.046,-0.245243 -0.25657,-0.391295 -0.65326,-0.453104 -0.4052,-0.06314 -0.83492,-0.0044 -1.05414,0.144171 -0.16432,0.111334 -0.16876,0.169574 -0.0111,0.144896 0.42787,-0.06695 0.53029,-0.06486 0.67009,0.01371 0.14106,0.07928 0.26834,0.279945 0.26834,0.423053 0,0.120777 -0.088,0.293814 -0.18012,0.354174 -0.0681,0.04462 -0.13291,0.0529 -0.30556,0.03904 -0.1763,-0.01416 -0.28436,-0.05026 -0.55298,-0.184791 -0.41044,-0.205555 -0.66563,-0.404066 -0.81931,-0.637349 -0.1566,-0.237715 -0.20282,-0.393893 -0.18588,-0.628052 0.0238,-0.329264 0.23774,-0.565203 0.61964,-0.683406 0.27235,-0.0843 1.35156,-0.08198 1.65572,0.0035 0.31923,0.08977 1.24537,0.461803 1.7446,0.700799 0.50293,0.240768 0.49348,0.224906 0.35426,0.594783 -0.0727,0.193162 -0.0829,0.26793 -0.0759,0.557911 0.0108,0.451086 -0.0589,0.560422 -0.34662,0.543711 -0.0579,-0.0034 -0.18719,-0.01066 -0.28724,-0.01624 z"
       id="path5482" /><path
       style="fill:#e06c9f;fill-opacity:1;stroke-width:0.0330729"
       d="m 252.4089,80.466348 c 0,-0.0797 0.20073,-0.24579 0.46012,-0.380717 0.40902,-0.212762 1.06216,-0.415716 2.46305,-0.76536 2.71969,-0.678796 3.19434,-0.878983 3.98907,-1.6824 0.46722,-0.472329 0.66676,-0.822786 0.77606,-1.362996 0.1551,-0.766641 0.31128,-0.921541 0.68188,-0.676288 0.1436,0.09503 0.30137,0.324593 0.39682,0.577413 0.20752,0.549624 -0.0964,1.159325 -1.05849,2.123736 -0.66171,0.66329 -1.1488,0.995453 -1.76122,1.201034 -0.56714,0.190384 -0.99359,0.239482 -2.45809,0.283012 -1.45993,0.04339 -1.73134,0.09233 -2.76708,0.498903 -0.59306,0.232799 -0.72212,0.265623 -0.72212,0.183663 z"
       id="path5484" /><path
       style="fill:#e06c9f;fill-opacity:1;stroke-width:0.0330729"
       d="m 257.77985,83.865874 c 0.0673,-0.175311 0.75859,-1.070491 1.28016,-1.65767 0.69275,-0.779878 1.57695,-1.439003 2.79901,-2.086494 0.85934,-0.455306 0.94637,-0.529741 1.21258,-1.037029 0.17903,-0.341162 0.25873,-0.582398 0.24519,-0.742154 -0.025,-0.294555 -0.22544,-0.221363 -0.61417,0.224211 -0.49371,0.565891 -0.9187,0.892312 -2.19593,1.686602 -0.35161,0.218657 -0.6587,0.43647 -1.22185,0.866635 -0.19165,0.146383 -0.24257,0.106569 -0.21808,-0.170503 0.04,-0.453051 0.22807,-1.001395 0.41728,-1.216893 0.14386,-0.163848 0.48221,-0.465047 1.09967,-0.978913 0.30333,-0.252436 0.61037,-0.529341 0.68232,-0.615341 0.52888,-0.632153 0.71495,-1.473282 0.53064,-2.398708 -0.0858,-0.430993 -0.072,-0.460126 0.16233,-0.341391 0.29132,0.147621 0.69692,0.481009 1.24415,1.022643 0.70685,0.699617 0.79907,0.758203 0.63732,0.404892 -0.24967,-0.545359 -0.96654,-1.626537 -1.29799,-1.957623 -0.42502,-0.42455 -0.98924,-0.647949 -2.03071,-0.804047 -0.74442,-0.111578 -0.98398,-0.183076 -1.52084,-0.453912 -0.26404,-0.133202 -0.51533,-0.271983 -0.55841,-0.308398 -0.0717,-0.06061 -0.0748,-0.07483 -0.0362,-0.168069 0.0825,-0.199096 0.55915,-0.489886 0.91917,-0.560713 0.27967,-0.05503 0.84403,-0.02405 1.19011,0.06532 1.06671,0.27546 3.12851,1.632993 4.37211,2.878696 0.62844,0.629512 0.78674,0.937342 0.8178,1.590336 0.0267,0.560576 -0.12263,1.038294 -0.49104,1.571234 -0.2432,0.351816 -0.81724,0.888955 -1.27995,1.197718 -0.36984,0.24678 -0.5674,0.364212 -1.61033,0.957175 -1.13132,0.643223 -2.7645,1.748973 -4.01327,2.717194 -0.46754,0.362511 -0.56096,0.41901 -0.52112,0.315204 z"
       id="path5486" /><path
       style="fill:#e06c9f;fill-opacity:1;stroke-width:0.0330729"
       d="m 256.42902,87.024112 c 0.0156,-0.02548 0.10526,-0.159456 0.19925,-0.297727 0.23384,-0.343988 0.31967,-0.580187 0.32328,-0.889612 0.002,-0.215048 -0.0118,-0.279582 -0.10724,-0.485097 -0.11104,-0.239012 -0.11312,-0.308653 -0.009,-0.308653 0.075,0 0.63793,-0.315579 1.21272,-0.679881 0.44169,-0.279945 0.69295,-0.447193 2.56507,-1.707388 1.20537,-0.811379 1.5193,-0.944808 1.8641,-0.792287 0.33429,0.147871 0.75056,0.688753 1.12449,1.461096 0.4565,0.942898 0.68518,1.796819 0.6934,2.589321 0.004,0.357433 0.003,0.35842 -0.0937,0.442198 -0.11167,0.09625 -0.19148,0.09566 -0.94437,-0.007 -0.3298,-0.04496 -0.56726,-0.05289 -1.17409,-0.03923 -1.03982,0.02342 -1.77377,0.123574 -3.21983,0.439404 -0.97094,0.212064 -1.41226,0.279667 -1.96938,0.301683 -0.41748,0.01648 -0.48852,0.01238 -0.4645,-0.02685 z"
       id="path5488" /><path
       style="fill:#e06c9f;fill-opacity:1;stroke-width:0.0165365"
       d="m 234.6498,86.058724 c -1.14922,-0.109534 -2.53435,-0.864864 -3.9897,-2.175644 -0.48311,-0.435126 -1.28401,-1.275155 -1.70045,-1.783546 -0.5018,-0.612579 -1.09912,-1.471901 -1.09912,-1.581211 0,-0.05926 1.27034,0.150966 1.90996,0.316079 0.27763,0.07167 0.7919,0.243171 1.24024,0.413605 0.20918,0.07952 0.40034,0.149265 0.4248,0.154985 0.11979,0.02802 0.0388,-0.09207 -0.16698,-0.247722 -0.18469,-0.139678 -0.64679,-0.368458 -1.02677,-0.508349 -0.59237,-0.218077 -1.2504,-0.395565 -2.03398,-0.548619 -0.9371,-0.183036 -1.0671,-0.2096 -1.2227,-0.249835 -0.18326,-0.04739 -0.23185,-0.08219 -0.20304,-0.145412 0.0439,-0.09647 0.33686,-0.211289 0.7064,-0.276908 0.19242,-0.03417 0.26616,-0.03816 0.7028,-0.0381 0.53342,7.7e-5 0.68679,0.01506 1.10565,0.108077 0.77924,0.173027 1.48797,0.514186 2.66466,1.282689 1.0514,0.686671 1.83285,1.144532 2.64584,1.550231 1.00128,0.499666 1.69038,0.753232 2.60677,0.959218 0.37939,0.08528 0.55836,0.186939 0.63541,0.360942 0.0521,0.117634 0.0644,0.411001 0.0253,0.600368 -0.15548,0.751843 -0.95823,1.43563 -1.99834,1.702208 -0.39146,0.100327 -0.86396,0.14152 -1.22673,0.106944 z"
       id="path5490" /><path
       style="fill:#e06c9f;fill-opacity:1;stroke-width:0.0165365"
       d="m 231.27655,86.935458 c -0.0928,-0.01553 -0.20298,-0.04977 -0.30882,-0.09596 -0.22644,-0.09882 -0.66835,-0.488537 -1.51143,-1.33291 -0.85143,-0.852736 -1.2282,-1.103582 -2.41236,-1.6061 -0.84637,-0.359174 -1.17582,-0.558157 -1.26078,-0.7615 -0.0215,-0.05153 -0.0214,-0.0683 0.001,-0.145859 0.0473,-0.162775 0.19523,-0.32643 0.48872,-0.54075 0.49968,-0.364893 1.24481,-0.707689 1.53954,-0.708264 0.12311,-2.4e-4 0.28529,0.169209 0.60616,0.633334 0.26871,0.38867 0.6425,0.889518 0.84777,1.135951 0.81934,0.983649 2.32426,2.056646 3.62938,2.587726 0.31662,0.128841 0.60713,0.270504 0.59499,0.290144 -0.0407,0.06579 -0.67461,0.280781 -1.29779,0.440116 -0.44514,0.113813 -0.69135,0.141772 -0.91653,0.104071 z"
       id="path5492" /><path
       style="fill:#e06c9f;fill-opacity:1;stroke-width:0.0165365"
       d="m 236.45949,82.786265 c -0.25319,-0.05454 -0.59114,-0.182864 -1.12448,-0.426982 -1.02134,-0.467487 -1.38906,-0.679267 -1.38906,-0.799994 0,-0.107368 0.36008,-0.465807 0.8011,-0.797443 0.27499,-0.206791 0.73494,-0.468572 1.50157,-0.854607 0.42455,-0.213786 0.86347,-0.447728 1.00462,-0.535461 0.0409,-0.02543 0.10259,-0.07508 0.13704,-0.110324 0.0534,-0.05461 0.073,-0.06407 0.13319,-0.06407 0.26718,0 0.46896,0.430818 0.52501,1.120939 0.0232,0.285638 10e-4,0.641511 -0.0597,0.969912 -0.10818,0.582398 -0.32768,1.058264 -0.60013,1.301046 -0.0839,0.07479 -0.29519,0.180948 -0.41972,0.210913 -0.1132,0.02724 -0.34813,0.02082 -0.50944,-0.01392 z"
       id="path5494" /><path
       style="fill:#e06c9f;fill-opacity:1;stroke-width:0.0165365"
       d="m 238.51319,84.328617 c -0.0324,-0.06274 -0.0372,-0.162724 -0.0188,-0.391155 0.0304,-0.37719 0.006,-0.441513 -0.30525,-0.794837 -0.13971,-0.158745 -0.15644,-0.184182 -0.13816,-0.210132 0.23615,-0.335161 0.49129,-0.764956 1.07858,-1.816878 0.54949,-0.984232 0.78958,-1.396196 1.03118,-1.769401 0.27336,-0.422262 0.32024,-0.456475 0.60595,-0.442225 0.19043,0.0095 0.36349,0.06334 0.60818,0.189206 0.45059,0.231781 1.01709,0.706567 1.50435,1.260817 0.39068,0.44438 0.54582,0.705823 0.51381,0.865862 -0.0175,0.08776 -0.23023,0.206113 -0.73809,0.410718 -0.84891,0.342005 -1.52974,0.764415 -2.38482,1.479613 -0.82768,0.692288 -1.48423,1.168493 -1.70537,1.23694 -0.0259,0.008 -0.0406,0.0027 -0.0516,-0.01852 z"
       id="path5496" /><path
       style="fill:#e06c9f;fill-opacity:1;stroke-width:0.0165365"
       d="m 238.26196,81.802322 c 0,-0.04069 0.0221,-0.202533 0.0491,-0.359669 0.18522,-1.077981 0.34083,-1.605817 0.67226,-2.280275 0.169,-0.343918 0.31595,-0.588216 0.67522,-1.122545 0.43476,-0.646591 0.53652,-0.887976 0.51586,-1.223697 -0.0149,-0.241568 -0.0993,-0.504624 -0.17507,-0.545151 -0.1012,-0.05416 -0.14685,0.0039 -0.21409,0.272402 -0.1379,0.550659 -0.29493,0.913728 -0.64292,1.48649 -0.0779,0.12826 -0.20479,0.337365 -0.28192,0.46468 -0.20737,0.342289 -0.35657,0.640321 -0.41423,0.827463 -0.0499,0.161915 -0.0959,0.239168 -0.1423,0.239168 -0.0385,0 -0.12186,-0.116642 -0.17554,-0.245587 -0.0827,-0.198628 -0.10223,-0.324249 -0.093,-0.597773 0.0119,-0.349869 0.0732,-0.570449 0.32178,-1.157552 0.22443,-0.52996 0.30193,-0.83684 0.30135,-1.193223 -5.3e-4,-0.329459 -0.0532,-0.536067 -0.22281,-0.873834 -0.10508,-0.209301 -0.17623,-0.318201 -0.28018,-0.428887 -0.10368,-0.110397 -0.14157,-0.164351 -0.14157,-0.20156 0,-0.07038 0.23017,-0.08347 0.53992,-0.0307 0.25738,0.04385 0.44546,0.09597 0.78032,0.216236 0.27542,0.09892 0.49862,0.163793 0.56353,0.163793 0.0597,0 0.0395,-0.05892 -0.0441,-0.12809 -0.0964,-0.07981 -0.26628,-0.1935 -0.51677,-0.345861 -0.64502,-0.392345 -1.08824,-0.551309 -1.53714,-0.551309 -0.22612,0 -0.43449,0.03959 -0.71181,0.135263 -0.72665,0.250666 -1.20518,0.344305 -1.65036,0.322945 -0.22189,-0.01064 -0.30503,-0.03084 -0.36215,-0.08796 -0.0501,-0.0501 -0.0426,-0.09969 0.0383,-0.254495 0.12626,-0.241446 0.40868,-0.514464 0.65955,-0.637572 0.59002,-0.289547 1.68595,-0.319019 3.0265,-0.08139 0.82217,0.14574 1.72015,0.404466 1.98352,0.571486 0.1956,0.124048 0.39109,0.355407 0.50413,0.596636 0.14131,0.301545 0.19354,0.594876 0.17743,0.99641 -0.0255,0.633791 -0.20598,1.041281 -0.97212,2.19419 -0.59418,0.89414 -0.90852,1.442884 -1.68417,2.940034 -0.26573,0.512926 -0.49177,0.946388 -0.5023,0.963247 -0.0307,0.04917 -0.0443,0.03591 -0.0443,-0.04331 z"
       id="path5498" /><path
       style="fill:#e06c9f;fill-opacity:1;stroke-width:0.0165365"
       d="m 233.60769,81.334809 c -0.0145,-0.03788 0.007,-0.13557 0.0483,-0.219647 0.16306,-0.331459 0.58215,-0.752845 1.76168,-1.771319 0.56366,-0.486693 0.7863,-0.696524 1.01789,-0.959292 0.4364,-0.495173 0.68263,-0.918107 0.80512,-1.382908 0.0476,-0.180774 0.0511,-0.213196 0.0514,-0.483164 2.6e-4,-0.260035 -0.005,-0.314547 -0.051,-0.537435 -0.0688,-0.33266 -0.0805,-0.464986 -0.0481,-0.54253 0.0611,-0.14627 0.23603,-0.165341 0.46841,-0.05107 0.0984,0.04838 0.16333,0.09728 0.27171,0.204568 0.20304,0.200993 0.21912,0.247195 0.21898,0.628811 -1.2e-4,0.319045 -0.0313,0.551701 -0.12204,0.911169 -0.24161,0.957022 -0.57217,1.463982 -1.31908,2.023005 -0.27008,0.202139 -0.60445,0.405791 -1.08655,0.661783 -0.82179,0.436359 -0.97689,0.54923 -1.47395,1.072613 -0.25253,0.265909 -0.45145,0.449263 -0.50162,0.462381 -0.0189,0.0049 -0.0353,-0.0019 -0.0411,-0.01696 z"
       id="path5500" /><path
       style="fill:#e06c9f;fill-opacity:1;stroke-width:0.0165365"
       d="m 234.26415,77.138967 c -0.12364,-0.03116 -0.25318,-0.07515 -0.29711,-0.100888 -0.30379,-0.178036 -0.44914,-0.576692 -0.31022,-0.850842 0.0763,-0.150508 0.37957,-0.392684 0.679,-0.542153 0.40163,-0.200482 0.82215,-0.280506 1.70965,-0.325339 0.26864,-0.01357 0.53039,-0.02701 0.58166,-0.02987 l 0.0932,-0.0052 0.008,0.207627 c 0.008,0.229854 0.032,0.313648 0.1378,0.489402 0.0798,0.132475 0.10211,0.219231 0.0739,0.287211 -0.0313,0.07558 -0.14712,0.17036 -0.31172,0.255103 -0.13936,0.07175 -0.56613,0.25622 -0.77618,0.335508 l -0.10336,0.03901 -2.1e-4,-0.07014 c -1.2e-4,-0.03858 0.0121,-0.166878 0.0271,-0.285112 0.0251,-0.197369 0.0251,-0.220097 7.9e-4,-0.277503 -0.0225,-0.05323 -0.0451,-0.07138 -0.15172,-0.122023 -0.11634,-0.05525 -0.13378,-0.05894 -0.24454,-0.05171 -0.0899,0.0059 -0.15391,0.02299 -0.25982,0.06946 -0.30108,0.132098 -0.56224,0.319542 -0.56224,0.403542 0,0.05036 0.0315,0.04619 0.18809,-0.02487 0.22802,-0.103495 0.40936,-0.09069 0.52131,0.03681 0.10933,0.124529 0.11077,0.347578 0.003,0.455424 -0.0498,0.04986 -0.18964,0.09673 -0.41236,0.13828 -0.2077,0.03875 -0.34258,0.03154 -0.5936,-0.03172 z"
       id="path5502" /><path
       style="fill:#e06c9f;fill-opacity:1;stroke-width:0.0165365"
       d="m 232.91837,80.871894 c -0.19695,-0.148138 -0.69702,-0.538361 -0.87924,-0.68611 l -0.0465,-0.03768 0.0339,-0.223179 c 0.0187,-0.122748 0.0487,-0.305035 0.0668,-0.40508 0.0436,-0.240993 0.0613,-0.590475 0.0354,-0.696661 -0.0534,-0.218834 -0.591,-0.816424 -0.7344,-0.816424 -0.0509,0 -0.0288,0.0815 0.0927,0.341764 0.20072,0.430102 0.32426,0.934509 0.33144,1.353222 0.003,0.180523 -0.0107,0.239779 -0.0557,0.239779 -0.0375,0 -0.32627,-0.147489 -0.48451,-0.24743 -0.21891,-0.138253 -0.32179,-0.300974 -0.50746,-0.802635 -0.38978,-1.053134 -0.5225,-1.636937 -0.43733,-1.92373 0.0454,-0.152754 0.17408,-0.259516 0.33529,-0.278103 0.1485,-0.01712 0.28692,0.03035 1.01551,0.348297 0.53956,0.235461 0.96563,0.363696 1.44315,0.434359 0.25196,0.03728 1.25321,0.04288 1.52963,0.0085 0.48129,-0.05977 1.00742,-0.208061 1.48001,-0.417134 0.12733,-0.05633 0.32424,-0.143219 0.43757,-0.193085 0.12646,-0.05564 0.23951,-0.09412 0.29265,-0.0996 0.0814,-0.0084 0.0872,-0.0065 0.0967,0.03154 0.0146,0.0583 -0.0548,0.230609 -0.20212,0.501381 -0.31441,0.57804 -0.64,0.969375 -1.52623,1.834464 -0.66164,0.645859 -1.82758,1.720215 -2.0527,1.891467 -0.0232,0.01765 -0.0615,-0.0052 -0.26458,-0.157978 z m 1.52367,-2.069494 c 0.28793,-0.05068 0.43847,-0.09988 0.69227,-0.226272 0.27094,-0.134922 0.37061,-0.206685 0.36283,-0.261236 -0.0112,-0.07826 -0.0659,-0.08263 -1.0551,-0.08426 -0.99685,-0.0016 -1.016,-0.003 -1.39733,-0.102918 -0.33687,-0.08823 -0.52269,-0.167838 -1.27644,-0.546899 -0.52674,-0.2649 -0.6696,-0.324953 -0.57106,-0.240064 0.24545,0.21146 0.91409,0.77498 1.15345,0.972111 0.31531,0.259673 0.43463,0.333727 0.64973,0.40323 0.14818,0.04788 0.39944,0.09907 0.57349,0.116822 0.21172,0.02159 0.66199,0.0058 0.86816,-0.03052 z"
       id="path5504" /><path
       style="fill:#e06c9f;fill-opacity:1;stroke-width:0.0165365"
       d="m 233.00337,77.080145 c -0.29627,-0.07661 -0.8439,-0.244753 -1.02713,-0.315368 -0.0692,-0.02668 -0.13873,-0.0627 -0.15442,-0.08004 -0.0273,-0.0302 -0.0256,-0.03468 0.0404,-0.106336 0.0379,-0.04115 0.10254,-0.09107 0.14359,-0.110937 0.0645,-0.03125 0.0928,-0.03488 0.20949,-0.02688 0.0742,0.0051 0.21622,0.0325 0.31567,0.06092 0.0994,0.02842 0.1999,0.04893 0.22324,0.04559 0.0394,-0.0057 0.0325,-0.01534 -0.098,-0.137231 -0.4261,-0.397944 -0.48988,-0.501917 -0.42294,-0.689523 0.033,-0.09237 0.12281,-0.234905 0.21461,-0.340463 0.20291,-0.233312 0.45545,-0.373917 0.81179,-0.451961 0.14421,-0.03159 0.79034,-0.02601 1.02235,0.0088 0.20569,0.03088 0.32537,0.07595 0.32537,0.122532 0,0.064 -0.1006,0.134776 -0.46232,0.325252 -0.3357,0.176773 -0.52447,0.301112 -0.65402,0.430795 -0.28257,0.282847 -0.30844,0.560263 -0.10044,1.076676 0.0333,0.08264 0.0621,0.171935 0.064,0.198438 0.003,0.04787 0.003,0.04821 -0.0957,0.0521 -0.072,0.0028 -0.16959,-0.01429 -0.35553,-0.06236 z"
       id="path5506" /><path
       style="fill:#e06c9f;fill-opacity:1;stroke-width:0.0165365"
       d="m 230.19155,79.28818 c -0.16239,-0.05798 -0.51543,-0.128725 -0.95022,-0.19041 -0.44912,-0.06372 -0.80412,-0.146968 -0.95133,-0.223094 -0.0867,-0.04486 -0.2294,-0.187751 -0.30516,-0.305676 -0.23311,-0.362873 -0.28692,-0.829627 -0.1321,-1.145831 0.048,-0.09807 0.46276,-0.621337 1.0906,-1.375979 1.08425,-1.303237 1.68833,-1.910424 2.2989,-2.310736 0.46467,-0.304654 0.89506,-0.45644 1.44104,-0.508214 0.25381,-0.02408 0.68332,-0.02106 0.84926,0.006 0.45825,0.07459 1.03227,0.400897 1.10779,0.629743 0.0153,0.04623 0.0136,0.06609 -0.009,0.111051 -0.0389,0.07604 -0.26592,0.296733 -0.34598,0.336277 -0.0761,0.03756 -0.28112,0.04308 -0.66973,0.01802 -0.33956,-0.02191 -0.64169,0.02883 -0.91814,0.154181 -0.33977,0.154059 -0.64946,0.484428 -0.79156,0.844397 -0.0233,0.05912 -0.0791,0.2018 -0.12402,0.317071 -0.0449,0.115271 -0.11246,0.262448 -0.15019,0.327059 -0.0947,0.162177 -0.24604,0.319747 -0.36153,0.376463 -0.0837,0.04109 -0.11134,0.04598 -0.25905,0.04572 -0.13881,-2.35e-4 -0.18794,-0.008 -0.30593,-0.04834 -0.12376,-0.04231 -0.16427,-0.04814 -0.33899,-0.04874 -0.22882,-7.94e-4 -0.33223,0.02939 -0.45205,0.131958 -0.11295,0.09668 -0.15655,0.187839 -0.16478,0.344501 -0.0172,0.32874 0.12275,0.841529 0.58251,2.133592 0.0591,0.166164 0.0951,0.294632 0.0971,0.347266 0.003,0.0782 8e-4,0.08375 -0.038,0.08681 -0.0227,0.0019 -0.11232,-0.02207 -0.19906,-0.05304 z"
       id="path5508" /></g></svg>
