<?xml version="1.0" encoding="UTF-8" standalone="no"?>
<!-- Created with Inkscape (http://www.inkscape.org/) -->

<svg
   width="251.84398"
   height="56.035507"
   viewBox="0 0 66.633719 14.826061"
   version="1.1"
   id="svg5"
   xml:space="preserve"
   inkscape:version="1.2 (dc2aeda, 2022-05-15)"
   sodipodi:docname="drawing.svg"
   xmlns:inkscape="http://www.inkscape.org/namespaces/inkscape"
   xmlns:sodipodi="http://sodipodi.sourceforge.net/DTD/sodipodi-0.dtd"
   xmlns="http://www.w3.org/2000/svg"
   xmlns:svg="http://www.w3.org/2000/svg"><sodipodi:namedview
     id="namedview7"
     pagecolor="#ffffff"
     bordercolor="#000000"
     borderopacity="0.25"
     inkscape:showpageshadow="2"
     inkscape:pageopacity="0.0"
     inkscape:pagecheckerboard="0"
     inkscape:deskcolor="#d1d1d1"
     inkscape:document-units="px"
     showgrid="false"
     showborder="false"
     inkscape:zoom="2"
     inkscape:cx="1026.75"
     inkscape:cy="425.5"
     inkscape:window-width="1920"
     inkscape:window-height="1031"
     inkscape:window-x="0"
     inkscape:window-y="25"
     inkscape:window-maximized="1"
     inkscape:current-layer="layer1" /><defs
     id="defs2" /><g
     inkscape:label="Layer 1"
     inkscape:groupmode="layer"
     id="layer1"
     transform="translate(-86.128669,-26.131363)"><path
       d="m 109.70431,27.223793 c -0.65618,1.286322 -0.86449,1.62483 -1.19779,1.973747 -0.16665,0.177065 -0.26039,0.229144 -0.44787,0.255184 -0.81242,0.109363 -1.82793,0.453076 -3.1455,1.062381 -0.44787,0.208318 -0.83324,0.369753 -0.84886,0.35413 -0.0156,-0.0156 -0.10937,-0.260388 -0.20832,-0.536399 -0.16665,-0.468698 -0.27601,-0.968649 -0.67701,-3.046554 -0.1302,-0.671803 -0.15102,-0.734291 -0.19269,-0.572857 -0.10936,0.447871 -0.0416,3.312156 0.099,3.942297 0.0104,0.06773 0.005,0.119772 -0.0156,0.119772 -0.026,0 -0.32288,-0.244758 -0.6666,-0.546817 -0.61972,-0.546808 -1.06238,-0.822828 -1.43213,-0.895734 -0.15102,-0.02602 -0.17186,-0.02085 -0.12499,0.04171 0.0313,0.0417 0.27602,0.343712 0.54161,0.671802 0.26559,0.328091 0.5989,0.770758 0.7343,0.979067 0.28121,0.427036 0.46349,0.854072 0.38016,0.880112 -0.12498,0.04171 -1.0103,0.567652 -1.74981,1.041555 -0.43224,0.276019 -0.973858,0.598896 -1.208207,0.723882 -0.427036,0.229144 -1.067594,0.489533 -1.197784,0.489533 -0.09895,0 -0.317679,-0.515573 -0.442665,-1.041555 -0.05728,-0.244766 -0.177065,-0.7343 -0.260389,-1.093634 -0.08332,-0.359335 -0.208312,-0.770749 -0.270806,-0.911365 l -0.11457,-0.260389 -0.05208,0.260389 c -0.03646,0.182278 -0.03124,0.635354 0.01562,1.4686 0.0677,1.301943 0.04687,1.760224 -0.109363,2.187268 -0.145818,0.385375 -0.203103,0.416619 -0.473908,0.244758 -0.124987,-0.07815 -0.739505,-0.400996 -1.369647,-0.713464 -0.630141,-0.312468 -1.307153,-0.661385 -1.499841,-0.781166 l -0.354129,-0.218727 0.03646,-0.338508 c 0.07291,-0.703047 0.338506,-1.333188 1.036349,-2.447658 0.432246,-0.687425 0.734297,-1.286321 0.682219,-1.338392 -0.07291,-0.07815 -0.937401,0.900938 -1.47901,1.6769 -0.619726,0.89053 -1.031141,1.406103 -1.072803,1.338401 -0.01042,-0.02085 -0.04687,-0.223931 -0.07812,-0.453076 -0.03124,-0.223931 -0.11457,-0.536399 -0.182272,-0.687424 -0.296843,-0.635355 -0.911361,-1.369646 -1.161335,-1.369646 -0.03646,0 0.0625,0.255176 0.218727,0.588479 0.37496,0.770749 0.499947,1.265487 0.510362,1.973747 0.0052,0.30205 0,0.567643 -0.01562,0.578061 -0.01562,0.0156 -0.192688,-0.02085 -0.390583,-0.07815 -0.270804,-0.07807 -0.572856,-0.114568 -1.161336,-0.13019 -1.208205,-0.04171 -1.812307,0.07815 -3.171539,0.619723 -0.791582,0.312468 -1.057179,0.484329 -1.057179,0.671803 0,0.124985 -0.01562,0.124985 0.37496,-0.03128 1.577958,-0.614519 3.556915,-0.583275 5.546288,0.09895 0.801998,0.27602 1.437347,0.552031 2.202891,0.968649 0.44787,0.239562 1.223829,0.697843 1.291531,0.755127 0.04166,0.03645 -1.062388,0.343721 -1.442556,0.395792 -0.552025,0.07815 -1.999789,0.03128 -2.635137,-0.07816 -0.926986,-0.166656 -2.885112,-0.718678 -3.270488,-0.926987 -0.05208,-0.02602 -0.109363,-0.04171 -0.119778,-0.02602 -0.04166,0.04171 0.723881,0.520777 1.270698,0.791584 1.166543,0.572857 2.682008,1.015515 4.098524,1.197784 0.463493,0.06247 0.442662,0.03645 0.442662,0.510369 0,0.593683 -0.114571,1.249864 -0.364545,2.062283 -0.119779,0.380161 -0.229142,0.734291 -0.239558,0.781166 -0.01562,0.04687 0.07812,-0.03645 0.213519,-0.177065 0.302052,-0.32809 0.630142,-0.968649 0.911363,-1.77065 0.468699,-1.333188 0.510362,-1.421725 0.692634,-1.473804 0.09374,-0.02602 0.541609,-0.203096 1.005102,-0.395792 l 0.838453,-0.354121 0.697843,0.234349 c 0.385375,0.13019 1.072807,0.322877 1.531087,0.427036 2.213306,0.515573 2.395576,0.567652 2.379956,0.677007 -0.005,0.0573 -0.026,0.322886 -0.0469,0.588488 -0.026,0.437445 -0.0208,0.479115 0.0573,0.447862 0.12499,-0.04687 0.22394,-0.265593 0.29165,-0.645763 0.11456,-0.65618 0.11977,-0.661385 0.48432,-0.703047 0.68222,-0.07815 1.45296,-0.312468 2.94759,-0.90616 l 0.27602,-0.114568 -0.0365,0.249971 c -0.0209,0.135403 -0.12499,0.552031 -0.23957,0.921783 -0.10936,0.374956 -0.20309,0.713464 -0.20309,0.755126 0,0.13019 0.34892,-0.244767 0.65097,-0.697842 0.15102,-0.229145 0.46349,-0.802002 0.68742,-1.275904 l 0.41663,-0.859286 1.19258,-0.791583 c 0.65618,-0.43225 1.39568,-0.885326 1.64045,-1.005107 l 0.44787,-0.223931 0.61972,0.468698 c 1.32278,0.999893 2.02063,1.380063 2.77055,1.525884 l 0.22914,0.04171 -0.17706,-0.182269 c -0.0937,-0.09896 -0.52079,-0.442667 -0.95303,-0.765544 -0.82804,-0.619732 -1.20821,-0.994689 -1.4061,-1.385276 l -0.11978,-0.239554 0.56244,-0.296846 c 0.30726,-0.161443 0.72388,-0.364548 0.92698,-0.447871 0.31247,-0.13019 0.38017,-0.140608 0.42704,-0.07816 0.0833,0.09373 0.57286,0.317673 1.23425,0.56244 1.29153,0.479115 1.39569,0.963435 0.58327,2.749708 -0.14582,0.322877 -0.32288,0.744709 -0.39058,0.937396 -0.12499,0.348925 -0.16665,0.791583 -0.0833,0.843663 0.026,0.0156 0.25518,-0.35413 0.51036,-0.817624 0.43225,-0.781166 0.93219,-1.531088 1.1301,-1.692531 0.0729,-0.06247 0.0833,-0.04171 0.11456,0.156239 0.0209,0.124985 0.005,0.557235 -0.026,0.953018 -0.0313,0.3958 -0.0469,0.828041 -0.026,0.953027 0.0365,0.249979 0.12498,0.479115 0.18228,0.479115 0.0469,0 0.18227,-0.598888 0.3385,-1.510253 0.18748,-1.072808 0.44787,-1.786272 0.61451,-1.687318 0.0313,0.02085 0.68223,0.437445 1.44256,0.921774 1.57275,1.005098 2.29142,1.494631 2.29142,1.551915 0,0.02085 -0.23955,0.296846 -0.5364,0.609314 -0.48953,0.515573 -0.93219,1.104052 -0.82803,1.104052 0.10415,0 0.56765,-0.343712 1.08322,-0.807206 0.31247,-0.281224 0.68222,-0.583274 0.82283,-0.68222 l 0.25518,-0.171861 0.23955,0.119782 c 0.1302,0.06773 0.4635,0.203104 0.73951,0.312468 0.27602,0.10415 0.60931,0.260388 0.7395,0.343712 0.27081,0.18227 0.24477,0.08332 0.40101,1.614412 0.12498,1.249864 0.26559,2.192473 0.31767,2.161229 0.0573,-0.03645 0.14061,-0.614519 0.17707,-1.249864 0.0573,-0.895743 0.20831,-1.551924 0.38537,-1.661287 0.0208,-0.0156 0.11978,0.182269 0.21352,0.437454 0.15623,0.453076 0.42183,0.833245 0.56765,0.833245 0.0364,0 0.0573,-0.192687 0.0573,-0.614518 0,-0.744709 0.0313,-0.812411 0.34371,-0.739505 0.28122,0.06247 1.98938,0.161443 2.61952,0.151026 l 0.48953,-0.01043 0.24997,0.427036 c 0.13541,0.229145 0.31247,0.505156 0.39059,0.60411 0.23435,0.307255 0.54682,0.48432 0.69263,0.395792 0.0573,-0.03645 0.0417,-0.09895 -0.099,-0.322886 -0.15102,-0.249971 -0.41661,-0.869703 -0.41661,-0.979066 0,-0.02085 0.13539,-0.02085 0.30205,0 0.30725,0.04171 0.70304,0.0156 1.83313,-0.135403 0.95824,-0.13019 1.55713,-0.03645 1.84355,0.281224 0.0833,0.09374 0.0833,0.109363 -0.0156,0.312468 -0.24476,0.468698 -0.59889,0.755126 -1.59878,1.281117 -0.31769,0.161434 -0.63536,0.343712 -0.70306,0.400996 l -0.12499,0.09895 0.26039,-0.03645 c 0.72388,-0.09373 1.66649,-0.45828 2.84866,-1.088421 l 0.83846,-0.447871 0.21351,0.07815 c 0.48433,0.177065 1.08843,0.260389 1.95812,0.260389 0.47391,0.0053 1.01553,-0.0156 1.21342,-0.03645 l 0.34892,-0.04171 v 0.541613 c 0,0.661385 0.0469,1.036342 0.12499,1.010311 0.0313,-0.01043 0.10416,-0.09895 0.15623,-0.192687 0.0833,-0.140617 0.10936,-0.312468 0.1302,-0.848877 l 0.0313,-0.677007 0.44266,-0.09374 c 0.52599,-0.109364 0.76034,-0.187483 1.83313,-0.635346 1.41131,-0.593692 2.02063,-0.723882 2.81741,-0.609314 0.24998,0.03645 0.45308,0.08853 0.45308,0.119781 0,0.13019 -0.49474,0.692629 -1.29673,1.479009 -0.47391,0.463493 -0.83325,0.848868 -0.7968,0.848868 0.10416,0 0.75513,-0.338508 1.09364,-0.567644 0.16144,-0.109372 0.56765,-0.416627 0.89574,-0.677016 0.48432,-0.385374 0.96344,-0.697843 1.26028,-0.828041 0.0833,-0.03645 0.0365,0.307263 -0.11457,0.890538 -0.15623,0.598888 -0.19268,0.942609 -0.11457,0.99468 0.0677,0.04171 0.35933,-0.479116 0.64056,-1.150918 0.32288,-0.749922 0.52599,-1.114461 0.71867,-1.281117 0.13019,-0.109364 0.28122,-0.140608 1.20821,-0.265594 2.24975,-0.296846 2.82261,-0.411414 3.43192,-0.697842 l 0.33851,-0.15623 -0.23435,-0.0053 c -0.1302,-0.0053 -0.79679,0.04171 -1.48422,0.104159 -1.59358,0.135395 -3.39027,0.151017 -4.06727,0.03128 -0.802,-0.14582 -0.802,-0.130198 0.0156,-0.494737 0.39579,-0.171861 1.11446,-0.494747 1.59879,-0.713474 1.65086,-0.744708 2.88511,-1.1405 4.06728,-1.286321 l 0.57285,-0.07807 -0.28642,-0.06247 c -0.15623,-0.03645 -0.57807,-0.07815 -0.93741,-0.09374 -0.99468,-0.04171 -1.99458,0.145821 -3.51004,0.661394 -0.34371,0.114568 -0.63014,0.197891 -0.64576,0.187474 -0.0104,-0.0156 0.0313,-0.213514 0.0885,-0.447863 0.12498,-0.479124 0.28122,-0.807215 0.77596,-1.640452 0.32809,-0.557234 0.55202,-1.01031 0.51556,-1.046768 -0.0104,-0.01043 -0.13539,0.0573 -0.27079,0.145821 -0.61452,0.406201 -1.15093,1.124879 -2.005,2.692424 -0.29685,0.541604 -0.5364,0.91657 -0.5989,0.942601 -0.0573,0.02602 -0.42183,0.140616 -0.80721,0.255184 -0.74471,0.229144 -1.37485,0.333303 -1.68731,0.281224 -0.17187,-0.02602 -0.20311,-0.06247 -0.42705,-0.479116 -0.43224,-0.786379 -0.90094,-1.458182 -1.40089,-1.978959 -0.41662,-0.427036 -1.11967,-1.010311 -1.11967,-0.921774 0,0.0156 0.15624,0.239553 0.34371,0.505155 0.66139,0.911357 0.94261,1.562333 0.99469,2.275797 l 0.0313,0.427036 -0.17707,-0.03645 c -0.0989,-0.02602 -0.47911,-0.04171 -0.85407,-0.03645 -0.57806,0 -0.83325,0.03645 -1.75503,0.218727 -0.84365,0.171852 -1.19258,0.218727 -1.60399,0.218727 h -0.5312 l 0.0364,-0.171861 c 0.0209,-0.08853 0.0885,-0.35413 0.15624,-0.583266 0.16143,-0.562448 0.21351,-0.911364 0.13539,-0.911364 -0.11977,0 -0.32287,0.177065 -0.44265,0.385374 -0.0677,0.119781 -0.1979,0.442667 -0.28643,0.718678 -0.20831,0.624927 -0.41142,0.926978 -0.63014,0.926978 -0.0833,0 -0.47391,0.06773 -0.86971,0.151034 -0.677,0.145812 -0.98427,0.187474 -1.24986,0.166647 -0.10936,-0.0053 -0.11457,-0.01043 -0.0469,-0.234349 0.0417,-0.130198 0.17707,-0.432249 0.31247,-0.677016 0.13019,-0.244766 0.34371,-0.640558 0.4687,-0.880112 0.20832,-0.380169 0.42704,-1.01031 0.37497,-1.06239 -0.0313,-0.03645 -0.50516,0.489533 -1.05198,1.156132 -0.55723,0.682211 -1.24987,1.52067 -1.35402,1.635238 -0.052,0.0573 -0.23435,-0.05204 -1.09885,-0.68222 -1.22903,-0.900948 -1.78626,-1.281109 -2.50494,-1.687318 -0.29163,-0.166648 -0.53119,-0.333295 -0.53119,-0.364548 0,-0.135403 0.32809,-0.692629 0.56244,-0.958231 0.14061,-0.15623 0.50515,-0.48432 0.8072,-0.729087 0.30206,-0.239562 0.54161,-0.447871 0.5312,-0.458289 -0.0469,-0.04687 -0.70826,0.166656 -0.99468,0.328091 -0.18228,0.104159 -0.62494,0.416627 -0.99469,0.703055 -1.31236,1.02072 -1.8748,1.176958 -2.91115,0.801993 l -0.21353,-0.07807 0.0417,-0.218727 c 0.0208,-0.119781 0.0781,-0.369752 0.11978,-0.557234 0.12499,-0.51036 0.0885,-1.041555 -0.0677,-1.041555 -0.0729,0 -0.19268,0.343712 -0.29163,0.833245 -0.24997,1.2707 -0.41663,1.463387 -1.17175,1.380063 -0.38538,-0.04171 -0.67181,-0.187483 -0.95303,-0.489533 -0.30205,-0.322886 -0.48952,-0.703056 -0.87491,-1.755028 -0.17185,-0.468698 -0.39058,-0.99468 -0.48952,-1.161328 -0.17707,-0.302059 -0.55724,-0.68222 -0.68222,-0.68222 -0.0365,0 0.0156,0.203096 0.14581,0.557226 0.2656,0.7343 0.35413,1.109265 0.35413,1.541506 v 0.359334 l -0.24477,-0.218779 c -0.83324,-0.734291 -1.91646,-1.072799 -4.96301,-1.562332 -0.55724,-0.08853 -1.02594,-0.171852 -1.03635,-0.187483 -0.0104,-0.01043 0.0156,-0.208309 0.0573,-0.432241 0.0885,-0.447871 0.36455,-1.057177 0.84366,-1.8748 0.15624,-0.265602 0.32289,-0.588479 0.36455,-0.718678 0.0781,-0.229144 0.0781,-0.229144 -0.0365,-0.197891 -0.44787,0.135403 -0.79679,0.578061 -1.41652,1.791476 -0.77595,1.515466 -1.05196,1.775855 -1.89042,1.775855 -0.42183,0 -0.91136,-0.161443 -1.7446,-0.583274 -0.34893,-0.171861 -0.78638,-0.374957 -0.97387,-0.437454 -0.31767,-0.114568 -0.3385,-0.130199 -0.32287,-0.265593 0.0104,-0.07815 0.11978,-0.78638 0.24997,-1.562341 0.1302,-0.781167 0.22914,-1.494631 0.21872,-1.588372 -0.0156,-0.151026 -0.0989,-0.01043 -0.63014,1.041554 z m -0.8697,3.541292 c 0,0.08853 -0.43745,0.458281 -0.99468,0.83845 -0.31769,0.218727 -0.64056,0.473912 -0.71347,0.567653 l -0.1354,0.177056 0.26039,-0.03645 c 0.46349,-0.06773 0.86969,-0.22394 1.68732,-0.645762 1.03113,-0.525991 1.2759,-0.598897 1.91125,-0.567653 0.27081,0.0156 0.49995,0.04171 0.52078,0.06247 0.052,0.04687 -0.17706,0.276011 -0.53119,0.525982 -0.32289,0.229144 -1.74461,1.020728 -2.52578,1.406102 -0.93219,0.463494 -1.35402,0.437454 -2.79658,-0.177065 -0.74471,-0.312468 -1.05717,-0.411414 -1.05717,-0.333294 0,0.07815 0.2708,0.411414 0.44266,0.552021 0.0885,0.06773 0.29684,0.213523 0.46869,0.317673 0.34372,0.218727 0.70306,0.541613 0.70306,0.630141 0,0.0729 -0.80721,0.739504 -1.3332,1.098847 -0.68742,0.473903 -1.4061,0.775953 -2.15081,0.906152 -0.17706,0.03128 -0.33329,0.05204 -0.34371,0.04171 -0.0104,-0.01043 0.0208,-0.166648 0.0677,-0.348917 0.0677,-0.291642 0.0729,-0.421832 0.0209,-0.963445 -0.11458,-1.150918 -0.0782,-1.36444 0.27601,-1.723775 0.30726,-0.307255 0.78117,-0.583274 2.21331,-1.312361 1.77064,-0.895743 2.25497,-1.046768 3.37464,-1.051973 0.34892,-0.0053 0.63535,0.0156 0.63535,0.03645 z m 8.0981,0.770749 c 0.95824,0.161443 2.03624,0.614519 3.21321,1.338401 0.29683,0.182269 0.89052,0.552021 1.31756,0.817623 0.43225,0.270807 0.78637,0.494738 0.79679,0.499942 0.0104,0.0053 -0.0625,0.208318 -0.16143,0.442667 -0.20832,0.499943 -0.1302,0.48432 -0.92179,0.218727 -0.78637,-0.260388 -2.32787,-1.03635 -3.80168,-1.916462 -0.70304,-0.416627 -1.55191,-0.895743 -1.88522,-1.057186 -0.33329,-0.161443 -0.6093,-0.312468 -0.6093,-0.333295 -0.0104,-0.104159 1.45817,-0.114576 2.05186,-0.01043 z m -15.58168,2.96323 c 0.1406,0.541604 0.24476,1.161336 0.24476,1.463387 v 0.270806 l -0.36975,0.03645 c -0.65618,0.06773 -1.452968,-0.04687 -2.343498,-0.338508 -0.489533,-0.15623 -0.666599,-0.234349 -0.619728,-0.276011 0.203101,-0.177065 1.182167,-0.859277 1.442556,-1.010311 0.57286,-0.317672 1.21862,-0.546808 1.4738,-0.515564 0.0469,0.0053 0.10937,0.140608 0.17186,0.369752 z m 22.74238,0.400997 c 0,0.06773 -0.0729,0.369752 -0.16665,0.677016 l -0.16665,0.552021 -0.51036,-0.255184 c -0.56765,-0.286429 -0.60411,-0.343712 -0.39579,-0.650968 0.19269,-0.27601 0.52598,-0.416627 1.04676,-0.432249 0.16665,-0.0053 0.19269,0.01043 0.19269,0.109364 z m 2.32788,-0.06247 c 0.71867,0.06247 1.22383,0.166647 1.6717,0.343712 0.19269,0.07815 0.35413,0.140608 0.35933,0.145812 0.005,0.0053 0.0469,0.302051 0.0885,0.656181 0.0469,0.359343 0.10415,0.729095 0.13539,0.828041 0.026,0.09895 0.0365,0.192687 0.0209,0.208309 -0.0156,0.0156 -0.38538,0.03128 -0.81762,0.02602 -0.64056,0 -0.97385,-0.03645 -1.75503,-0.171861 -0.53118,-0.08853 -1.02071,-0.177056 -1.08842,-0.192687 l -0.12498,-0.02602 0.0313,-0.843655 c 0.0156,-0.463493 0.0469,-0.885325 0.0625,-0.937405 0.0313,-0.0729 0.10415,-0.08853 0.43745,-0.08853 0.21873,0 0.65618,0.02602 0.97906,0.05204 z m 3.43193,1.130083 c 0.14061,0.04687 0.36975,0.151025 0.51036,0.234349 0.32288,0.192687 1.0728,0.760339 1.0728,0.817623 0,0.04171 -0.47912,0.130199 -1.04155,0.192687 -0.25518,0.02602 -0.85929,-0.04171 -0.92699,-0.10415 -0.0208,-0.02085 0.099,-1.229037 0.11978,-1.229037 0.005,0 0.12499,0.04171 0.2656,0.08853 z m 11.31651,0.770757 c 0.44787,0.06773 0.91657,0.13019 1.04676,0.140608 l 0.23435,0.01559 -0.28122,0.166648 c -0.15623,0.08854 -0.71867,0.312468 -1.24986,0.489533 -0.5312,0.177065 -1.03115,0.35413 -1.11447,0.395792 -0.13541,0.06773 -0.14582,0.06247 -0.19269,-0.06773 -0.0313,-0.07815 -0.0782,-0.244766 -0.10936,-0.38017 -0.0625,-0.286428 -0.24477,-0.68222 -0.31247,-0.68222 -0.10937,0 0.0156,-0.10415 0.17706,-0.151025 0.29685,-0.08853 0.96865,-0.0573 1.8019,0.0729 z m -3.609,0.385374 c 0.28643,0.13019 0.55203,0.369752 0.77076,0.70826 0.31246,0.468698 0.3333,0.442659 -0.33851,0.442659 -0.32809,0 -0.67701,-0.0156 -0.77596,-0.03128 -0.18748,-0.03128 -0.18748,-0.03128 -0.30725,-0.499951 -0.15624,-0.593683 -0.11979,-0.718669 0.21351,-0.718669 0.12498,0 0.31767,0.04688 0.43745,0.09895 z m -1.62483,0.187474 c 0.0156,0.04171 0.005,0.140617 -0.0208,0.213523 -0.0313,0.0729 -0.052,0.187482 -0.052,0.260388 0,0.171861 -0.16665,0.166648 -0.71867,-0.02085 -0.38017,-0.130199 -0.42183,-0.156239 -0.34893,-0.218727 0.0833,-0.06773 0.85408,-0.30206 1.02073,-0.307264 0.0469,-0.0053 0.099,0.03128 0.11978,0.0729 z"
       id="path376"
       style="fill:#ffd42a;fill-opacity:1;stroke:none;stroke-width:0.00529167;stroke-dasharray:none" /></g></svg>
