<?xml version="1.0" encoding="UTF-8" standalone="no"?>
<!-- Created with Inkscape (http://www.inkscape.org/) -->

<svg
   width="390.72464"
   height="473.28186"
   viewBox="0 0 103.37923 125.22249"
   version="1.1"
   id="svg5"
   xml:space="preserve"
   inkscape:version="1.2 (dc2aeda, 2022-05-15)"
   sodipodi:docname="drawing.svg"
   xmlns:inkscape="http://www.inkscape.org/namespaces/inkscape"
   xmlns:sodipodi="http://sodipodi.sourceforge.net/DTD/sodipodi-0.dtd"
   xmlns="http://www.w3.org/2000/svg"
   xmlns:svg="http://www.w3.org/2000/svg"><sodipodi:namedview
     id="namedview7"
     pagecolor="#ffffff"
     bordercolor="#000000"
     borderopacity="0.25"
     inkscape:showpageshadow="2"
     inkscape:pageopacity="0.0"
     inkscape:pagecheckerboard="0"
     inkscape:deskcolor="#d1d1d1"
     inkscape:document-units="px"
     showgrid="false"
     showborder="false"
     inkscape:zoom="2"
     inkscape:cx="1026.75"
     inkscape:cy="425.5"
     inkscape:window-width="1920"
     inkscape:window-height="1031"
     inkscape:window-x="0"
     inkscape:window-y="25"
     inkscape:window-maximized="1"
     inkscape:current-layer="layer1" /><defs
     id="defs2" /><g
     inkscape:label="Layer 1"
     inkscape:groupmode="layer"
     id="layer1"
     transform="translate(-157.9116,-69.121552)"><path
       style="fill:#ffd42a;fill-opacity:1;stroke-width:0.332766"
       d="m 185.4039,193.36534 c -1.03118,-1.48157 -0.89576,-3.11617 0.35001,-4.2246 l 1.03119,-0.91752 h -1.05439 c -1.59974,0 -2.26395,-0.45993 -3.42962,-2.37487 l -1.0662,-1.75152 1.30294,-1.23212 c 0.71661,-0.67766 1.57336,-1.23235 1.90389,-1.23264 0.55829,-6.3e-4 0.56062,-0.0631 0.0328,-0.88135 -0.38068,-0.59018 -0.48514,-1.17518 -0.31654,-1.77286 l 0.25162,-0.89203 1.30309,1.11097 c 1.47888,1.26085 1.63996,1.31621 5.625,1.93327 3.4196,0.52951 5.07735,1.3413 5.9039,2.89112 1.1484,2.15329 -0.15177,4.20219 -3.65862,5.76552 -2.33088,1.03909 -3.21584,1.96543 -3.21564,3.36599 l 1.6e-4,1.19135 h -2.14119 c -2.01628,0 -2.18093,-0.0571 -2.82239,-0.97871 z m 7.97664,-6.05727 c 0.81491,-0.32073 1.59302,-0.74348 1.72913,-0.93943 0.1361,-0.19594 -0.37027,-0.0698 -1.12529,0.28037 -0.75501,0.35016 -2.47307,0.84291 -3.8179,1.095 l -2.44516,0.45835 2.08878,-0.15556 c 1.14883,-0.0856 2.75552,-0.41799 3.57044,-0.73873 z m 1.90619,-3.97083 c -1.03885,-1.11374 -2.39817,-1.42591 -5.78757,-1.32916 -4.19343,0.11971 -3.99519,0.4082 0.28051,0.4082 2.70142,0 3.43642,0.1119 4.46803,0.68024 1.51871,0.83671 1.61594,0.85923 1.03903,0.24072 z m 6.3693,7.76739 c -2.20446,-0.88882 -3.44386,-2.51332 -3.03185,-3.97392 0.28687,-1.01699 0.62417,-0.99876 1.33967,0.0723 0.31713,0.47476 1.09546,1.28695 1.72963,1.80487 l 1.15304,0.94166 -1.07337,-1.25555 c -2.21247,-2.58802 -2.3616,-3.29584 -0.69439,-3.29584 1.55112,0 2.69163,1.02507 3.54633,3.18738 0.36478,0.92284 0.79709,1.83214 0.9607,2.02067 0.1636,0.18852 0.193,0.43571 0.0653,0.5493 -0.29911,0.26614 -3.3037,0.22783 -3.99509,-0.0509 z m 9.76425,-4.1686 c -11.51699,-1.07078 -21.99452,-7.41653 -30.15557,-18.26378 l -2.31111,-3.07182 -1.6707,0.11918 c -1.23803,0.0883 -2.15832,0.4297 -3.55364,1.31825 -1.03562,0.6595 -2.12107,1.49238 -2.41211,1.85085 -1.07352,1.32224 -2.47895,3.36848 -2.2138,3.22321 0.15044,-0.0824 0.28084,0.78983 0.28977,1.93835 0.019,2.44443 0.84772,4.12602 2.77555,5.63207 2.71321,2.11963 6.74933,2.10768 9.31955,-0.0276 2.00597,-1.6665 2.46756,-4.61317 1.02169,-6.5222 -0.7548,-0.99658 -1.30197,-1.33758 -3.43165,-2.13869 -0.83888,-0.31555 -0.83027,-0.32253 0.17639,-0.14282 4.08383,0.729 5.97547,4.84253 3.72005,8.08958 -1.95824,2.81921 -6.90622,3.76457 -10.33029,1.9737 -3.85764,-2.01766 -5.45964,-6.7958 -3.61545,-10.78353 0.97847,-2.11578 4.86234,-5.05377 6.94278,-5.25193 0.44741,-0.0426 1.1243,-0.23244 1.50421,-0.42184 0.6858,-0.34188 0.6858,-0.35256 0,-1.493 -0.37991,-0.63177 -1.1839,-1.42088 -1.78664,-1.7536 -1.49778,-0.82678 -4.04677,-3.29945 -5.18893,-5.03354 -2.96829,-4.50666 -3.71249,-11.18118 -1.81822,-16.30722 0.42743,-1.15665 0.46259,-1.98453 0.18552,-4.36743 -0.19525,-1.67914 -0.52791,-3.04255 -0.7756,-3.17876 -0.30844,-0.16961 -0.32678,-0.35875 -0.0635,-0.65478 0.21052,-0.23672 0.46356,-3.02163 0.58657,-6.45595 l 0.21635,-6.03965 -1.38896,-0.63048 c -2.44207,-1.10851 -4.45279,-0.69122 -5.9044,1.22536 -0.44238,0.5841 -0.80434,1.40125 -0.80434,1.81588 0,1.71395 1.67859,3.23383 3.57152,3.23383 0.39385,0 1.20009,-0.43064 1.79164,-0.95698 0.59154,-0.52634 0.97621,-0.72666 0.8548,-0.44517 -0.1214,0.28151 -0.22073,0.56727 -0.22073,0.63504 0,0.0678 -0.46837,0.33871 -1.04082,0.6021 -1.65306,0.7606 -2.77405,0.60013 -4.10974,-0.58832 -3.83003,-3.40783 1.85963,-8.61014 6.50408,-5.94698 1.13075,0.64838 1.31359,0.34884 0.84716,-1.38792 -0.2194,-0.81696 -0.50407,-1.96325 -0.63259,-2.5473 -0.15269,-0.69391 -0.3295,-0.92398 -0.51019,-0.66385 -0.20581,0.2963 -0.37274,0.2381 -0.65288,-0.22764 -0.207,-0.34416 -0.81938,-0.87642 -1.36083,-1.18281 -0.94783,-0.53635 -0.9418,-0.51701 0.16206,0.5198 1.24527,1.16961 1.41651,1.67235 0.65786,1.93138 -0.73197,0.24992 -1.90277,-0.61642 -2.69105,-1.99124 -0.97189,-1.69506 -0.90108,-1.8751 0.73741,-1.8751 1.11434,0 1.66704,0.20357 2.45418,0.90394 0.58715,0.52242 1.07799,0.75426 1.16296,0.5493 0.0809,-0.19504 0.15423,-0.002 0.16305,0.43009 0.0369,1.80816 1.13156,4.85415 1.13156,3.14874 0,-0.39741 0.40997,-2.49314 0.91103,-4.6572 4.23947,-18.309957 15.73817,-33.267377 30.20015,-39.284127 4.96935,-2.06743 8.10084,-2.65358 14.22076,-2.66179 6.23477,-0.008 9.24258,0.57263 14.57383,2.81507 7.24167,3.04603 13.36854,7.91177 18.71026,14.85903 15.37645,19.998097 17.49425,51.626387 4.99983,74.669827 -9.43767,17.40586 -25.18125,27.01083 -41.74884,25.47045 z m 9.56521,-2.66412 c 9.55304,-1.75144 18.43512,-7.56349 25.14141,-16.45146 0.84671,-1.12215 1.64058,-2.1109 1.76417,-2.19722 0.5993,-0.41857 5.00292,-9.02098 6.10589,-11.92777 3.38694,-8.92598 4.57895,-15.59697 4.57111,-25.58194 -0.006,-7.8055 -0.41545,-11.35738 -2.06131,-17.88677 -4.07576,-16.169237 -13.97091,-29.466957 -26.36348,-35.428897 -15.06029,-7.24534 -32.16148,-3.12679 -44.10335,10.62159 -7.82586,9.00971 -12.50963,19.936167 -14.36749,33.516977 -0.31268,2.2857 -0.27614,3.21425 0.21617,5.49305 0.69039,3.1957 0.75249,8.13906 0.1312,10.44342 -0.26968,1.00023 -0.34328,2.34487 -0.19413,3.54665 0.40383,3.2538 0.45795,3.34814 1.92067,3.34814 0.7119,0 1.63662,0.2133 2.05492,0.47399 0.73087,0.45549 0.75935,0.43607 0.72951,-0.49763 -0.0252,-0.78893 0.37639,-1.33415 2.13571,-2.89953 l 2.16675,-1.92789 1.06718,1.09151 c 1.49467,1.52873 2.15116,2.68671 1.87984,3.31582 -0.19272,0.44685 -0.0811,0.50403 0.66051,0.33841 1.04942,-0.23436 3.63746,0.50123 4.80969,1.36703 0.74817,0.5526 0.78641,0.70848 0.4177,1.70254 -0.22323,0.60182 -0.87406,1.54018 -1.44628,2.08522 -0.87574,0.83414 -1.22103,0.96266 -2.1816,0.81202 l -1.14118,-0.17895 1.14245,0.5098 c 0.62835,0.28039 1.21042,0.73213 1.29348,1.00386 0.20534,0.67179 -0.25402,3.18051 -0.58707,3.20626 -0.1473,0.0114 -1.53779,-0.0793 -3.08998,-0.20158 -2.05735,-0.16203 -2.91402,-0.36222 -3.16105,-0.73866 -0.18639,-0.28402 -0.34371,-0.37078 -0.3496,-0.19281 -0.006,0.19299 -1.05809,0.31929 -2.60592,0.31293 l -2.59519,-0.0107 0.78228,2.04124 c 2.08919,5.45143 3.56342,7.78898 5.10912,8.10108 0.87776,0.17723 5.62616,3.25982 8.62746,5.6008 4.55874,3.55579 9.65909,9.21706 12.73881,14.13981 0.95256,1.52261 1.17375,1.67491 3.32727,2.29103 1.26878,0.363 3.09874,0.77772 4.06657,0.92163 2.98228,0.44342 8.51167,0.36425 11.38776,-0.16305 z m -14.98542,-1.68306 c -1.07058,-0.58082 -1.87459,-1.50688 -1.87459,-2.15916 0,-0.18769 0.49924,-0.19831 1.32291,-0.0281 0.72761,0.15034 2.43417,0.2582 3.79236,0.23968 l 2.46945,-0.0336 -2.02419,-0.23088 c -2.48528,-0.28346 -5.15789,-0.93053 -5.42364,-1.31312 -0.38702,-0.55718 0.94058,-1.80637 2.30682,-2.17059 1.55366,-0.41417 2.94269,-0.11633 7.02891,1.50717 l 2.21715,0.88089 -1.05069,1.29054 c -1.9683,2.41763 -6.22193,3.39666 -8.76449,2.01725 z m 6.84931,-2.40249 c -0.11723,-0.10431 -0.4215,-0.11546 -0.67616,-0.0247 -0.28142,0.1002 -0.19783,0.17458 0.21314,0.18964 0.37188,0.0136 0.58024,-0.0606 0.46302,-0.16487 z m -10.61562,-2.22595 c -0.10825,-0.0963 0.0376,-0.57852 0.3242,-1.07157 0.28656,-0.49305 0.5953,-1.56983 0.68609,-2.39285 l 0.16507,-1.49637 -0.35187,1.21992 c -0.39362,1.36468 -1.73983,3.64536 -2.15173,3.64536 -0.57945,0 -1.36615,-1.45427 -1.36615,-2.52542 0,-0.80646 0.46395,-1.77539 1.61987,-3.38293 0.89092,-1.23902 1.74994,-2.25277 1.90891,-2.25277 0.59477,0 2.11116,1.95832 2.49275,3.21924 0.4811,1.58967 0.0189,3.25925 -1.16491,4.20764 -0.89994,0.721 -1.86726,1.09221 -2.16223,0.82975 z m -9.2601,-8.39155 c -0.11691,-0.27107 -0.12718,-0.69081 -0.0228,-0.93276 0.1128,-0.26156 -0.0864,-0.50415 -0.49143,-0.59838 -0.72909,-0.16966 -0.92166,-0.98963 -0.31123,-1.3253 0.24973,-0.13732 0.2254,-0.35834 -0.0749,-0.68027 -0.36121,-0.38725 -0.34786,-0.5442 0.0711,-0.83524 0.28372,-0.19712 0.51585,-0.62913 0.51585,-0.96002 0,-0.33089 0.19835,-0.66045 0.44078,-0.73235 0.53775,-0.1595 1.03263,0.84506 0.55679,1.13023 -0.3744,0.22438 -0.34918,1.47159 0.0466,2.30745 0.13916,0.29385 0.16136,0.66623 0.0493,0.82752 -0.11202,0.16128 0.12459,0.36961 0.52582,0.46297 0.52333,0.12176 0.69668,0.3758 0.61339,0.89887 -0.13906,0.87332 -1.58881,1.20361 -1.91931,0.43728 z m -8.63086,-6.74648 c -0.80656,-0.71765 -1.0312,-1.1997 -1.0312,-2.21281 0,-1.67716 0.68365,-2.81301 2.54839,-4.23401 l 1.50855,-1.14958 0.46634,1.01424 c 0.25649,0.55783 0.72728,1.89946 1.04621,2.98138 0.53678,1.821 0.53705,2.04704 0.004,3.04244 -0.5784,1.07921 -1.85132,1.69515 -2.26687,1.09689 -0.12226,-0.17601 -0.32487,-1.39868 -0.45024,-2.71705 -0.22268,-2.34159 -0.23417,-2.36502 -0.49679,-1.01292 -0.14786,0.76128 -0.16551,1.99721 -0.0392,2.74653 0.12629,0.74933 0.12001,1.36241 -0.014,1.36241 -0.13397,0 -0.70762,-0.41289 -1.27478,-0.91752 z m 9.43453,0.70826 c -0.42966,-0.3823 -0.24309,-1.04629 0.29398,-1.04629 0.29398,0 0.52917,0.27901 0.52917,0.62777 0,0.62534 -0.3759,0.81646 -0.82315,0.41852 z m 1.05833,-0.94167 c -0.40592,-0.36117 -0.2569,-0.73241 0.29398,-0.73241 0.29104,0 0.52917,0.21187 0.52917,0.47084 0,0.49015 -0.41723,0.62275 -0.82315,0.26157 z m -20.80147,-29.18061 c -0.31566,-0.28087 0.3098,-1.22057 1.81,-2.71937 l 1.2938,-1.29258 -1.1366,0.70766 c -0.62513,0.38922 -1.41342,1.12463 -1.75176,1.63425 -0.72123,1.08636 -1.03845,1.15812 -1.34318,0.30386 -0.52059,-1.45943 1.55807,-3.40057 3.9093,-3.65064 2.28629,-0.24318 2.4695,0.11431 1.26743,2.47317 -0.57656,1.1314 -1.37185,2.21117 -1.7673,2.39948 -0.79546,0.37879 -1.93694,0.45091 -2.28169,0.14417 z m -0.74716,-8.69275 c -1.40122,-1.24675 -1.24913,-2.97831 0.55554,-6.32473 1.01704,-1.88593 1.53107,-3.3104 1.67569,-4.64366 l 0.20861,-1.92324 0.97014,1.02789 c 0.83945,0.88941 1.16867,1.74429 1.01192,2.62762 -0.023,0.12949 0.76717,0.23543 1.75588,0.23543 2.03675,0 3.59432,0.6698 4.1695,1.79303 0.57571,1.12424 0.46943,2.5271 -0.21736,2.86908 -0.50491,0.25141 -0.37966,0.38085 0.78893,0.8153 1.3581,0.50489 2.98627,1.63394 2.98627,2.07081 0,0.12065 -1.30968,0.21336 -2.91041,0.20604 -2.4914,-0.0114 -3.18103,0.10986 -4.79,0.84223 -1.03377,0.47054 -2.64764,0.93648 -3.58638,1.0354 -1.50806,0.15892 -1.81293,0.0854 -2.61833,-0.6312 z m 2.72762,-0.56405 c 0.42381,-0.19373 1.16743,-0.67807 1.6525,-1.07629 0.48507,-0.39822 1.59632,-1.08551 2.46945,-1.5273 0.87312,-0.4418 1.46334,-0.80497 1.31158,-0.80706 -0.70225,-0.01 -2.71598,0.95183 -3.85138,1.83882 -0.68957,0.53871 -1.7099,1.19114 -2.2674,1.44984 -0.5575,0.2587 -0.80476,0.47124 -0.54947,0.47229 0.25529,8.9e-4 0.81091,-0.15657 1.23472,-0.3503 z m 1.28893,-5.72068 c 0.22686,-0.6642 0.34753,-1.26543 0.26816,-1.33605 -0.0794,-0.0706 -0.32521,0.40219 -0.54629,1.0507 -0.22108,0.64851 -0.97404,1.7441 -1.67323,2.43466 -0.6992,0.69055 -1.43606,1.53805 -1.63746,1.88333 -0.2014,0.34528 0.43089,-0.14909 1.40509,-1.09861 0.97419,-0.94951 1.95688,-2.26983 2.18373,-2.93403 z m -2.38809,-10.93985 c -0.69308,-0.61668 -0.49043,-0.87613 0.72319,-0.92592 1.09703,-0.045 1.10374,-0.0528 0.15547,-0.17959 -1.30395,-0.17441 -1.03109,-0.84449 0.39499,-0.96995 0.81472,-0.0717 1.35169,0.11397 2.0013,0.69197 0.4883,0.43448 0.88782,0.92115 0.88782,1.0815 0,0.67411 -3.46226,0.92528 -4.16277,0.30199 z m 22.26257,71.60653 c -1.33458,-2.01986 -5.32243,-6.51182 -7.94223,-8.94625 -2.50037,-2.32343 -6.03196,-4.53686 -6.53069,-4.0931 -0.56087,0.49904 6.29828,8.1764 9.28642,10.39419 2.57516,1.91126 5.16999,3.60971 5.5148,3.60971 0.16995,0 0.0222,-0.43405 -0.3283,-0.96455 z m -23.42661,-23.69659 c -1.15622,-2.66203 -3.26228,-9.63382 -3.69136,-12.21965 -0.36635,-2.20786 -0.80289,-1.04471 -0.83481,2.22434 -0.0273,2.80055 0.86352,6.45088 2.11268,8.65675 0.79854,1.41015 3.13447,4.14967 3.36411,3.94535 0.072,-0.0641 -0.35573,-1.23716 -0.95062,-2.60679 z m 1.14311,-8.12399 c -0.19113,-0.35421 -0.44908,-1.05662 -0.57322,-1.56091 -0.20601,-0.8369 -1.59308,-2.77725 -1.59308,-2.22855 0,0.46915 1.84412,6.92048 2.06555,7.22599 0.37874,0.52254 0.4745,-2.74389 0.10075,-3.43653 z m 7.53509,-0.25881 c 0.97208,-0.12326 0.95247,-0.13804 -0.24056,-0.18124 -1.09688,-0.0397 -1.42172,0.11164 -2.08862,0.97312 l -0.78972,1.02013 1.03028,-0.8389 c 0.56666,-0.46139 1.50654,-0.89929 2.08862,-0.97311 z m -4.69913,-2.31359 c -0.23244,-0.36957 -0.30305,-0.0702 -0.23964,1.01611 0.12388,2.12223 0.27468,2.4131 0.43436,0.83782 0.0741,-0.7315 -0.0135,-1.56577 -0.19472,-1.85393 z m 2.40608,1.58268 c 0,-0.21046 0.60396,-1.06627 1.34213,-1.90181 1.87429,-2.1215 2.13647,-2.62086 0.79762,-1.51915 -1.24163,1.0217 -2.63492,2.98754 -3.00333,4.2375 -0.22232,0.75428 -0.21006,0.76109 0.31614,0.17541 0.30109,-0.33511 0.54744,-0.78148 0.54744,-0.99195 z m -3.175,1.02213 c 0,-0.0595 -0.35719,-0.37738 -0.79375,-0.70625 l -0.79375,-0.59796 0.67203,0.70625 c 0.63155,0.6637 0.91547,0.84914 0.91547,0.59796 z m -5.59756,-20.98363 c -0.28028,-0.86514 -0.34131,-0.58579 -0.36785,1.68361 -0.0175,1.49648 0.0873,2.9796 0.23277,3.29584 0.40303,0.87584 0.52889,-3.76384 0.13508,-4.97945 z m 4.25618,52.55927 c -0.66391,-0.51078 -1.4003,-1.96181 -0.99562,-1.96181 0.099,0 0.78439,0.30386 1.52308,0.67524 l 1.34308,0.67525 -1.23472,-0.98 c -1.0327,-0.81966 -1.14814,-1.03206 -0.70555,-1.29821 0.90683,-0.54533 1.40009,-0.37242 3.10734,1.08921 1.59314,1.36397 1.6295,1.43453 0.97037,1.88334 -0.93422,0.63613 -3.13242,0.59059 -4.00798,-0.083 z m -5.22681,-14.29307 c -1.47909,-0.7545 -4.68267,-3.21291 -4.58711,-3.52011 0.0537,-0.17264 0.72031,-0.63755 1.48133,-1.03313 1.12019,-0.58227 1.77996,-0.69736 3.4646,-0.60438 1.81432,0.10015 2.20978,0.2432 3.08681,1.11655 0.55324,0.55093 1.00589,1.28196 1.00589,1.62451 0,0.77287 0.0966,0.77994 -2.16983,-0.15882 -1.03791,-0.42992 -2.20461,-0.77309 -2.59267,-0.76261 -0.43426,0.0117 -0.19103,0.18707 0.63254,0.45601 1.07603,0.35138 2.58651,1.12822 3.74562,1.92634 0.0797,0.0548 -0.14338,0.3831 -0.49565,0.72943 -0.72345,0.71128 -2.4111,0.81817 -3.57153,0.22621 z m -8.06156,-17.7917 c -0.5688,-0.55923 -1.95081,-4.28642 -1.95081,-5.2612 0,-0.57858 2.29392,-0.50272 3.7807,0.12502 1.9802,0.83609 3.06852,2.97529 2.35517,4.62932 -0.33164,0.76898 -0.65718,0.59851 -1.29969,-0.68058 -0.3252,-0.64739 -0.99719,-1.60084 -1.49331,-2.11875 -0.87211,-0.91042 -0.86763,-0.88439 0.13507,0.78473 0.5704,0.94951 1.14316,2.04419 1.2728,2.43263 0.21205,0.63541 0.11493,0.70625 -0.96812,0.70625 -0.74907,0 -1.44105,-0.23324 -1.83181,-0.61742 z m -1.59803,-8.81777 c 0,-0.18283 -0.15875,-0.24511 -0.35278,-0.13842 -0.19403,0.1067 -0.35278,0.0444 -0.35278,-0.13842 0,-0.38502 0.0948,-0.40078 0.8531,-0.14188 0.61549,0.21015 0.76331,0.75114 0.20524,0.75114 -0.19403,0 -0.35278,-0.14959 -0.35278,-0.33242 z m 1.05833,0.0185 c 0,-0.17264 0.15875,-0.31389 0.35278,-0.31389 0.19403,0 0.35278,0.14125 0.35278,0.31389 0,0.17264 -0.15875,0.31389 -0.35278,0.31389 -0.19403,0 -0.35278,-0.14125 -0.35278,-0.31389 z m 1.76389,-0.29273 c 0,-0.16101 0.3175,-0.3824 0.70556,-0.49199 0.38805,-0.10959 0.70555,-0.35452 0.70555,-0.5443 0,-0.18978 0.0831,-0.2711 0.1847,-0.18072 0.3005,0.26738 -0.22997,1.208 -0.57444,1.01858 -0.1737,-0.0955 -0.31581,-0.0241 -0.31581,0.15874 0,0.18283 -0.15875,0.33242 -0.35278,0.33242 -0.19403,0 -0.35278,-0.13173 -0.35278,-0.29273 z m -4.40972,-0.64893 c -0.11992,-0.17264 -0.0499,-0.31389 0.15557,-0.31389 0.20548,0 0.3736,0.14125 0.3736,0.31389 0,0.17264 -0.07,0.31389 -0.15557,0.31389 -0.0856,0 -0.25369,-0.14125 -0.3736,-0.31389 z m -0.66781,-1.12427 c -0.29688,-0.68835 -0.26811,-1.22559 0.0504,-0.94215 0.14552,0.12948 0.26701,0.32958 0.26998,0.44467 0.003,0.11509 0.13141,0.38583 0.28541,0.60162 0.154,0.2158 0.12886,0.39236 -0.0559,0.39236 -0.18472,0 -0.43221,-0.22342 -0.54998,-0.4965 z m -0.56691,-1.70071 c 0,-0.17265 0.15875,-0.3139 0.35277,-0.3139 0.19403,0 0.35278,0.14125 0.35278,0.3139 0,0.17264 -0.15875,0.31389 -0.35278,0.31389 -0.19402,0 -0.35277,-0.14125 -0.35277,-0.31389 z m 0.35277,-0.94168 c 0,-0.17264 0.15875,-0.31389 0.35278,-0.31389 0.19403,0 0.35278,0.14125 0.35278,0.31389 0,0.17264 -0.15875,0.31389 -0.35278,0.31389 -0.19403,0 -0.35278,-0.14125 -0.35278,-0.31389 z m 0.35278,-0.94166 c 0,-0.17264 0.15875,-0.31389 0.35278,-0.31389 0.19403,0 0.35278,0.14125 0.35278,0.31389 0,0.17264 -0.15875,0.31389 -0.35278,0.31389 -0.19403,0 -0.35278,-0.14125 -0.35278,-0.31389 z m 0.70556,-0.94166 c 0,-0.17264 0.15875,-0.31389 0.35278,-0.31389 0.19402,0 0.35277,0.14125 0.35277,0.31389 0,0.17263 -0.15875,0.31388 -0.35277,0.31388 -0.19403,0 -0.35278,-0.14125 -0.35278,-0.31388 z m 7.47595,-0.33744 c 0.0695,-0.18558 0.27722,-0.33743 0.46155,-0.33743 0.18432,0 0.39202,0.15185 0.46155,0.33743 0.0695,0.18559 -0.13817,0.33744 -0.46155,0.33744 -0.32338,0 -0.53108,-0.15185 -0.46155,-0.33744 z m -6.57894,-0.26865 c -0.24097,-0.34692 0.31552,-0.72153 0.64128,-0.43168 0.33542,0.29844 0.27291,0.72388 -0.10636,0.72388 -0.18258,0 -0.42329,-0.13149 -0.53492,-0.2922 z m 1.42531,-0.29346 c -0.15197,-0.21878 -0.18104,-0.48255 -0.0646,-0.58615 0.31572,-0.28092 0.65996,0.13223 0.48944,0.58742 -0.1195,0.31897 -0.20259,0.31872 -0.42485,-8.9e-4 z m 3.86635,-0.0205 c -0.24097,-0.34692 0.31553,-0.72152 0.64129,-0.43168 0.33541,0.29845 0.2729,0.72388 -0.10636,0.72388 -0.18258,0 -0.4233,-0.13149 -0.53493,-0.2922 z m -2.66089,-0.49252 c 0,-0.25897 0.15875,-0.47084 0.35277,-0.47084 0.19403,0 0.35278,0.21187 0.35278,0.47084 0,0.25896 -0.15875,0.47083 -0.35278,0.47083 -0.19402,0 -0.35277,-0.21187 -0.35277,-0.47083 z m 1.3031,0.27011 c -0.28184,-0.25078 0.0368,-0.74095 0.4816,-0.74095 0.18258,0 0.33196,0.21187 0.33196,0.47084 0,0.48539 -0.41626,0.6236 -0.81356,0.27011 z m 4.36919,-19.75737 c 0.0169,-0.36567 0.10052,-0.44004 0.21314,-0.18965 0.1019,0.22659 0.0894,0.49732 -0.0279,0.60163 -0.11723,0.1043 -0.20061,-0.0811 -0.18529,-0.41198 z m -1.2453,-4.89958 c -0.37856,-0.19539 -1.07215,-0.76117 -1.54133,-1.25728 -0.46917,-0.49612 -1.31586,-1.11498 -1.88153,-1.37525 -0.9529,-0.43845 -1.10536,-0.42451 -2.07464,0.18959 -0.57539,0.36455 -1.04616,0.52028 -1.04616,0.34608 0,-0.17421 0.16216,-0.40591 0.36036,-0.5149 0.21236,-0.11678 0.0497,-0.42195 -0.39591,-0.74305 l -0.75628,-0.54489 1.17639,-0.88074 c 1.04995,-0.78609 1.3674,-0.861467 2.95355,-0.70135 1.63521,0.16506 1.72094,0.14186 1.07321,-0.290537 -0.67977,-0.45378 -0.6828,-0.50272 -0.0882,-1.42455 0.33867,-0.52505 0.61577,-1.13702 0.61577,-1.35992 0,-0.67018 2.79683,-0.91714 3.54686,-0.3132 0.58584,0.47174 0.63792,0.45827 0.74632,-0.1929 0.11764,-0.70664 1.14933,-1.51926 1.51536,-1.19359 0.10887,0.0969 -0.058,0.72113 -0.3708,1.38727 -0.54132,1.15274 -0.53135,1.29142 0.20677,2.87595 1.10986,2.382537 1.1201,4.520477 0.0266,5.556947 -0.93466,0.88594 -2.80619,1.08676 -4.06637,0.43632 z m 1.13506,-1.48304 c -0.63351,-0.50365 -1.23133,-0.84476 -1.32848,-0.75802 -0.21813,0.19475 1.67433,1.67374 2.14166,1.67374 0.18627,0 -0.17966,-0.41207 -0.81318,-0.91572 z m 2.43758,-1.80238 c -0.28549,-0.4912 -0.88692,-1.17526 -1.33652,-1.52013 -0.70546,-0.54114 -0.68959,-0.48752 0.1159,0.39141 0.51334,0.56014 1.03818,1.31234 1.16632,1.67156 0.12814,0.35922 0.30956,0.58499 0.40317,0.5017 0.0936,-0.0833 -0.0634,-0.55333 -0.34887,-1.04454 z m -3.23713,-1.72929 c 0.49112,-0.0762 0.71861,-0.37206 0.74852,-0.973747 0.0376,-0.75611 0.0239,-0.76803 -0.10952,-0.0951 -0.0951,0.479777 -0.42797,0.806067 -0.88449,0.867067 -0.4026,0.0538 -0.96811,0.45095 -1.2567,0.88253 l -0.52471,0.78473 0.66067,-0.67805 c 0.36337,-0.37292 0.97817,-0.72726 1.36623,-0.7874 z m 1.81175,-2.613167 c 0.55576,-0.25789 0.77234,-0.46528 0.4813,-0.46085 -0.29104,0.004 -0.83732,0.21544 -1.21395,0.46891 -0.88052,0.59257 -0.55394,0.58898 0.73265,-0.008 z"
       id="path5452" /></g></svg>
