<?xml version="1.0" encoding="UTF-8" standalone="no"?>
<!-- Created with Inkscape (http://www.inkscape.org/) -->

<svg
   width="343.54565"
   height="527.20422"
   viewBox="0 0 90.896454 139.48945"
   version="1.1"
   id="svg5"
   xml:space="preserve"
   xmlns:inkscape="http://www.inkscape.org/namespaces/inkscape"
   xmlns:sodipodi="http://sodipodi.sourceforge.net/DTD/sodipodi-0.dtd"
   xmlns="http://www.w3.org/2000/svg"
   xmlns:svg="http://www.w3.org/2000/svg"><sodipodi:namedview
     id="namedview7"
     pagecolor="#ffffff"
     bordercolor="#000000"
     borderopacity="0.25"
     inkscape:showpageshadow="2"
     inkscape:pageopacity="0.0"
     inkscape:pagecheckerboard="0"
     inkscape:deskcolor="#d1d1d1"
     inkscape:document-units="px"
     showgrid="false"
     showborder="false" /><defs
     id="defs2" /><g
     inkscape:label="Layer 1"
     inkscape:groupmode="layer"
     id="layer1"
     transform="translate(-125.55536,-25.205651)"><path
       style="fill:#ffd42a;stroke-width:0.291862"
       d="m 170.16767,164.37437 c 0,-0.17625 -0.40672,-0.70063 -0.90384,-1.16499 l -0.90385,-0.8443 0.90385,-2.17111 c 0.49712,-1.19412 0.90384,-2.50085 0.90384,-2.90386 0,-1.39523 0.49693,-1.0316 0.85995,0.62929 0.20065,0.91746 0.61406,2.24221 0.91898,2.94384 l 0.55439,1.27573 -0.8748,0.99635 c -0.48114,0.548 -0.8748,1.12311 -0.8748,1.27806 0,0.15494 -0.1312,0.28172 -0.29169,0.28172 -0.16045,0 -0.29203,-0.1443 -0.29203,-0.32054 z m -2.62662,-3.25459 c 10e-5,-0.0402 0.26283,-0.76388 0.58372,-1.60838 1.00199,-2.63621 0.48302,-4.44776 -1.27415,-4.44776 -0.76947,0 -2.23077,1.02082 -2.22386,1.55346 0.002,0.22814 0.0876,0.21233 0.25184,-0.0468 0.13606,-0.21475 0.56094,-0.34602 0.94409,-0.29171 0.87674,0.12407 1.1334,1.66309 0.39971,2.39682 -1.29008,1.29007 -3.56151,-0.16044 -3.25069,-2.07578 0.1251,-0.77063 -0.002,-1.10327 -0.70329,-1.80178 -1.58155,-1.58151 -0.10303,-3.05643 1.56215,-1.55826 0.54339,0.48894 0.56301,0.48635 0.45918,-0.0605 -0.19516,-1.02778 -3.76717,-1.74017 -5.78471,-1.15367 -4.32307,1.25675 -7.10461,4.48426 -4.75357,5.51571 0.82811,0.36327 0.70254,0.78529 -0.3147,1.05732 -0.56133,0.15009 -1.14037,0.024 -2.02399,-0.44516 -0.89861,-0.47582 -1.45757,-0.59599 -2.03988,-0.43863 -4.30169,1.16255 -9.56006,-5.05467 -10.14312,-11.99281 -0.45621,-5.42825 -0.58388,-6.08281 -1.36795,-7.01465 -1.18289,-1.40579 -2.80248,-0.80432 -3.20108,1.18867 -0.0952,0.47658 -0.3437,0.86648 -0.55198,0.86648 -0.5302,0 -1.16557,-2.00187 -0.7631,-2.40432 0.16904,-0.16903 0.2326,-0.68239 0.14079,-1.14058 -0.14978,-0.74945 -0.0753,-0.85131 0.74544,-1.01542 0.60884,-0.12158 0.91207,-0.35398 0.91207,-0.69845 0,-0.82222 2.14745,-1.2868 2.40307,-0.51985 0.0759,0.22745 0.18208,0.24497 0.30267,0.0498 0.10204,-0.16525 -0.17522,-0.74981 -0.61642,-1.299 -1.58537,-1.97339 -4.50917,-7.27666 -6.04744,-10.96893 -4.87859,-11.71011 -6.73248,-26.016158 -4.9875,-38.487108 1.4172,-10.127873 5.6647,-22.142149 9.69735,-27.429223 0.89362,-1.171609 0.88953,-1.493526 -0.0205,-1.722287 -0.45041,-0.113029 -0.72964,-0.390429 -0.72964,-0.724813 0,-0.373191 -0.2838,-0.598418 -0.91207,-0.724093 -0.82062,-0.164122 -0.89537,-0.265956 -0.74548,-1.015435 0.0917,-0.458164 0.0274,-0.971422 -0.14079,-1.140578 -0.39061,-0.390617 0.22537,-2.404321 0.73563,-2.404321 0.19309,0 0.54416,0.555558 0.77998,1.234574 0.87709,2.525347 3.09512,1.99467 3.76212,-0.900125 0.17177,-0.74578 0.43835,-2.978473 0.59221,-4.961534 0.33532,-4.32148 1.04125,-6.076432 3.69729,-9.191334 2.30168,-2.699336 5.43395,-4.003289 7.11734,-2.96291 0.18004,0.111312 0.5493,0.0016 0.82037,-0.243658 0.83439,-0.755109 2.02552,-1.083179 2.82675,-0.77856 0.90373,0.3436 0.92562,0.651192 0.0728,1.025272 -1.7323,0.760007 -0.16214,3.552999 2.68635,4.778375 1.93849,0.833919 4.3446,0.21779 5.26922,-1.349303 0.31334,-0.531258 0.76884,-1.042262 1.01198,-1.135561 0.33018,-0.126668 0.39895,-0.439336 0.27176,-1.2343 -0.32467,-2.030628 1.89165,-3.534761 3.23262,-2.193803 0.73373,0.733716 0.47704,2.272817 -0.39972,2.396784 -0.38315,0.05418 -0.80796,-0.07717 -0.94405,-0.291861 -0.16422,-0.259088 -0.2491,-0.274823 -0.25184,-0.04674 -0.007,0.532657 1.45439,1.553456 2.22385,1.553456 1.81863,0 2.34427,-2.211521 1.13262,-4.764911 -0.56013,-1.180429 -0.40212,-1.740921 0.29443,-1.044356 1.08603,1.086018 1.89266,4.713618 1.29601,5.828454 -0.27312,0.510109 -0.1996,0.564537 0.76087,0.564537 0.84944,0 1.0274,-0.09277 0.88586,-0.461665 -0.0976,-0.253897 -0.18621,-0.877766 -0.19756,-1.386342 -0.0172,-0.731436 -0.0666,-0.806738 -0.24152,-0.360329 -0.27075,0.691674 -0.47336,0.378844 -0.74322,-1.148072 -0.11336,-0.642096 -0.54895,-1.936686 -0.96775,-2.876865 -0.71076,-1.595495 -0.72741,-1.728502 -0.24978,-1.995691 0.28138,-0.157459 0.74132,-0.664123 1.02215,-1.12595 l 0.51066,-0.839675 1.0999,1.315825 c 0.77602,0.928366 1.01466,1.419509 0.81044,1.667923 -0.42596,0.518174 -1.28877,3.661327 -1.1197,4.079118 0.0814,0.200884 0.1553,0.125753 0.16836,-0.170581 0.0406,-0.934935 1.24866,-3.410513 1.66422,-3.410513 0.50995,0 0.51152,-0.01371 -0.17557,1.500398 -1.24282,2.738985 -0.39929,5.008551 1.66967,4.492195 0.88986,-0.222083 1.82624,-0.953476 1.82624,-1.426417 0,-0.18697 -0.13576,-0.169449 -0.35022,0.04526 -0.96513,0.965117 -2.22163,-0.155946 -1.70315,-1.519606 0.62959,-1.655997 3.09914,-1.176158 3.63922,0.707123 0.1601,0.557798 0.66869,1.332095 1.13049,1.720657 0.64865,0.545818 0.80491,0.879939 0.68703,1.469291 -0.14186,0.709468 -0.0504,0.787042 1.30533,1.109135 3.81348,0.905859 9.24916,-3.569201 6.513,-5.361987 -1.62443,-1.064374 0.90272,-1.475904 2.60454,-0.424128 0.57643,0.35626 1.20245,0.552332 1.39114,0.435718 1.71591,-1.060495 4.71347,0.439421 7.31778,3.661671 2.44034,3.01939 3.03423,4.717786 3.41676,9.771069 0.34656,4.578613 1.06702,6.292979 2.64459,6.292979 0.60369,0 1.75712,-1.428204 1.75712,-2.175693 0,-0.964142 0.68119,-0.96386 1.12058,4.67e-4 0.4242,0.931028 0.43184,1.673496 0.0205,2.083912 -0.22847,0.228474 -0.22813,0.37232 8.7e-4,0.51388 0.53562,0.331063 -0.20546,1.328604 -0.98694,1.328604 -0.50274,0 -0.72528,0.184393 -0.79235,0.656687 -0.0591,0.415469 -0.32776,0.690073 -0.73172,0.747566 -0.59834,0.08518 -0.54095,0.241048 0.91314,2.480824 1.40605,2.165727 5.12478,9.385764 5.12478,9.949938 0,0.127643 0.18827,0.645913 0.41864,1.151743 7.27105,15.973653 5.97752,42.911053 -2.84025,59.146043 -0.47951,0.88287 -1.16512,2.15216 -1.52359,2.8206 -0.35846,0.66845 -1.39052,2.28783 -2.29341,3.59859 -1.81043,2.62819 -1.88626,2.78621 -1.10199,2.29641 0.77553,-0.48433 2.08708,-0.0887 2.08708,0.62952 0,0.41996 0.19686,0.57816 0.7194,0.57816 0.82463,0 1.47254,0.9018 0.99268,1.38166 -0.21027,0.21027 -0.20615,0.36392 0.0137,0.49973 0.41273,0.25491 0.40375,1.11186 -0.0205,2.04502 -0.43936,0.96433 -1.12059,0.96461 -1.12059,4.5e-4 0,-0.87032 -1.19068,-2.17568 -1.98452,-2.17568 -1.39487,0 -2.0684,1.74829 -2.41353,6.26497 -0.42243,5.52721 -1.05563,7.15697 -4.18201,10.76349 -2.05482,2.37034 -4.48601,3.45417 -6.2468,2.78472 -0.53656,-0.20407 -0.93729,-0.12332 -1.68529,0.33877 -0.64779,0.40036 -1.34868,0.57552 -2.06233,0.51535 -1.26585,-0.10677 -1.61513,-0.67144 -0.57651,-0.9321 2.48304,-0.62321 -0.38416,-4.24046 -4.27528,-5.39376 -3.38254,-1.00258 -5.32247,-0.85093 -6.01834,0.47044 -0.36013,0.68391 -0.089,0.88725 0.45641,0.3422 0.17315,-0.17317 0.69185,-0.27176 1.15284,-0.21886 1.17672,0.13439 1.26725,1.11901 0.18656,2.02839 -0.45544,0.38319 -0.95895,1.15313 -1.1189,1.71092 -0.54014,1.88328 -3.00964,2.36313 -3.63926,0.70713 -0.50437,-1.32661 1.33243,-2.81276 1.86013,-1.505 0.11635,0.28895 0.15191,0.28791 0.17006,-0.002 0.031,-0.47233 -1.68481,-1.52547 -2.48553,-1.52687 -1.55674,-0.002 -2.0466,2.2932 -0.98738,4.62759 0.687,1.51401 0.68542,1.50041 0.17556,1.50041 -0.51346,0 -1.59494,-2.50012 -1.83315,-4.23774 -0.29615,-2.16077 0.78943,-3.35068 3.05688,-3.35068 0.40412,0 0.66442,-0.0704 0.57851,-0.15632 -0.086,-0.086 -1.95532,-0.19069 -4.15416,-0.2326 -3.95027,-0.0755 -5.31497,0.144 -3.09925,0.49834 1.32694,0.21234 2.35072,1.30571 2.35072,2.51088 0,0.90801 -1.00427,3.98187 -1.49351,4.57136 -0.28001,0.33739 -0.84172,0.55359 -0.84126,0.32365 z m 26.09728,-4.4931 c 0.24599,-0.64103 -0.6577,-1.60296 -1.40856,-1.49932 -1.03879,0.14323 -0.94734,-0.96214 0.15837,-1.91568 0.9595,-0.82733 0.74472,-0.93189 -0.69579,-0.33876 -0.80708,0.33223 -0.63402,-0.64144 0.26145,-1.47137 1.46979,-1.36215 4.24494,-0.83384 5.75493,1.09553 l 0.74132,0.94725 0.76639,-1.67404 c 1.33945,-2.92576 1.33028,-6.92168 -0.0172,-6.92168 -0.95674,0 -1.06376,2.47909 -0.11996,2.77863 0.6829,0.21678 0.74248,0.88499 0.10067,1.13122 -0.72314,0.27762 -2.183,-0.73938 -2.36592,-1.64792 -0.21612,-1.07369 -0.6723,-1.02419 -0.6723,0.0728 0,1.01975 -0.42083,1.14157 -0.89338,0.25871 -0.34047,-0.63587 -0.25973,-2.00663 0.17797,-3.0303 0.16388,-0.38275 -0.3969,-0.0745 -1.63373,0.89794 -1.73994,1.36815 -4.20643,2.92555 -6.2094,3.92081 -0.45328,0.22539 -1.03738,0.87461 -1.29802,1.44313 -0.26076,0.5685 -0.52084,1.12099 -0.57828,1.22777 -0.0575,0.10677 0.17899,0.28414 0.52513,0.39393 0.34626,0.11 1.56836,1.08544 2.71579,2.16787 2.85948,2.69747 4.23954,3.33422 4.68879,2.16352 z m -41.73402,-2.71006 c 1.37404,-1.27301 2.76918,-2.4005 3.10035,-2.50562 0.3312,-0.10515 0.55778,-0.2783 0.50366,-0.38522 -0.0539,-0.10677 -0.27279,-0.54081 -0.48604,-0.96456 -0.21337,-0.42373 -0.71788,-0.92091 -1.12151,-1.10479 -1.03179,-0.47013 -6.22039,-3.92943 -6.99687,-4.66492 -0.86823,-0.8224 -0.98614,-0.77043 -0.622,0.27418 0.22643,0.64911 0.21268,1.11526 -0.0504,1.75118 -0.43499,1.05012 -0.87187,1.12733 -0.87187,0.15425 0,-0.39181 -0.13119,-0.79358 -0.29169,-0.89279 -0.16044,-0.0993 -0.29204,0.0783 -0.29204,0.39461 0,0.59517 -1.53514,2.08959 -2.13837,2.08173 -1.0439,-0.0137 -1.21445,-0.57411 -0.37964,-1.24757 0.92467,-0.74596 0.9052,-2.39537 -0.031,-2.75523 -1.63489,-0.62738 -1.53653,4.71179 0.13913,7.54836 0.59499,1.00718 0.72819,1.02981 1.10189,0.18725 0.80836,-1.82232 4.20062,-2.62581 5.79411,-1.37232 0.83472,0.65656 1.09466,1.9242 0.33123,1.6153 -0.24085,-0.0976 -0.63482,-0.25699 -0.8756,-0.35433 -0.24084,-0.0976 -0.43777,-0.031 -0.43777,0.14597 0,0.17762 0.12195,0.32296 0.27107,0.32296 0.51741,0 1.18826,0.92117 1.18826,1.63165 0,0.5991 -0.10789,0.68726 -0.66943,0.54633 -0.81364,-0.20407 -1.77086,0.70999 -1.49532,1.42808 0.42899,1.11791 1.74777,0.55941 4.33172,-1.83449 z m 23.38467,-4.21392 c 2.9359,-0.52618 3.43466,-1.13285 2.28302,-2.77707 -1.55946,-2.2264 -5.36129,-1.73038 -5.36129,0.69951 0,1.0809 -0.49674,1.61305 -0.91661,0.98199 -0.30853,-0.46365 -0.0572,-3.97761 0.39785,-5.56518 0.78982,-2.75489 2.24193,-3.27926 7.54798,-2.72546 2.50462,0.26146 3.56082,-0.14155 3.89854,-1.48724 0.26696,-1.0641 0.87707,-0.68838 0.98542,0.60695 0.14918,1.78268 -1.35775,4.53673 -2.48229,4.53673 -0.46645,0 -0.47662,0.22847 -0.063,1.4154 0.17625,0.50532 0.42785,0.85229 0.55933,0.77104 0.13165,-0.0814 0.90418,-0.002 1.71713,0.16938 l 1.47806,0.31711 2.55942,-1.53458 c 6.90412,-4.1397 12.41597,-9.69918 15.86946,-16.00662 0.31266,-0.57088 0.84724,-1.49762 1.18813,-2.05946 3.19497,-5.26558 6.05034,-13.55744 7.43736,-21.59776 1.10104,-6.382249 1.15453,-17.229757 0.10652,-21.597724 -0.13471,-0.561838 -0.33018,-1.678198 -0.43444,-2.480845 -0.95455,-7.355371 -8.13484,-23.99906 -11.52102,-26.705318 -0.1003,-0.08025 -0.6722,-0.822131 -1.27059,-1.648594 -2.15381,-2.974771 -7.95206,-7.810184 -11.69162,-9.75023 l -1.43778,-0.74588 -1.10382,0.546134 c -0.6071,0.300383 -1.57179,0.57035 -2.14372,0.599949 -1.21109,0.06267 -2.42572,2.242775 -1.24957,2.242775 1.10759,0 2.53544,2.466477 2.53544,4.3797 0,1.442823 -0.41551,1.698926 -1.07765,0.664212 -0.95422,-1.491131 -1.20904,-1.584166 -3.73806,-1.364719 -5.60736,0.486556 -6.57172,0.150728 -7.56487,-2.634352 -0.52749,-1.479191 -0.84667,-5.137465 -0.49553,-5.679051 0.41117,-0.634158 0.9098,-0.09599 0.9098,0.981982 0,2.429891 3.80184,2.92593 5.36129,0.699505 2.07062,-2.956236 -2.083,-4.968435 -8.86364,-4.293933 -5.61918,0.558964 -7.74714,3.360682 -3.94902,5.19932 2.49343,1.207054 4.62846,0.04498 4.06226,-2.211027 -0.1601,-0.63831 -0.10241,-0.743412 0.35861,-0.651619 0.90443,0.180064 0.76201,4.919825 -0.20064,6.678955 -1.08849,1.989111 -2.3699,2.498377 -5.2018,2.067376 -3.96576,-0.603561 -5.26471,-0.316188 -5.87946,1.300682 -0.3051,0.802882 -0.80073,0.9138 -1.0603,0.237371 -0.52381,-1.365014 1.28986,-5.374389 2.43113,-5.374389 0.68219,0 0.3581,-1.258848 -0.33807,-1.313256 -1.4672,-0.114646 -2.77126,-0.498721 -3.41645,-1.0062 l -0.70294,-0.552951 -2.29656,1.465059 c -12.18029,7.77031 -20.17192,21.942752 -23.25819,41.246433 -0.48851,3.055359 -0.50045,14.531155 -0.0172,17.073885 0.38857,2.04698 0.53146,2.83488 0.93264,5.1425 0.28208,1.62248 0.76888,3.6252 1.16206,4.7808 0.13637,0.4013 0.4709,1.51766 0.74304,2.48081 0.27211,0.96313 0.66302,2.14518 0.86858,2.62676 0.20545,0.48155 0.61594,1.53226 0.91197,2.3349 1.99054,5.39671 6.99919,13.44736 10.88411,17.49442 4.56902,4.75976 10.24983,8.60578 11.88319,8.04517 0.46585,-0.15976 1.30671,-0.33841 1.8685,-0.39699 1.23369,-0.12815 1.56394,-1.03985 0.5441,-1.50184 -1.45541,-0.65935 -2.92544,-4.615 -2.03308,-5.47087 0.30817,-0.29581 0.44653,-0.25698 0.71661,0.20031 1.23622,2.0933 1.3185,2.10962 7.33925,1.45639 3.00971,-0.32674 4.57029,1.7372 4.6325,6.12609 0.0343,2.36155 -0.0205,2.64443 -0.51235,2.74333 -0.4611,0.0923 -0.51889,-0.0137 -0.35861,-0.65084 0.21886,-0.87256 -0.42455,-2.34021 -1.14783,-2.61775 -1.89695,-0.72795 -5.21242,1.32986 -4.62193,2.86867 0.47258,1.23152 7.99129,1.98144 12.23711,1.22049 z m 7.57148,-2.0431 c 0.52747,-0.3857 0.52419,-0.41114 -0.0962,-0.74315 -0.76726,-0.41063 -1.21399,-0.19858 -1.21399,0.57602 0,0.66262 0.53861,0.73134 1.31019,0.16699 z m -23.49166,-0.914 c 0,-0.82907 -0.85755,-1.01692 -1.43976,-0.31541 -0.27141,0.32709 -0.23293,0.47864 0.18313,0.7208 0.85809,0.4992 1.25661,0.37063 1.25661,-0.40535 z m 37.94197,-3.64827 c 0,-0.16044 -0.0581,-0.29203 -0.12891,-0.29203 -0.0707,0 -0.20993,0.13119 -0.3092,0.29203 -0.0993,0.16046 -0.0413,0.29169 0.1289,0.29169 0.17007,0 0.30921,-0.13118 0.30921,-0.29169 z m 2.74509,-1.42033 c -0.20991,-1.31289 -0.30131,-1.38118 -1.06912,-0.79849 -0.48028,0.36451 -0.46166,0.4458 0.29169,1.27405 0.97779,1.07478 1.02096,1.04836 0.77725,-0.47556 z m -55.57202,0.54476 c 0,-0.16045 -0.058,-0.29203 -0.1289,-0.29203 -0.0707,0 -0.20992,0.13118 -0.30921,0.29203 -0.0993,0.16044 -0.0413,0.29203 0.12876,0.29203 0.17007,0 0.30922,-0.1312 0.30922,-0.29203 z m -2.39513,-0.86024 0.86024,-0.86023 -0.65259,-0.61306 -0.65257,-0.61307 -0.17831,0.8166 c -0.0979,0.44914 -0.26249,1.11213 -0.36517,1.47331 -0.24772,0.87042 -0.0436,0.82837 0.98826,-0.20341 z m -0.31506,-93.144048 c -0.62381,-0.998866 -0.94312,-0.713714 -0.60673,0.541799 0.13745,0.512868 0.26557,0.58978 0.56664,0.339926 0.3075,-0.2551 0.31575,-0.440254 0.0402,-0.881736 z m 58.38947,-1.078763 c -0.0893,-0.425142 -0.16114,-0.400588 -0.47089,0.161134 -0.201,0.364496 -0.27555,0.808208 -0.1656,0.98603 0.26902,0.435095 0.77677,-0.480053 0.63663,-1.147164 z m -57.31361,-2.370196 c 0.25905,-0.903153 0.20923,-1.04902 -0.57334,-1.680219 -0.85217,-0.687261 -0.69161,-1.24868 0.36099,-1.262417 0.58475,-0.0076 2.09463,1.441163 2.21097,2.121488 0.0925,0.539841 0.15975,0.477899 0.40865,-0.374789 l 0.2982,-1.021517 0.56398,0.914121 0.56396,0.914122 2.29814,-1.680893 c 1.264,-0.924492 3.25713,-2.174224 4.42919,-2.777177 l 2.13106,-1.096284 -1.07785,-0.728295 c -0.59282,-0.400564 -1.96686,-1.565085 -3.0534,-2.587833 -2.06561,-1.944316 -3.43227,-2.43561 -3.8375,-1.379534 -0.27553,0.718085 0.68169,1.632278 1.49532,1.428071 0.98889,-0.248195 0.9152,1.06673 -0.10478,1.86903 -0.86601,0.681184 -0.765,1.112185 0.14628,0.624468 1.18157,-0.63236 1.31078,0.19556 0.20339,1.302996 -1.41775,1.417739 -5.00171,0.644245 -5.84721,-1.261943 -0.42303,-0.953766 -0.79793,-0.660996 -1.54758,1.208526 -0.8187,2.041764 -1.15379,5.071971 -0.66242,5.990112 0.48611,0.908323 1.2562,0.656135 1.59409,-0.522033 z m 57.09372,-0.181473 c 0.60403,-0.727835 0.18175,-4.492711 -0.72679,-6.476857 l -0.76639,-1.674013 -0.74132,0.947237 c -1.75089,2.237223 -5.71726,2.444104 -6.38722,0.333158 -0.25631,-0.807297 -0.0351,-0.977286 0.7356,-0.564927 0.95492,0.511053 1.07366,0.09389 0.17455,-0.613316 -0.81646,-0.642221 -0.97031,-1.947051 -0.21028,-1.784468 1.05978,0.226756 1.95028,-0.63129 1.60066,-1.542348 -0.43193,-1.125614 -1.81631,-0.448385 -4.82512,2.360456 -1.0708,0.999618 -2.22001,1.90417 -2.55378,2.010109 -0.97612,0.309797 -0.71888,0.672076 1.14532,1.61312 0.96371,0.486484 3.01956,1.737836 4.56857,2.780788 1.54902,1.04295 2.83438,1.861686 2.85633,1.819409 0.0205,-0.0423 0.16596,-0.460149 0.32021,-0.928602 0.39527,-1.201818 1.00979,-1.319938 1.00979,-0.194117 0,0.494949 0.1312,0.899907 0.29169,0.899907 0.16045,0 0.29169,-0.239776 0.29169,-0.532848 0,-0.899581 1.68236,-2.213999 2.45449,-1.917696 0.63835,0.244964 0.58346,0.914031 -0.0928,1.128609 -0.73017,0.231738 -0.86557,0.677911 -0.55623,1.832693 0.27348,1.02151 0.81927,1.216331 1.41073,0.503699 z m -40.49584,-1.817083 c 0.0855,-0.601964 0.24599,-1.317921 0.35603,-1.591018 0.17694,-0.438449 0.0274,-0.423139 -1.28462,0.130903 -1.68891,0.71355 -1.7022,0.740533 -0.88017,1.785596 0.89626,1.139389 1.61896,1.009341 1.80876,-0.325463 z m 24.16318,-0.529316 0.65124,-0.693237 -0.84507,-0.33048 c -2.89884,-1.133564 -3.1685,-1.195249 -2.63154,-0.601913 0.27553,0.304507 0.62865,1.015874 0.78464,1.580836 0.32777,1.187075 0.95468,1.200837 2.04073,0.0448 z"
       id="path328" /><path
       style="fill:#424b54;fill-opacity:1;stroke-width:0.291862"
       d="m 170.16767,164.37437 c 0,-0.17625 -0.40672,-0.70063 -0.90384,-1.16499 l -0.90385,-0.8443 0.90385,-2.17111 c 0.49712,-1.19412 0.90384,-2.50085 0.90384,-2.90386 0,-1.39523 0.49693,-1.0316 0.85995,0.62929 0.20065,0.91746 0.61406,2.24221 0.91898,2.94384 l 0.55439,1.27573 -0.8748,0.99635 c -0.48114,0.548 -0.8748,1.12311 -0.8748,1.27806 0,0.15494 -0.1312,0.28172 -0.29169,0.28172 -0.16045,0 -0.29203,-0.1443 -0.29203,-0.32054 z m -2.62662,-3.25459 c 10e-5,-0.0402 0.26283,-0.76388 0.58372,-1.60838 1.00199,-2.63621 0.48302,-4.44776 -1.27415,-4.44776 -0.76947,0 -2.23077,1.02082 -2.22386,1.55346 0.002,0.22814 0.0876,0.21233 0.25184,-0.0468 0.13606,-0.21475 0.56094,-0.34602 0.94409,-0.29171 0.87674,0.12407 1.1334,1.66309 0.39971,2.39682 -1.29008,1.29007 -3.56151,-0.16044 -3.25069,-2.07578 0.1251,-0.77063 -0.002,-1.10327 -0.70329,-1.80178 -1.58155,-1.58151 -0.10303,-3.05643 1.56215,-1.55826 0.54339,0.48894 0.56301,0.48635 0.45918,-0.0605 -0.19516,-1.02778 -3.76717,-1.74017 -5.78471,-1.15367 -4.32307,1.25675 -7.10461,4.48426 -4.75357,5.51571 0.82811,0.36327 0.70254,0.78529 -0.3147,1.05732 -0.56133,0.15009 -1.14037,0.024 -2.02399,-0.44516 -0.89861,-0.47582 -1.45757,-0.59599 -2.03988,-0.43863 -4.30169,1.16255 -9.56006,-5.05467 -10.14312,-11.99281 -0.45621,-5.42825 -0.58388,-6.08281 -1.36795,-7.01465 -1.18289,-1.40579 -2.80248,-0.80432 -3.20108,1.18867 -0.0952,0.47658 -0.3437,0.86648 -0.55198,0.86648 -0.5302,0 -1.16557,-2.00187 -0.7631,-2.40432 0.16904,-0.16903 0.2326,-0.68239 0.14079,-1.14058 -0.14978,-0.74945 -0.0753,-0.85131 0.74544,-1.01542 0.60884,-0.12158 0.91207,-0.35398 0.91207,-0.69845 0,-0.82222 2.14745,-1.2868 2.40307,-0.51985 0.0759,0.22745 0.18208,0.24497 0.30267,0.0498 0.10204,-0.16525 -0.17522,-0.74981 -0.61642,-1.299 -1.58537,-1.97339 -4.50917,-7.27666 -6.04744,-10.96893 -4.87859,-11.71011 -6.73248,-26.016158 -4.9875,-38.487108 1.4172,-10.127873 5.6647,-22.142149 9.69735,-27.429223 0.89362,-1.171609 0.88953,-1.493526 -0.0205,-1.722287 -0.45041,-0.113029 -0.72964,-0.390429 -0.72964,-0.724813 0,-0.373191 -0.2838,-0.598418 -0.91207,-0.724093 -0.82062,-0.164122 -0.89537,-0.265956 -0.74548,-1.015435 0.0917,-0.458164 0.0274,-0.971422 -0.14079,-1.140578 -0.39061,-0.390617 0.22537,-2.404321 0.73563,-2.404321 0.19309,0 0.54416,0.555558 0.77998,1.234574 0.87709,2.525347 3.09512,1.99467 3.76212,-0.900125 0.17177,-0.74578 0.43835,-2.978473 0.59221,-4.961534 0.33532,-4.32148 1.04125,-6.076432 3.69729,-9.191334 2.30168,-2.699336 5.43395,-4.003289 7.11734,-2.96291 0.18004,0.111312 0.5493,0.0016 0.82037,-0.243658 0.83439,-0.755109 2.02552,-1.083179 2.82675,-0.77856 0.90373,0.3436 0.92562,0.651192 0.0728,1.025272 -1.7323,0.760007 -0.16214,3.552999 2.68635,4.778375 1.93849,0.833919 4.3446,0.21779 5.26922,-1.349303 0.31334,-0.531258 0.76884,-1.042262 1.01198,-1.135561 0.33018,-0.126668 0.39895,-0.439336 0.27176,-1.2343 -0.32467,-2.030628 1.89165,-3.534761 3.23262,-2.193803 0.73373,0.733716 0.47704,2.272817 -0.39972,2.396784 -0.38315,0.05418 -0.80796,-0.07717 -0.94405,-0.291861 -0.16422,-0.259088 -0.2491,-0.274823 -0.25184,-0.04674 -0.007,0.532657 1.45439,1.553456 2.22385,1.553456 1.81863,0 2.34427,-2.211521 1.13262,-4.764911 -0.56013,-1.180429 -0.40212,-1.740921 0.29443,-1.044356 1.08603,1.086018 1.89266,4.713618 1.29601,5.828454 -0.27312,0.510109 -0.1996,0.564537 0.76087,0.564537 0.84944,0 1.0274,-0.09277 0.88586,-0.461665 -0.0976,-0.253897 -0.18621,-0.877766 -0.19756,-1.386342 -0.0172,-0.731436 -0.0666,-0.806738 -0.24152,-0.360329 -0.27075,0.691674 -0.47336,0.378844 -0.74322,-1.148072 -0.11336,-0.642096 -0.54895,-1.936686 -0.96775,-2.876865 -0.71076,-1.595495 -0.72741,-1.728502 -0.24978,-1.995691 0.28138,-0.157459 0.74132,-0.664123 1.02215,-1.12595 l 0.51066,-0.839675 1.0999,1.315825 c 0.77602,0.928366 1.01466,1.419509 0.81044,1.667923 -0.42596,0.518174 -1.28877,3.661327 -1.1197,4.079118 0.0814,0.200884 0.1553,0.125753 0.16836,-0.170581 0.0406,-0.934935 1.24866,-3.410513 1.66422,-3.410513 0.50995,0 0.51152,-0.01371 -0.17557,1.500398 -1.24282,2.738985 -0.39929,5.008551 1.66967,4.492195 0.88986,-0.222083 1.82624,-0.953476 1.82624,-1.426417 0,-0.18697 -0.13576,-0.169449 -0.35022,0.04526 -0.96513,0.965117 -2.22163,-0.155946 -1.70315,-1.519606 0.62959,-1.655997 3.09914,-1.176158 3.63922,0.707123 0.1601,0.557798 0.66869,1.332095 1.13049,1.720657 0.64865,0.545818 0.80491,0.879939 0.68703,1.469291 -0.14186,0.709468 -0.0504,0.787042 1.30533,1.109135 3.81348,0.905859 9.24916,-3.569201 6.513,-5.361987 -1.62443,-1.064374 0.90272,-1.475904 2.60454,-0.424128 0.57643,0.35626 1.20245,0.552332 1.39114,0.435718 1.71591,-1.060495 4.71347,0.439421 7.31778,3.661671 2.44034,3.01939 3.03423,4.717786 3.41676,9.771069 0.34656,4.578613 1.06702,6.292979 2.64459,6.292979 0.60369,0 1.75712,-1.428204 1.75712,-2.175693 0,-0.964142 0.68119,-0.96386 1.12058,4.67e-4 0.4242,0.931028 0.43184,1.673496 0.0205,2.083912 -0.22847,0.228474 -0.22813,0.37232 8.7e-4,0.51388 0.53562,0.331063 -0.20546,1.328604 -0.98694,1.328604 -0.50274,0 -0.72528,0.184393 -0.79235,0.656687 -0.0591,0.415469 -0.32776,0.690073 -0.73172,0.747566 -0.59834,0.08518 -0.54095,0.241048 0.91314,2.480824 1.40605,2.165727 5.12478,9.385764 5.12478,9.949938 0,0.127643 0.18827,0.645913 0.41864,1.151743 7.27105,15.973653 5.97752,42.911053 -2.84025,59.146043 -0.47951,0.88287 -1.16512,2.15216 -1.52359,2.8206 -0.35846,0.66845 -1.39052,2.28783 -2.29341,3.59859 -1.81043,2.62819 -1.88626,2.78621 -1.10199,2.29641 0.77553,-0.48433 2.08708,-0.0887 2.08708,0.62952 0,0.41996 0.19686,0.57816 0.7194,0.57816 0.82463,0 1.47254,0.9018 0.99268,1.38166 -0.21027,0.21027 -0.20615,0.36392 0.0137,0.49973 0.41273,0.25491 0.40375,1.11186 -0.0205,2.04502 -0.43936,0.96433 -1.12059,0.96461 -1.12059,4.5e-4 0,-0.87032 -1.19068,-2.17568 -1.98452,-2.17568 -1.39487,0 -2.0684,1.74829 -2.41353,6.26497 -0.42243,5.52721 -1.05563,7.15697 -4.18201,10.76349 -2.05482,2.37034 -4.48601,3.45417 -6.2468,2.78472 -0.53656,-0.20407 -0.93729,-0.12332 -1.68529,0.33877 -0.64779,0.40036 -1.34868,0.57552 -2.06233,0.51535 -1.26585,-0.10677 -1.61513,-0.67144 -0.57651,-0.9321 2.48304,-0.62321 -0.38416,-4.24046 -4.27528,-5.39376 -3.38254,-1.00258 -5.32247,-0.85093 -6.01834,0.47044 -0.36013,0.68391 -0.089,0.88725 0.45641,0.3422 0.17315,-0.17317 0.69185,-0.27176 1.15284,-0.21886 1.17672,0.13439 1.26725,1.11901 0.18656,2.02839 -0.45544,0.38319 -0.95895,1.15313 -1.1189,1.71092 -0.54014,1.88328 -3.00964,2.36313 -3.63926,0.70713 -0.50437,-1.32661 1.33243,-2.81276 1.86013,-1.505 0.11635,0.28895 0.15191,0.28791 0.17006,-0.002 0.031,-0.47233 -1.68481,-1.52547 -2.48553,-1.52687 -1.55674,-0.002 -2.0466,2.2932 -0.98738,4.62759 0.687,1.51401 0.68542,1.50041 0.17556,1.50041 -0.51346,0 -1.59494,-2.50012 -1.83315,-4.23774 -0.29615,-2.16077 0.78943,-3.35068 3.05688,-3.35068 0.40412,0 0.66442,-0.0704 0.57851,-0.15632 -0.086,-0.086 -1.95532,-0.19069 -4.15416,-0.2326 -3.95027,-0.0755 -5.31497,0.144 -3.09925,0.49834 1.32694,0.21234 2.35072,1.30571 2.35072,2.51088 0,0.90801 -1.00427,3.98187 -1.49351,4.57136 -0.28001,0.33739 -0.84172,0.55359 -0.84126,0.32365 z m 26.09728,-4.4931 c 0.24599,-0.64103 -0.6577,-1.60296 -1.40856,-1.49932 -1.03879,0.14323 -0.94734,-0.96214 0.15837,-1.91568 0.9595,-0.82733 0.74472,-0.93189 -0.69579,-0.33876 -0.80708,0.33223 -0.63402,-0.64144 0.26145,-1.47137 1.46979,-1.36215 4.24494,-0.83384 5.75493,1.09553 l 0.74132,0.94725 0.76639,-1.67404 c 1.33945,-2.92576 1.33028,-6.92168 -0.0172,-6.92168 -0.95674,0 -1.06376,2.47909 -0.11996,2.77863 0.6829,0.21678 0.74248,0.88499 0.10067,1.13122 -0.72314,0.27762 -2.183,-0.73938 -2.36592,-1.64792 -0.21612,-1.07369 -0.6723,-1.02419 -0.6723,0.0728 0,1.01975 -0.42083,1.14157 -0.89338,0.25871 -0.34047,-0.63587 -0.25973,-2.00663 0.17797,-3.0303 0.16388,-0.38275 -0.3969,-0.0745 -1.63373,0.89794 -1.73994,1.36815 -4.20643,2.92555 -6.2094,3.92081 -0.45328,0.22539 -1.03738,0.87461 -1.29802,1.44313 -0.26076,0.5685 -0.52084,1.12099 -0.57828,1.22777 -0.0575,0.10677 0.17899,0.28414 0.52513,0.39393 0.34626,0.11 1.56836,1.08544 2.71579,2.16787 2.85948,2.69747 4.23954,3.33422 4.68879,2.16352 z m -41.73402,-2.71006 c 1.37404,-1.27301 2.76918,-2.4005 3.10035,-2.50562 0.3312,-0.10515 0.55778,-0.2783 0.50366,-0.38522 -0.0539,-0.10677 -0.27279,-0.54081 -0.48604,-0.96456 -0.21337,-0.42373 -0.71788,-0.92091 -1.12151,-1.10479 -1.03179,-0.47013 -6.22039,-3.92943 -6.99687,-4.66492 -0.86823,-0.8224 -0.98614,-0.77043 -0.622,0.27418 0.22643,0.64911 0.21268,1.11526 -0.0504,1.75118 -0.43499,1.05012 -0.87187,1.12733 -0.87187,0.15425 0,-0.39181 -0.13119,-0.79358 -0.29169,-0.89279 -0.16044,-0.0993 -0.29204,0.0783 -0.29204,0.39461 0,0.59517 -1.53514,2.08959 -2.13837,2.08173 -1.0439,-0.0137 -1.21445,-0.57411 -0.37964,-1.24757 0.92467,-0.74596 0.9052,-2.39537 -0.031,-2.75523 -1.63489,-0.62738 -1.53653,4.71179 0.13913,7.54836 0.59499,1.00718 0.72819,1.02981 1.10189,0.18725 0.80836,-1.82232 4.20062,-2.62581 5.79411,-1.37232 0.83472,0.65656 1.09466,1.9242 0.33123,1.6153 -0.24085,-0.0976 -0.63482,-0.25699 -0.8756,-0.35433 -0.24084,-0.0976 -0.43777,-0.031 -0.43777,0.14597 0,0.17762 0.12195,0.32296 0.27107,0.32296 0.51741,0 1.18826,0.92117 1.18826,1.63165 0,0.5991 -0.10789,0.68726 -0.66943,0.54633 -0.81364,-0.20407 -1.77086,0.70999 -1.49532,1.42808 0.42899,1.11791 1.74777,0.55941 4.33172,-1.83449 z m 23.38467,-4.21392 c 2.9359,-0.52618 3.43466,-1.13285 2.28302,-2.77707 -1.55946,-2.2264 -5.36129,-1.73038 -5.36129,0.69951 0,1.0809 -0.49674,1.61305 -0.91661,0.98199 -0.30853,-0.46365 -0.0572,-3.97761 0.39785,-5.56518 0.78982,-2.75489 2.24193,-3.27926 7.54798,-2.72546 2.50462,0.26146 3.56082,-0.14155 3.89854,-1.48724 0.26696,-1.0641 0.87707,-0.68838 0.98542,0.60695 0.14918,1.78268 -1.35775,4.53673 -2.48229,4.53673 -0.46645,0 -0.47662,0.22847 -0.063,1.4154 0.17625,0.50532 0.42785,0.85229 0.55933,0.77104 0.13165,-0.0814 0.90418,-0.002 1.71713,0.16938 l 1.47806,0.31711 2.55942,-1.53458 c 6.90412,-4.1397 12.41597,-9.69918 15.86946,-16.00662 0.31266,-0.57088 0.84724,-1.49762 1.18813,-2.05946 3.19497,-5.26558 6.05034,-13.55744 7.43736,-21.59776 1.10104,-6.382249 1.15453,-17.229757 0.10652,-21.597724 -0.13471,-0.561838 -0.33018,-1.678198 -0.43444,-2.480845 -0.95455,-7.355371 -8.13484,-23.99906 -11.52102,-26.705318 -0.1003,-0.08025 -0.6722,-0.822131 -1.27059,-1.648594 -2.15381,-2.974771 -7.95206,-7.810184 -11.69162,-9.75023 l -1.43778,-0.74588 -1.10382,0.546134 c -0.6071,0.300383 -1.57179,0.57035 -2.14372,0.599949 -1.21109,0.06267 -2.42572,2.242775 -1.24957,2.242775 1.10759,0 2.53544,2.466477 2.53544,4.3797 0,1.442823 -0.41551,1.698926 -1.07765,0.664212 -0.95422,-1.491131 -1.20904,-1.584166 -3.73806,-1.364719 -5.60736,0.486556 -6.57172,0.150728 -7.56487,-2.634352 -0.52749,-1.479191 -0.84667,-5.137465 -0.49553,-5.679051 0.41117,-0.634158 0.9098,-0.09599 0.9098,0.981982 0,2.429891 3.80184,2.92593 5.36129,0.699505 2.07062,-2.956236 -2.083,-4.968435 -8.86364,-4.293933 -5.61918,0.558964 -7.74714,3.360682 -3.94902,5.19932 2.49343,1.207054 4.62846,0.04498 4.06226,-2.211027 -0.1601,-0.63831 -0.10241,-0.743412 0.35861,-0.651619 0.90443,0.180064 0.76201,4.919825 -0.20064,6.678955 -1.08849,1.989111 -2.3699,2.498377 -5.2018,2.067376 -3.96576,-0.603561 -5.26471,-0.316188 -5.87946,1.300682 -0.3051,0.802882 -0.80073,0.9138 -1.0603,0.237371 -0.52381,-1.365014 1.28986,-5.374389 2.43113,-5.374389 0.68219,0 0.3581,-1.258848 -0.33807,-1.313256 -1.4672,-0.114646 -2.77126,-0.498721 -3.41645,-1.0062 l -0.70294,-0.552951 -2.29656,1.465059 c -12.18029,7.77031 -20.17192,21.942752 -23.25819,41.246433 -0.48851,3.055359 -0.50045,14.531155 -0.0172,17.073885 0.38857,2.04698 0.53146,2.83488 0.93264,5.1425 0.28208,1.62248 0.76888,3.6252 1.16206,4.7808 0.13637,0.4013 0.4709,1.51766 0.74304,2.48081 0.27211,0.96313 0.66302,2.14518 0.86858,2.62676 0.20545,0.48155 0.61594,1.53226 0.91197,2.3349 1.99054,5.39671 6.99919,13.44736 10.88411,17.49442 4.56902,4.75976 10.24983,8.60578 11.88319,8.04517 0.46585,-0.15976 1.30671,-0.33841 1.8685,-0.39699 1.23369,-0.12815 1.56394,-1.03985 0.5441,-1.50184 -1.45541,-0.65935 -2.92544,-4.615 -2.03308,-5.47087 0.30817,-0.29581 0.44653,-0.25698 0.71661,0.20031 1.23622,2.0933 1.3185,2.10962 7.33925,1.45639 3.00971,-0.32674 4.57029,1.7372 4.6325,6.12609 0.0343,2.36155 -0.0205,2.64443 -0.51235,2.74333 -0.4611,0.0923 -0.51889,-0.0137 -0.35861,-0.65084 0.21886,-0.87256 -0.42455,-2.34021 -1.14783,-2.61775 -1.89695,-0.72795 -5.21242,1.32986 -4.62193,2.86867 0.47258,1.23152 7.99129,1.98144 12.23711,1.22049 z m 7.57148,-2.0431 c 0.52747,-0.3857 0.52419,-0.41114 -0.0962,-0.74315 -0.76726,-0.41063 -1.21399,-0.19858 -1.21399,0.57602 0,0.66262 0.53861,0.73134 1.31019,0.16699 z m -23.49166,-0.914 c 0,-0.82907 -0.85755,-1.01692 -1.43976,-0.31541 -0.27141,0.32709 -0.23293,0.47864 0.18313,0.7208 0.85809,0.4992 1.25661,0.37063 1.25661,-0.40535 z m 37.94197,-3.64827 c 0,-0.16044 -0.0581,-0.29203 -0.12891,-0.29203 -0.0707,0 -0.20993,0.13119 -0.3092,0.29203 -0.0993,0.16046 -0.0413,0.29169 0.1289,0.29169 0.17007,0 0.30921,-0.13118 0.30921,-0.29169 z m 2.74509,-1.42033 c -0.20991,-1.31289 -0.30131,-1.38118 -1.06912,-0.79849 -0.48028,0.36451 -0.46166,0.4458 0.29169,1.27405 0.97779,1.07478 1.02096,1.04836 0.77725,-0.47556 z m -55.57202,0.54476 c 0,-0.16045 -0.058,-0.29203 -0.1289,-0.29203 -0.0707,0 -0.20992,0.13118 -0.30921,0.29203 -0.0993,0.16044 -0.0413,0.29203 0.12876,0.29203 0.17007,0 0.30922,-0.1312 0.30922,-0.29203 z m -2.39513,-0.86024 0.86024,-0.86023 -0.65259,-0.61306 -0.65257,-0.61307 -0.17831,0.8166 c -0.0979,0.44914 -0.26249,1.11213 -0.36517,1.47331 -0.24772,0.87042 -0.0436,0.82837 0.98826,-0.20341 z m -0.31506,-93.144048 c -0.62381,-0.998866 -0.94312,-0.713714 -0.60673,0.541799 0.13745,0.512868 0.26557,0.58978 0.56664,0.339926 0.3075,-0.2551 0.31575,-0.440254 0.0402,-0.881736 z m 58.38947,-1.078763 c -0.0893,-0.425142 -0.16114,-0.400588 -0.47089,0.161134 -0.201,0.364496 -0.27555,0.808208 -0.1656,0.98603 0.26902,0.435095 0.77677,-0.480053 0.63663,-1.147164 z m -57.31361,-2.370196 c 0.25905,-0.903153 0.20923,-1.04902 -0.57334,-1.680219 -0.85217,-0.687261 -0.69161,-1.24868 0.36099,-1.262417 0.58475,-0.0076 2.09463,1.441163 2.21097,2.121488 0.0925,0.539841 0.15975,0.477899 0.40865,-0.374789 l 0.2982,-1.021517 0.56398,0.914121 0.56396,0.914122 2.29814,-1.680893 c 1.264,-0.924492 3.25713,-2.174224 4.42919,-2.777177 l 2.13106,-1.096284 -1.07785,-0.728295 c -0.59282,-0.400564 -1.96686,-1.565085 -3.0534,-2.587833 -2.06561,-1.944316 -3.43227,-2.43561 -3.8375,-1.379534 -0.27553,0.718085 0.68169,1.632278 1.49532,1.428071 0.98889,-0.248195 0.9152,1.06673 -0.10478,1.86903 -0.86601,0.681184 -0.765,1.112185 0.14628,0.624468 1.18157,-0.63236 1.31078,0.19556 0.20339,1.302996 -1.41775,1.417739 -5.00171,0.644245 -5.84721,-1.261943 -0.42303,-0.953766 -0.79793,-0.660996 -1.54758,1.208526 -0.8187,2.041764 -1.15379,5.071971 -0.66242,5.990112 0.48611,0.908323 1.2562,0.656135 1.59409,-0.522033 z m 57.09372,-0.181473 c 0.60403,-0.727835 0.18175,-4.492711 -0.72679,-6.476857 l -0.76639,-1.674013 -0.74132,0.947237 c -1.75089,2.237223 -5.71726,2.444104 -6.38722,0.333158 -0.25631,-0.807297 -0.0351,-0.977286 0.7356,-0.564927 0.95492,0.511053 1.07366,0.09389 0.17455,-0.613316 -0.81646,-0.642221 -0.97031,-1.947051 -0.21028,-1.784468 1.05978,0.226756 1.95028,-0.63129 1.60066,-1.542348 -0.43193,-1.125614 -1.81631,-0.448385 -4.82512,2.360456 -1.0708,0.999618 -2.22001,1.90417 -2.55378,2.010109 -0.97612,0.309797 -0.71888,0.672076 1.14532,1.61312 0.96371,0.486484 3.01956,1.737836 4.56857,2.780788 1.54902,1.04295 2.83438,1.861686 2.85633,1.819409 0.0205,-0.0423 0.16596,-0.460149 0.32021,-0.928602 0.39527,-1.201818 1.00979,-1.319938 1.00979,-0.194117 0,0.494949 0.1312,0.899907 0.29169,0.899907 0.16045,0 0.29169,-0.239776 0.29169,-0.532848 0,-0.899581 1.68236,-2.213999 2.45449,-1.917696 0.63835,0.244964 0.58346,0.914031 -0.0928,1.128609 -0.73017,0.231738 -0.86557,0.677911 -0.55623,1.832693 0.27348,1.02151 0.81927,1.216331 1.41073,0.503699 z m -40.49584,-1.817083 c 0.0855,-0.601964 0.24599,-1.317921 0.35603,-1.591018 0.17694,-0.438449 0.0274,-0.423139 -1.28462,0.130903 -1.68891,0.71355 -1.7022,0.740533 -0.88017,1.785596 0.89626,1.139389 1.61896,1.009341 1.80876,-0.325463 z m 24.16318,-0.529316 0.65124,-0.693237 -0.84507,-0.33048 c -2.89884,-1.133564 -3.1685,-1.195249 -2.63154,-0.601913 0.27553,0.304507 0.62865,1.015874 0.78464,1.580836 0.32777,1.187075 0.95468,1.200837 2.04073,0.0448 z"
       id="path330" /></g></svg>
